<svg width="24" height="24" viewBox="0 0 24 24" fill="none" xmlns="http://www.w3.org/2000/svg">
<g clip-path="url(#clip0_1800_2898)">
<path d="M20.3038 8.41659L18.0798 7.60711C18.8839 6.94267 19.2272 5.88876 18.9811 4.88727C18.4973 2.91961 16.0982 2.17266 14.5825 3.51257L13.0469 4.86999L12.7432 2.83422C12.4428 0.82996 10.1224 -0.134305 8.49004 1.05995C7.67382 1.65707 7.23964 2.68643 7.43218 3.73162L5.33535 2.96845C4.30373 2.59289 3.15871 3.12678 2.78315 4.15853L1.87516 6.65326C1.7498 6.99771 1.92741 7.37863 2.2719 7.50395C2.41162 7.55477 12.4969 11.2255 12.645 11.2794C12.2253 11.2794 3.03326 11.2794 2.62885 11.2794C2.26229 11.2794 1.96512 11.5766 1.96512 11.9432V21.2352C1.96512 22.3331 2.85835 23.2263 3.95626 23.2263H9.26601H11.9209H17.2306C18.3285 23.2263 19.2218 22.3331 19.2218 21.2352V13.6732L19.7352 13.8601C20.0781 13.985 20.46 13.8093 20.5859 13.4634L21.494 10.9687C21.8694 9.93694 21.3355 8.7921 20.3038 8.41659ZM8.60224 21.8989H3.95622C3.59023 21.8989 3.29249 21.6012 3.29249 21.2352V12.6069H8.60224V21.8989ZM11.2571 21.8989H9.9297V12.6069H11.2571V21.8989ZM15.4616 4.50715C16.2316 3.82645 17.4471 4.2083 17.692 5.20425C17.9531 6.26613 16.9267 7.18688 15.8995 6.81358C15.0257 6.49555 14.6162 6.34652 13.7412 6.02804L15.4616 4.50715ZM9.27377 2.13136C10.1033 1.52453 11.2784 2.01694 11.4304 3.03106L11.7708 5.31078C11.5258 5.22162 9.85365 4.61297 9.61272 4.52532C8.58535 4.15118 8.3913 2.77683 9.27377 2.13136ZM9.58644 8.75359L3.34957 6.48354L4.03058 4.61253C4.15576 4.26861 4.53744 4.09073 4.88131 4.21583C5.57925 4.46984 10.2792 6.18048 10.4944 6.25882L9.58644 8.75359ZM12.0812 9.66167L10.8338 9.20763L11.7419 6.7129L12.9892 7.16694L12.0812 9.66167ZM17.8943 21.2352C17.8943 21.6012 17.5965 21.8989 17.2305 21.8989H12.5846V12.6069H16.2921L17.8943 13.19V21.2352H17.8943ZM20.2464 10.5146L19.5655 12.3857L13.3286 10.1156L14.2366 7.62089L19.8498 9.66388C20.1937 9.78907 20.3716 10.1707 20.2464 10.5146Z" fill="white"/>
</g>
<defs>
<clipPath id="clip0_1800_2898">
<rect width="22.6886" height="22.6886" fill="white" transform="translate(0.380249 0.53772)"/>
</clipPath>
</defs>
</svg>
