<svg width="18" height="16" viewBox="0 0 18 16" fill="none" xmlns="http://www.w3.org/2000/svg">
<path d="M17.207 7.22151L9.33197 0.221512C9.17173 0.0788319 8.96465 0 8.75009 0C8.53554 0 8.32846 0.0788319 8.16822 0.221512L0.293227 7.22151C0.207392 7.29792 0.137448 7.39049 0.0873884 7.49393C0.037329 7.59738 0.00813459 7.70967 0.00147199 7.82439C-0.00519061 7.93912 0.0108091 8.05404 0.0485577 8.16258C0.0863062 8.27112 0.145064 8.37117 0.221477 8.457C0.29789 8.54284 0.390461 8.61278 0.493905 8.66284C0.597349 8.7129 0.70964 8.7421 0.824367 8.74876C0.939093 8.75542 1.05401 8.73942 1.16255 8.70167C1.2711 8.66392 1.37114 8.60517 1.45698 8.52875L1.7501 8.26625V14.8751C1.7501 15.1072 1.84229 15.3297 2.00638 15.4938C2.17048 15.6579 2.39304 15.7501 2.6251 15.7501H6.1251C6.35716 15.7501 6.57972 15.6579 6.74381 15.4938C6.90791 15.3297 7.0001 15.1072 7.0001 14.8751V12.2501C7.0001 12.0181 7.09228 11.7955 7.25638 11.6314C7.42047 11.4673 7.64303 11.3751 7.87509 11.3751H9.62509C9.85716 11.3751 10.0797 11.4673 10.2438 11.6314C10.4079 11.7955 10.5001 12.0181 10.5001 12.2501V14.8751C10.5001 15.1072 10.5923 15.3297 10.7564 15.4938C10.9205 15.6579 11.143 15.7501 11.3751 15.7501H14.8751C15.1072 15.7501 15.3297 15.6579 15.4938 15.4938C15.6579 15.3297 15.7501 15.1072 15.7501 14.8751V8.268L16.0432 8.5305C16.129 8.60692 16.2291 8.66568 16.3376 8.70342C16.4462 8.74117 16.5611 8.75717 16.6758 8.75051C16.7905 8.74385 16.9028 8.71465 17.0063 8.66459C17.1097 8.61453 17.2023 8.54459 17.2787 8.45875C17.3551 8.37292 17.4139 8.27287 17.4516 8.16433C17.4894 8.05579 17.5054 7.94087 17.4987 7.82614C17.4921 7.71142 17.4629 7.59913 17.4128 7.49568C17.3627 7.39224 17.2928 7.29967 17.207 7.22326V7.22151Z" fill="#009142"/>
</svg>
