<svg width="16" height="17" viewBox="0 0 16 17" fill="none" xmlns="http://www.w3.org/2000/svg">
<g clip-path="url(#clip0_192_4167)">
<path d="M1.33331 10.0417H7.49998V16.3751H2.49998C1.85998 16.3751 1.33331 15.8484 1.33331 15.2084V10.0417Z" fill="#616161"/>
<path d="M14.6667 10.0417V15.2084C14.6667 15.8484 14.14 16.3751 13.5 16.3751H8.5V10.0417H14.6667Z" fill="#616161"/>
<path d="M0 6.20841V7.87508C0 8.51508 0.526667 9.04175 1.16667 9.04175H1.33333H7.5V8.04175V5.04175H1.16667C0.526667 5.04175 0 5.56841 0 6.20841Z" fill="#616161"/>
<path d="M14.8333 5.04175H8.5V8.04175V9.04175H14.6667H14.8333C15.4733 9.04175 16 8.51508 16 7.87508V6.20841C16 5.56841 15.4733 5.04175 14.8333 5.04175Z" fill="#616161"/>
<path d="M8 5.7377C7.85467 5.7377 7.716 5.67437 7.622 5.56437C7.52667 5.45437 7.48467 5.30837 7.50534 5.16437C7.752 3.4977 9.054 0.345032 12.2193 0.345032C14.026 0.345698 14.6667 1.3217 14.6667 2.1577C14.6667 3.6437 12.598 5.7377 8 5.7377ZM12.2193 1.3457C9.83134 1.3457 8.92467 3.6157 8.624 4.72303C10.508 4.63503 11.696 4.15837 12.38 3.75237C13.3287 3.18903 13.6667 2.55903 13.6667 2.15703C13.6667 1.55837 12.9193 1.3457 12.2193 1.3457Z" fill="#616161"/>
<path d="M8.00065 5.7377C3.40265 5.7377 1.33398 3.6437 1.33398 2.1577C1.33398 1.3217 1.97532 0.345703 3.78198 0.345703C6.94665 0.345703 8.24865 3.49837 8.49532 5.16504C8.51599 5.30904 8.47398 5.45504 8.37865 5.56504C8.28465 5.67437 8.14598 5.7377 8.00065 5.7377ZM3.78198 1.3457C3.08198 1.3457 2.33398 1.55904 2.33398 2.1577C2.33398 3.00904 3.82265 4.56037 7.37598 4.7237C7.07598 3.6157 6.16932 1.3457 3.78198 1.3457Z" fill="#616161"/>
</g>
<defs>
<clipPath id="clip0_192_4167">
<rect width="16" height="16" fill="white" transform="translate(0 0.375061)"/>
</clipPath>
</defs>
</svg>
