<svg width="18" height="18" viewBox="0 0 18 18" fill="none" xmlns="http://www.w3.org/2000/svg">
<path d="M16.875 9.00007C16.875 11.0886 16.0453 13.0917 14.5685 14.5685C13.0916 16.0454 11.0886 16.8751 9 16.8751C6.91142 16.8751 4.90838 16.0454 3.43153 14.5685C1.95469 13.0917 1.125 11.0886 1.125 9.00007C1.125 8.85088 1.18426 8.70781 1.28975 8.60232C1.39524 8.49683 1.53832 8.43757 1.6875 8.43757C1.83668 8.43757 1.97976 8.49683 2.08525 8.60232C2.19074 8.70781 2.25 8.85088 2.25 9.00007C2.24775 10.5065 2.74871 11.9705 3.67338 13.1597C4.59805 14.3489 5.89344 15.1952 7.35394 15.5643C8.81444 15.9333 10.3564 15.804 11.735 15.1968C13.1136 14.5896 14.2499 13.5393 14.9635 12.2127C15.6772 10.886 15.9273 9.35904 15.6741 7.87405C15.4209 6.38907 14.679 5.03119 13.5661 4.01595C12.4532 3.00071 11.0331 2.38627 9.53116 2.27016C8.02923 2.15405 6.53155 2.54293 5.27584 3.37507H5.625C5.77418 3.37507 5.91726 3.43433 6.02275 3.53982C6.12824 3.64531 6.1875 3.78838 6.1875 3.93757C6.1875 4.08675 6.12824 4.22982 6.02275 4.33531C5.91726 4.4408 5.77418 4.50007 5.625 4.50007H3.9375C3.86362 4.50011 3.79046 4.48559 3.72219 4.45733C3.65393 4.42908 3.5919 4.38765 3.53966 4.33541C3.48742 4.28317 3.44599 4.22114 3.41773 4.15287C3.38948 4.08461 3.37496 4.01145 3.375 3.93757V2.25007C3.375 2.10088 3.43426 1.95781 3.53975 1.85232C3.64524 1.74683 3.78832 1.68757 3.9375 1.68757C4.08668 1.68757 4.22976 1.74683 4.33525 1.85232C4.44074 1.95781 4.5 2.10088 4.5 2.25007V2.53915C5.68056 1.71631 7.06407 1.23277 8.50017 1.14107C9.93627 1.04936 11.37 1.35301 12.6457 2.01901C13.9213 2.68501 14.99 3.68789 15.7356 4.91867C16.4813 6.14944 16.8753 7.56104 16.875 9.00007ZM14.0625 9.00007C14.0625 10.0013 13.7656 10.9801 13.2093 11.8126C12.653 12.6452 11.8624 13.294 10.9373 13.6772C10.0123 14.0604 8.99438 14.1606 8.01236 13.9653C7.03033 13.77 6.12827 13.2878 5.42027 12.5798C4.71227 11.8718 4.23011 10.9697 4.03477 9.98771C3.83944 9.00568 3.93969 7.98778 4.32286 7.06273C4.70603 6.13768 5.3549 5.34702 6.18743 4.79075C7.01995 4.23448 7.99873 3.93757 9 3.93757C10.3422 3.93903 11.629 4.47287 12.5781 5.42196C13.5272 6.37104 14.061 7.65786 14.0625 9.00007ZM10.9995 9.65706L9.5625 8.69904V6.18757C9.5625 6.03838 9.50324 5.89531 9.39775 5.78982C9.29226 5.68433 9.14918 5.62507 9 5.62507C8.85082 5.62507 8.70774 5.68433 8.60225 5.78982C8.49676 5.89531 8.4375 6.03838 8.4375 6.18757V9.00007C8.43752 9.09266 8.46039 9.18382 8.50409 9.26546C8.54778 9.3471 8.61095 9.41669 8.68799 9.46807L10.3755 10.5931C10.4996 10.6741 10.6507 10.7028 10.7959 10.6731C10.9411 10.6433 11.0687 10.5574 11.151 10.4341C11.2332 10.3107 11.2634 10.1599 11.235 10.0144C11.2067 9.86891 11.122 9.74049 10.9995 9.65706Z" fill="#616161"/>
</svg>
