<svg width="18" height="18" viewBox="0 0 18 18" fill="none" xmlns="http://www.w3.org/2000/svg">
<g clip-path="url(#clip0_1800_2889)">
<path d="M10.0244 11.9791C9.60103 11.6838 9.14864 11.4431 8.67552 11.2593C9.3049 10.6872 9.72241 9.88589 9.79506 8.98878C10.7495 8.05879 12.0006 7.54895 13.3417 7.54895C14.3888 7.54895 15.394 7.86423 16.2491 8.46059C16.5556 8.67429 16.9769 8.59927 17.1906 8.29284C17.4042 7.98654 17.3292 7.56507 17.0229 7.35149C16.5995 7.05615 16.147 6.81563 15.6739 6.63164C16.3684 6.00042 16.8051 5.09024 16.8051 4.08007C16.8051 2.17848 15.2581 0.631531 13.3565 0.631531C11.4551 0.631531 9.90812 2.17848 9.90812 4.08007C9.90812 5.08614 10.3412 5.99302 11.031 6.62398C10.9365 6.6603 10.8426 6.69874 10.7496 6.73968C10.3264 6.92592 9.92859 7.15495 9.55863 7.42387C9.04839 6.15627 7.80616 5.25917 6.35814 5.25917C4.45668 5.25917 2.9096 6.80612 2.9096 8.70758C2.9096 9.71088 3.34032 10.6152 4.02635 11.2459C2.19213 11.9332 0.704877 13.4092 0.0994114 15.2916C-0.101354 15.9158 0.00497244 16.5778 0.391181 17.1079C0.777391 17.6378 1.37493 17.9417 2.03059 17.9417H7.91341C8.28681 17.9417 8.58954 17.639 8.58954 17.2655C8.58954 16.8921 8.28681 16.5893 7.91341 16.5893H2.03059C1.81199 16.5893 1.61281 16.488 1.48403 16.3113C1.35525 16.1346 1.31985 15.9139 1.38669 15.7057C2.05502 13.6278 4.09332 12.1766 6.34334 12.1766C7.39023 12.1766 8.39564 12.4919 9.25074 13.0882C9.55704 13.3019 9.97852 13.2268 10.1922 12.9205C10.4058 12.6142 10.3308 12.1927 10.0244 11.9791ZM13.3565 1.98392C14.5124 1.98392 15.4527 2.92422 15.4527 4.08007C15.4527 5.23579 14.5124 6.17622 13.3565 6.17622C12.2008 6.17622 11.2604 5.23579 11.2604 4.08007C11.2604 2.92422 12.2008 1.98392 13.3565 1.98392ZM6.35814 6.61143C7.51399 6.61143 8.45429 7.55186 8.45429 8.70758C8.45429 9.86343 7.51399 10.8037 6.35814 10.8037C5.20228 10.8037 4.26199 9.86343 4.26199 8.70758C4.26199 7.55186 5.20228 6.61143 6.35814 6.61143ZM17.3123 14.7299C17.3123 15.1033 17.0095 15.406 16.636 15.406H14.7765V17.2655C14.7765 17.639 14.4738 17.9417 14.1004 17.9417C13.7269 17.9417 13.4242 17.639 13.4242 17.2655V15.406H11.5647C11.1913 15.406 10.8886 15.1033 10.8886 14.7299C10.8886 14.3563 11.1913 14.0536 11.5647 14.0536H13.4242V12.1942C13.4242 11.8208 13.7269 11.518 14.1004 11.518C14.4738 11.518 14.7765 11.8208 14.7765 12.1942V14.0536H16.636C17.0095 14.0536 17.3123 14.3563 17.3123 14.7299Z" fill="white"/>
</g>
<defs>
<clipPath id="clip0_1800_2889">
<rect width="17.3123" height="17.3123" fill="white" transform="translate(0 0.597748)"/>
</clipPath>
</defs>
</svg>
