<svg width="29" height="29" viewBox="0 0 29 29" fill="none" xmlns="http://www.w3.org/2000/svg">
<path d="M14.1188 15.3C11.0553 15.3 8.65781 12.9 8.65781 9.83337C8.65781 6.7667 11.0553 4.3667 14.1188 4.3667C17.1823 4.3667 19.5799 6.7667 19.5799 9.83337C19.5799 12.9 17.1823 15.3 14.1188 15.3ZM14.1188 5.9667C11.9877 5.9667 10.2562 7.70003 10.2562 9.83337C10.2562 11.9667 11.9877 13.7 14.1188 13.7C16.25 13.7 17.9815 11.9667 17.9815 9.83337C17.9815 7.70003 16.25 5.9667 14.1188 5.9667Z" fill="#00AB4E"/>
<path d="M23.4425 28.6333H4.79506C4.12908 28.6333 3.32991 28.5 2.66393 28.1C2.39754 27.9667 2.13114 27.5666 2.26434 27.1666C3.4631 21.5667 8.39134 17.5667 14.1188 17.5667C19.8462 17.5667 24.7744 21.5667 25.9732 27.1666C26.1064 27.5666 25.84 27.8333 25.5736 28.1C24.9076 28.5 24.1084 28.6333 23.4425 28.6333ZM3.99588 26.9C4.26228 26.9 4.52867 27.0333 4.79506 27.0333H23.4425C23.7088 27.0333 23.9752 27.0333 24.2416 26.9C22.9097 22.5 18.7806 19.3 14.1188 19.3C9.45691 19.3 5.32784 22.5 3.99588 26.9Z" fill="#00AB4E"/>
<path d="M23.4424 28.6334H4.79504C2.13113 28.6334 0 26.5 0 23.8334V5.1667C0 2.50003 2.13113 0.366699 4.79504 0.366699H23.4424C26.1064 0.366699 28.2375 2.50003 28.2375 5.1667V23.8334C28.2375 26.5 26.1064 28.6334 23.4424 28.6334ZM4.79504 1.9667C3.0635 1.9667 1.59835 3.43337 1.59835 5.1667V23.8334C1.59835 25.5667 3.0635 27.0334 4.79504 27.0334H23.4424C25.174 27.0334 26.6391 25.5667 26.6391 23.8334V5.1667C26.6391 3.43337 25.174 1.9667 23.4424 1.9667H4.79504Z" fill="#00AB4E"/>
</svg>
