<svg width="24" height="24" viewBox="0 0 24 24" fill="none" xmlns="http://www.w3.org/2000/svg">
<g clip-path="url(#clip0_1800_2983)">
<path d="M9.96236 19.5395C9.65994 19.2371 9.16979 19.2371 8.86737 19.5395L6.83902 21.5679C6.5366 21.8698 6.5366 22.3604 6.83902 22.6624C7.1393 22.9636 7.63004 22.9663 7.934 22.6624L9.96236 20.634C10.2648 20.3316 10.2648 19.8414 9.96236 19.5395ZM4.46034 14.0374C4.15841 13.735 3.66825 13.735 3.36584 14.0374L1.33748 16.0658C1.03506 16.3682 1.03506 16.8584 1.33748 17.1608C1.63941 17.4627 2.12879 17.464 2.43198 17.1608L4.46034 15.1324C4.76275 14.8301 4.76275 14.3399 4.46034 14.0374ZM8.12851 15.8713C7.8261 15.5689 7.33594 15.5694 7.03353 15.8713L1.89296 21.0119C1.59054 21.3143 1.59054 21.8045 1.89296 22.1069C2.19527 22.4083 2.68446 22.4094 2.98794 22.1069L8.12851 16.9663C8.43093 16.6639 8.43093 16.1738 8.12851 15.8713ZM23.9605 1.01575L16.6242 23.467C16.4168 24.1008 15.5556 24.1932 15.2191 23.6156L10.2856 15.131C10.1298 14.8635 10.1486 14.5291 10.333 14.2804L12.1044 11.8954L9.71946 13.6669C9.47075 13.8512 9.1364 13.8701 8.86883 13.7143L0.384268 8.78075C-0.191337 8.44596 -0.10279 7.58362 0.532814 7.37561L22.9841 0.0392616C23.5842 -0.156558 24.1572 0.413143 23.9605 1.01575Z" fill="white"/>
</g>
<defs>
<clipPath id="clip0_1800_2983">
<rect width="24" height="24" fill="white"/>
</clipPath>
</defs>
</svg>
