<svg width="157" height="86" viewBox="0 0 157 86" fill="none" xmlns="http://www.w3.org/2000/svg">
<g clip-path="url(#clip0_2188_2651)">
<path d="M156.86 0H0V85.8534H156.86V0Z" fill="white"/>
<path d="M152.951 3.92943H3.90625V81.924H152.951V3.92943Z" fill="#00AB4E"/>
<path d="M27.8601 13.1654C27.5444 13.4058 26.0309 13.5245 23.3195 13.5245V12.5154H26.258C26.5442 12.5154 26.7507 12.4828 26.8805 12.4145C27.0723 12.3166 27.1697 12.186 27.1697 12.0228C27.1697 11.8506 27.1608 11.7319 27.1461 11.6696C27.1402 11.6132 27.1254 11.5657 27.0989 11.5301C27.0841 11.4885 27.0635 11.4529 27.0369 11.4292C26.9012 11.2927 26.5206 11.2274 25.8922 11.2274H25.6296L25.249 11.2363C24.6619 11.2363 24.2341 11.1829 23.9656 11.079C23.3785 10.8505 23.0864 10.3964 23.0864 9.71675C23.0864 9.03712 23.2664 8.55633 23.6293 8.26845C23.9509 8.02212 24.4229 7.90044 25.0454 7.90044H28.1315V8.9095H25.2313C24.951 8.9095 24.7268 8.96292 24.5616 9.07273C24.3964 9.19441 24.3138 9.36655 24.3138 9.59804C24.3138 9.82656 24.3846 9.99573 24.5232 10.1055C24.6678 10.2035 25.3641 10.2539 26.6062 10.2539L27.0487 10.2628L27.2346 10.2866L27.3969 10.3192C27.5208 10.3459 27.6417 10.3934 27.7538 10.4587L27.8866 10.5596L28.0577 10.6991C28.1816 10.8089 28.2701 10.9751 28.3233 11.2007C28.3734 11.4144 28.4 11.723 28.4 12.1237C28.4059 12.5481 28.2229 12.8953 27.8601 13.1654Z" fill="#FBF4A0"/>
<path d="M31.0023 13.5245C30.3532 13.5245 29.8458 13.3464 29.477 12.9932C29.1141 12.643 28.9312 12.1296 28.9312 11.4529C28.9312 10.7852 29.1082 10.2747 29.4593 9.91857C29.8103 9.5743 30.8518 9.40217 32.5778 9.40217V10.2539H31.1468C30.8164 10.2539 30.5745 10.2985 30.424 10.3875C30.2322 10.5032 30.1349 10.7199 30.1349 11.0374H32.5778V11.907H30.1349C30.1349 12.2186 30.2293 12.4353 30.4152 12.557C30.5509 12.6341 31.2708 12.6727 32.5778 12.6727V13.5245H31.0023Z" fill="#FBF4A0"/>
<path d="M35.9321 13.5245V11.0523C35.9321 10.7614 35.8879 10.5626 35.7994 10.4587C35.7168 10.3637 35.2329 10.3192 34.3537 10.3192V13.5275H33.2798V9.40217H35.3096C35.8938 9.40217 36.3157 9.50604 36.5694 9.71676C36.8762 9.95122 37.0296 11.2214 37.0296 13.5275H35.9321V13.5245Z" fill="#FBF4A0"/>
<path d="M39.6586 13.5245H39.3399C39.2927 13.5156 39.2573 13.5097 39.2308 13.5097C39.2042 13.5038 39.1806 13.4978 39.16 13.4949C39.0301 13.4741 38.9033 13.4355 38.7794 13.3791L38.5463 13.2604L38.4135 13.1743C38.1745 12.9755 37.9887 12.7351 37.853 12.4472C37.7173 12.1504 37.6523 11.8596 37.6523 11.5776C37.6523 11.2957 37.6759 11.0256 37.7232 10.7704C37.7704 10.5241 37.8677 10.3133 38.0182 10.1382C38.2365 9.85629 38.4873 9.65745 38.7735 9.54467C38.8059 9.5328 38.8413 9.52093 38.8826 9.50609C38.9239 9.49718 38.9593 9.48531 38.9918 9.47344L39.2013 9.42595C39.2485 9.42002 39.3134 9.41408 39.396 9.40221C39.4314 9.39628 39.5199 9.39331 39.6615 9.39331L40.6558 9.40221V7.90049H41.7444V13.5245H39.6586ZM40.6528 10.3015L40.5525 10.2926H40.3961H40.0923L39.8267 10.3015L39.5701 10.3104C39.4815 10.3104 39.396 10.3371 39.3134 10.3875C39.2603 10.4202 39.1954 10.4647 39.1128 10.527C38.9888 10.6368 38.9062 10.7823 38.8649 10.9663C38.8177 11.1532 38.7941 11.4085 38.7941 11.732C38.7941 12.0465 38.8974 12.284 39.1039 12.4442C39.3016 12.5808 39.6084 12.6461 40.0215 12.6461H40.3342L40.6528 12.6371V10.3015Z" fill="#FBF4A0"/>
<path d="M48.6391 13.5245L46.2435 9.27756L46.2907 13.5245H45.084V7.90049H46.5768L48.8545 11.9516L48.8073 7.90049H49.9904V13.5245H48.6391Z" fill="#FBF4A0"/>
<path d="M54.4925 13.0081C54.0883 13.4087 53.5661 13.6106 52.9229 13.6106C52.2798 13.6106 51.7576 13.4117 51.3534 13.017C50.9492 12.6252 50.7456 12.1059 50.7456 11.4589C50.7456 10.8178 50.9492 10.3014 51.3534 9.90967C51.5658 9.71083 51.7989 9.56244 52.0526 9.4645C52.3004 9.36656 52.5925 9.31611 52.9229 9.31611C53.575 9.31611 54.1001 9.51199 54.4925 9.90374C54.8908 10.3044 55.0914 10.8238 55.0914 11.4589C55.0914 12.091 54.8938 12.6074 54.4925 13.0081ZM53.7077 10.5923C53.5366 10.3459 53.277 10.2243 52.9288 10.2243C52.5984 10.2243 52.3299 10.3489 52.1264 10.6012C51.9552 10.8267 51.8697 11.1176 51.8697 11.4767C51.8697 11.815 51.9611 12.1088 52.1411 12.3522C52.324 12.5985 52.5778 12.7202 52.9111 12.7202C53.2327 12.7202 53.4953 12.5956 53.6959 12.3433C53.873 12.1177 53.9585 11.8269 53.9585 11.4678C53.9644 11.1235 53.8789 10.8327 53.7077 10.5923Z" fill="#FBF4A0"/>
<path d="M60.7858 13.5245H59.5555L58.6616 10.7169L57.7912 13.5245H56.6082L55.1772 9.40217H56.3043L57.1982 12.2899L58.0922 9.40217H59.2516L60.1603 12.2899L61.0543 9.40217H62.1813L60.7858 13.5245Z" fill="#FBF4A0"/>
<path d="M96.4463 75.7657L95.2131 73.5755H93.8412V75.7657H92.6699V70.1625H95.5435H95.8297L96.048 70.2011L96.2103 70.2248C96.2634 70.2248 96.2959 70.2278 96.3106 70.2337C96.3372 70.2396 96.3991 70.2545 96.4965 70.2812C96.821 70.3584 97.0748 70.5602 97.2547 70.8807C97.414 71.1656 97.4937 71.501 97.4937 71.8868C97.4937 72.2726 97.4022 72.5991 97.2223 72.8691C97.0512 73.1333 96.7709 73.3173 96.3785 73.4212L97.7504 75.7657H96.4463ZM96.1366 71.3555C95.992 71.2309 95.7058 71.1686 95.278 71.1686H93.8441V72.5872H95.278C95.7029 72.5872 95.9831 72.5249 96.1218 72.4002C96.2575 72.2696 96.3224 72.0945 96.3224 71.872C96.3224 71.6345 96.2605 71.4654 96.1366 71.3555Z" fill="#FBF4A0"/>
<path d="M100.193 75.7658C99.547 75.7658 99.0425 75.5877 98.6737 75.2345C98.3108 74.8873 98.1309 74.3738 98.1309 73.7001C98.1309 73.0354 98.3079 72.5249 98.659 72.1717C99.0101 71.8274 100.046 71.6583 101.766 71.6583V72.5071H100.341C100.01 72.5071 99.7712 72.5516 99.6208 72.6406C99.429 72.7564 99.3346 72.9701 99.3346 73.2876H101.766V74.1513H99.3346C99.3346 74.4629 99.4261 74.6795 99.6119 74.7982C99.7476 74.8754 100.465 74.914 101.766 74.914V75.7628H100.193V75.7658Z" fill="#FBF4A0"/>
<path d="M104.371 75.7658L103.928 75.742C103.867 75.742 103.81 75.7361 103.757 75.7272L103.518 75.6649C103.114 75.5551 102.793 75.3087 102.551 74.9259C102.329 74.5727 102.217 74.1839 102.217 73.7566C102.217 73.3262 102.321 72.9196 102.527 72.5427C102.728 72.1628 102.996 71.9195 103.333 71.8097C103.672 71.7117 104.501 71.6613 105.82 71.6613V72.5576H104.69C104.2 72.5576 103.864 72.6258 103.684 72.7594C103.465 72.9196 103.359 73.2431 103.359 73.7239C103.359 74.175 103.471 74.4866 103.692 74.6588C103.887 74.8101 104.598 74.8843 105.823 74.8843V75.7658H104.371Z" fill="#FBF4A0"/>
<path d="M108.36 75.7658C107.714 75.7658 107.209 75.5877 106.84 75.2345C106.477 74.8873 106.297 74.3738 106.297 73.7001C106.297 73.0354 106.474 72.5249 106.825 72.1717C107.177 71.8274 108.212 71.6583 109.932 71.6583V72.5071H108.507C108.177 72.5071 107.938 72.5516 107.787 72.6406C107.596 72.7564 107.501 72.9701 107.501 73.2876H109.932V74.1513H107.501C107.501 74.4629 107.593 74.6795 107.778 74.7982C107.914 74.8754 108.631 74.914 109.932 74.914V75.7628H108.36V75.7658Z" fill="#FBF4A0"/>
<path d="M110.628 71.1834V70.1625H111.744V71.1834H110.628ZM110.628 75.7657V71.6583H111.744V75.7657H110.628Z" fill="#FBF4A0"/>
<path d="M115.107 75.7658H113.962L112.236 71.6583H113.428L114.567 74.5816L115.762 71.6583H116.924L115.107 75.7658Z" fill="#FBF4A0"/>
<path d="M119.22 75.7658C118.574 75.7658 118.069 75.5877 117.701 75.2345C117.338 74.8873 117.158 74.3738 117.158 73.7001C117.158 73.0354 117.335 72.5249 117.686 72.1717C118.037 71.8274 119.072 71.6583 120.793 71.6583V72.5071H119.368C119.037 72.5071 118.798 72.5516 118.648 72.6406C118.456 72.7564 118.361 72.9701 118.361 73.2876H120.793V74.1513H118.361C118.361 74.4629 118.453 74.6795 118.639 74.7982C118.774 74.8754 119.491 74.914 120.793 74.914V75.7628H119.22V75.7658Z" fill="#FBF4A0"/>
<path d="M127.425 75.7657L125.038 71.5336L125.085 75.7657H123.884V70.1625H125.371L127.64 74.1987L127.593 70.1625H128.77V75.7657H127.425Z" fill="#FBF4A0"/>
<path d="M133.258 75.2524C132.853 75.653 132.334 75.8519 131.694 75.8519C131.054 75.8519 130.531 75.656 130.13 75.2583C129.726 74.8695 129.525 74.3531 129.525 73.7091C129.525 73.071 129.726 72.5546 130.13 72.1658C130.343 71.967 130.573 71.8215 130.826 71.7206C131.074 71.6227 131.363 71.5722 131.694 71.5722C132.346 71.5722 132.865 71.7681 133.258 72.1569C133.656 72.5576 133.854 73.074 133.854 73.7091C133.854 74.3383 133.656 74.8517 133.258 75.2524ZM132.476 72.8425C132.305 72.5991 132.048 72.4745 131.7 72.4745C131.369 72.4745 131.104 72.5991 130.9 72.8484C130.729 73.071 130.644 73.3618 130.644 73.7209C130.644 74.0593 130.735 74.3501 130.915 74.5935C131.095 74.8369 131.352 74.9585 131.682 74.9585C132.001 74.9585 132.263 74.8339 132.464 74.5846C132.638 74.362 132.726 74.0712 132.726 73.712C132.729 73.3737 132.647 73.0829 132.476 72.8425Z" fill="#FBF4A0"/>
<path d="M139.527 75.7658H138.302L137.411 72.9671L136.544 75.7658H135.367L133.942 71.6583H135.066L135.957 74.5341L136.848 71.6583H138.002L138.907 74.5341L139.798 71.6583H140.922L139.527 75.7658Z" fill="#FBF4A0"/>
<path d="M27.6653 53.4893C19.8175 51.4682 14.3357 44.3514 14.3357 36.1898C14.3357 26.3426 22.2987 18.3324 32.0849 18.3324C41.8711 18.3324 49.84 26.3426 49.84 36.1898C49.84 36.3056 49.837 36.4183 49.8341 36.5341L50.7811 36.5519C50.7841 36.4332 50.7841 36.3115 50.7841 36.1898C50.7841 25.8173 42.3963 17.3797 32.0849 17.3797C21.7735 17.3797 13.3857 25.8202 13.3857 36.1898C13.3857 44.7876 19.1595 52.2814 27.4263 54.4123L27.6653 53.4893Z" fill="white"/>
<path d="M38.257 18.7568C38.1803 18.92 30.2882 35.0383 14.6219 30.551L14.3623 31.468C22.9625 33.9313 29.2438 30.4471 32.9966 27.0905C37.0415 23.4727 39.03 19.3444 39.1126 19.1693L38.257 18.7568Z" fill="white"/>
<path d="M48.5596 27.9601L15.4688 44.298L15.8906 45.1557L48.9756 28.8118L48.5596 27.9601Z" fill="white"/>
<path d="M23.6733 19.6471L35.8877 45.0547L36.7403 44.6422L24.526 19.2316L23.6733 19.6471Z" fill="white"/>
<path d="M43.3078 39.9708C43.5084 33.0113 40.3368 27.2923 34.1293 23.4341C29.4825 20.5375 24.8476 19.7184 24.6529 19.6828L24.3283 19.6293L24.1631 19.9142C24.0569 20.0953 21.558 24.4461 20.841 30.1147C20.1743 35.3885 21.0181 42.7933 28.8158 48.1086L29.3468 47.3162C15.1853 37.6678 24.5762 21.0954 24.9833 20.395L24.4935 20.6265C24.6765 20.6562 42.818 23.9742 42.3607 39.9441L43.3078 39.9708Z" fill="white"/>
<path d="M33.5013 69.6699C33.5013 69.6699 25.2492 57.0715 41.4052 49.8329C56.6554 43.0039 54.425 34.3023 54.425 34.3023C54.425 34.3023 62.2375 45.7165 50.4243 52.5485C38.6171 59.3775 34.3362 61.9061 33.5013 69.6699Z" fill="white"/>
<path d="M28.1081 61.6894C28.1081 61.6894 19.1597 48.5657 36.1949 40.6505C51.7225 34.2488 49.9995 24.5975 49.9995 24.5975C49.9995 24.5975 59.7828 37.46 42.128 45.9658C26.8158 53.3379 28.1081 61.6894 28.1081 61.6894Z" fill="#D92429"/>
<path d="M28.108 62.5026C27.8484 62.5026 27.5976 62.378 27.4442 62.1495C27.2908 61.9269 23.7239 56.5967 25.3937 50.4978C26.5827 46.1469 30.1025 42.5855 35.8585 39.9115C50.5571 33.8512 49.2648 25.105 49.2029 24.737C49.1409 24.369 49.3386 24.0039 49.6779 23.8556C50.0172 23.7072 50.4155 23.8051 50.6426 24.1049C50.8078 24.3215 54.6433 29.4558 53.1858 35.5725C52.1178 40.0451 48.5154 43.7905 42.482 46.6989C27.993 53.6763 28.9017 61.4936 28.9105 61.5737C28.9636 61.9477 28.7542 62.3097 28.4031 62.4463C28.3057 62.4819 28.2054 62.5026 28.108 62.5026ZM50.6869 27.4644C50.0349 31.014 47.2439 36.9763 36.5017 41.4043C31.2383 43.8528 28.0136 47.0581 26.9545 50.9133C26.1077 53.9968 26.8246 56.9261 27.5947 58.873C28.4562 55.6143 31.5009 50.1832 41.7799 45.2328C47.3501 42.5499 50.6544 39.1785 51.6074 35.2105C52.3361 32.1803 51.5307 29.3549 50.6869 27.4644Z" fill="white"/>
<path d="M28.1081 61.6894C28.1081 61.6894 19.1597 48.5657 36.1949 40.6505C51.7225 34.2488 49.9995 24.5975 49.9995 24.5975C49.9995 24.5975 59.7828 37.46 42.128 45.9658C26.8158 53.3379 28.1081 61.6894 28.1081 61.6894Z" fill="#D92429"/>
<path fill-rule="evenodd" clip-rule="evenodd" d="M41.4078 40.0421C41.4078 40.0421 37.7405 39.5257 38.1801 43.0248L41.6025 41.0156L41.5848 41.6952L38.3217 43.5293C38.3217 43.5293 38.5401 43.9745 38.6197 44.0784L41.7412 42.2146L41.6999 42.9061L39.0239 44.4612C39.0239 44.4612 39.3308 44.8084 39.8913 44.9598C40.8679 45.2269 42.4581 45.0815 43.1721 43.0307L43.5468 43.6688C43.5468 43.6688 42.5938 45.8412 40.3929 45.7047C40.3929 45.7047 39.2157 45.675 38.487 44.7461L37.5547 45.3426L37.596 44.6066L38.0857 44.2653L37.7789 43.8291L37 44.3544L37.0177 43.6361L37.6078 43.3008C37.6078 43.3008 37.0236 41.0927 38.7997 39.9946C39.0918 39.8047 39.9149 39.2081 41.4491 39.5346L41.4078 40.0421Z" fill="white"/>
<path fill-rule="evenodd" clip-rule="evenodd" d="M45.1194 48.5835C45.1194 48.5835 44.1635 48.4885 43.3079 49.5629C42.4523 50.6372 42.9775 52.0677 44.963 51.8155C46.9279 51.4623 47.0076 52.4001 46.9102 53.0679C46.8129 53.7357 45.6888 54.1066 45.0427 54.0295L45.0633 54.6379C45.0633 54.6379 46.4647 54.8516 47.4177 53.5012C48.3707 52.1538 46.8335 51.0142 45.9366 51.0527C45.0427 51.0913 43.4849 51.4653 43.656 50.4087C43.8331 49.3492 45.2138 49.1147 45.2138 49.1147L45.1194 48.5835Z" fill="#00A44E"/>
<path fill-rule="evenodd" clip-rule="evenodd" d="M43.0747 49.1296L46.5325 54.7626L46.8393 54.5815L43.4228 48.9278L43.0747 49.1296Z" fill="#00A44E"/>
<path fill-rule="evenodd" clip-rule="evenodd" d="M43.5884 48.8328L47.0462 54.4658L47.35 54.2818L43.9336 48.6281L43.5884 48.8328Z" fill="#00A44E"/>
<path d="M82.5709 47.3488L70.3831 25.7341L70.6191 47.3488H64.4854V18.7271H72.0824L83.6772 39.3476L83.4412 18.7271H89.4569V47.3488H82.5709Z" fill="white"/>
<path d="M108.115 47.3489L105.583 47.2302L104.671 47.1916C104.459 47.1916 104.208 47.153 103.919 47.0729C103.733 47.0194 103.627 46.9809 103.603 46.9541C103.444 46.9274 103.326 46.9007 103.246 46.874C100.423 46.1588 98.2604 44.473 96.7557 41.8198C96.1214 40.7573 95.6464 39.591 95.3307 38.3178C94.9885 37.1247 94.8174 35.8366 94.8174 34.4566C94.8174 31.8301 95.0269 29.6131 95.4517 27.8087C95.8736 25.9508 96.5846 24.3452 97.5877 22.9919C98.7472 21.4278 100.199 20.3386 101.939 19.7273C102.65 19.4631 103.668 19.2109 104.987 18.9705C106.147 18.8102 110.54 18.733 118.163 18.733V23.7101H108.351C103.866 23.7101 101.624 25.9389 101.624 30.3966V35.3737C101.624 36.5163 101.715 37.469 101.901 38.2406C101.981 38.665 102.099 39.0627 102.258 39.4337C102.391 39.7245 102.615 40.0569 102.931 40.4279L103.999 41.4637C104.341 41.7278 104.763 41.9415 105.264 42.1017C105.793 42.262 106.279 42.3392 106.728 42.3392L118.163 42.3777V47.3548H108.115V47.3489Z" fill="white"/>
<path d="M133.42 47.3489L130.888 47.2302L129.977 47.1916C129.764 47.1916 129.513 47.153 129.224 47.0729C129.038 47.0194 128.932 46.9809 128.909 46.9541C128.749 46.9274 128.631 46.9007 128.552 46.874C125.728 46.1588 123.566 44.473 122.061 41.8198C120.769 39.5375 120.123 37.095 120.123 34.4952C120.123 31.842 120.332 29.6131 120.757 27.8087C121.179 25.9508 121.89 24.3452 122.893 22.9919C124.052 21.4278 125.504 20.3386 127.245 19.7273C128.274 19.383 129.289 19.1307 130.292 18.9705C131.402 18.8102 135.792 18.733 143.468 18.733V23.63H133.656C131.756 23.63 130.239 24.1612 129.106 25.2207C128.209 26.1229 127.575 27.3576 127.206 28.9216C126.838 30.5391 126.652 32.2248 126.652 33.9758C126.652 35.8604 126.888 37.4779 127.363 38.8312C128.047 40.6089 129.156 41.71 130.688 42.1344L131.322 42.2946L132.033 42.3332L143.468 42.3718V47.3489H133.42Z" fill="white"/>
<path d="M92.245 30.1383L91.4189 32.198H114.175L115.001 30.1383H92.245Z" fill="white"/>
<path d="M91.0825 35.9405H112.101L112.927 33.8779H91.9086L91.0825 35.9405Z" fill="white"/>
<path d="M131.838 65.4496V58.3565L125.492 48.8624H131.431L134.408 53.5041L137.4 48.8624H143.471L137.028 58.3595V65.4496H131.838Z" fill="white"/>
<path d="M137.978 49.9338L134.405 55.4777L130.85 49.9338H127.496L132.907 58.0301V64.3782H135.963V58.0301L141.454 49.9338H137.978Z" fill="#D92429"/>
<path d="M122.982 65.4496C122.982 65.4496 121.194 65.3695 121.191 65.3695C121.034 65.3695 120.822 65.3368 120.586 65.2715C120.527 65.2537 120.456 65.233 120.379 65.2063C120.326 65.1944 120.279 65.1825 120.238 65.1706C118.538 64.7314 117.223 63.7045 116.323 62.1167C115.963 61.5143 115.68 60.8228 115.497 60.0778C115.308 59.419 115.205 58.6622 115.205 57.8698C115.205 56.469 115.323 55.2551 115.553 54.2698C115.795 53.1984 116.219 52.2457 116.813 51.4444C117.526 50.4828 118.435 49.8032 119.512 49.4263C119.913 49.2749 120.477 49.1355 121.211 49.0019C121.515 48.9603 122.1 48.9099 124.194 48.8832L124.77 48.8773L127.873 53.5189H123.097C121.846 53.5189 121.167 53.878 120.902 54.7476H128.696L130.871 58.0004V59.4012L129.806 59.4071H120.854C120.863 59.4487 120.872 59.4902 120.881 59.5288C120.919 59.7187 120.955 59.8434 121.005 59.9591C121.005 59.9591 121.04 60.0244 121.144 60.1491L121.589 60.5794C121.66 60.6239 121.751 60.6684 121.863 60.7011C122.014 60.7456 122.159 60.7723 122.282 60.7723L124.469 60.7812L130.874 60.7931V65.4496H122.982Z" fill="white"/>
<path d="M124.466 55.8191H119.707C119.707 53.5694 120.837 52.4446 123.102 52.4446H124.466H125.876L124.466 50.3345L124.212 49.9517C122.692 49.9724 121.757 50.0051 121.406 50.0526C120.739 50.1742 120.229 50.3019 119.869 50.4354C118.99 50.7441 118.258 51.2931 117.671 52.0826C117.163 52.7652 116.806 53.5754 116.591 54.5132C116.379 55.4243 116.272 56.5432 116.272 57.8669C116.272 58.5643 116.358 59.2143 116.532 59.8167C116.691 60.4607 116.93 61.0484 117.252 61.5855C118.01 62.924 119.102 63.7758 120.527 64.1379C120.568 64.1527 120.627 64.1646 120.707 64.1794C120.719 64.1943 120.775 64.2121 120.866 64.2388C121.014 64.2803 121.138 64.2981 121.247 64.2981L121.707 64.3189L122.984 64.3783H124.468H129.812V61.8645L124.468 61.8556L122.285 61.8467C122.058 61.8467 121.813 61.8081 121.548 61.725C121.294 61.6449 121.081 61.5381 120.907 61.4045L120.368 60.8822C120.208 60.6952 120.093 60.526 120.028 60.3806C119.949 60.1936 119.89 59.9918 119.848 59.7781C119.754 59.3894 119.71 58.9086 119.71 58.3328H124.468H129.812V58.3269L128.136 55.822H124.466V55.8191Z" fill="#D92429"/>
<path d="M77.6232 65.4496L77.7323 60.345L76.0713 65.4496H71.3154L69.5983 60.2738L69.7458 65.4496H64.4854V48.8624H70.7577L73.6225 57.5908L76.505 48.8624H82.7538V65.4496H77.6232Z" fill="white"/>
<path d="M73.6194 61.0038L69.9846 49.9338H65.5532V64.3782H68.6481L68.3295 53.0471L72.0823 64.3782H75.2982L78.9507 53.148L78.7117 64.3782H81.6886V61.9713V52.3318V49.9338H77.2749L73.6194 61.0038Z" fill="#D92429"/>
<path d="M109.743 65.4496L105.327 57.6146L105.412 65.4496H100.172V48.8624H105.695L109.811 56.1781L109.726 48.8624H114.906V65.4496H109.743Z" fill="white"/>
<path d="M110.805 49.9338L110.923 60.339L105.073 49.9338H101.24V52.3763V62.0337V64.3782H104.335L104.214 53.4715L110.366 64.3782H113.841V49.9338H110.805Z" fill="#D92429"/>
<path d="M91.3451 49.8537C86.7131 49.8537 84.0755 52.8838 84.1434 57.3089C84.2083 61.7013 87.0848 64.4317 91.3127 64.4317C95.5405 64.4317 98.7858 62.1375 98.7858 57.2762C98.7858 52.4149 95.8414 49.8537 91.3451 49.8537ZM91.4454 61.8348C89.1471 61.8348 87.8932 59.7692 87.8932 57.4395C87.8932 55.1097 88.5364 52.5129 91.646 52.5129C94.2512 52.5129 94.9917 55.1097 94.9917 57.4068C94.9947 59.7039 93.7467 61.8348 91.4454 61.8348Z" fill="#DA2229"/>
<path d="M91.3128 65.4674C88.9761 65.4674 86.967 64.7106 85.5095 63.2801C84.0166 61.817 83.2082 59.7573 83.1728 57.3237C83.1345 54.8544 83.8544 52.7473 85.2558 51.2307C86.7132 49.6489 88.8198 48.8149 91.3511 48.8149C93.8471 48.8149 95.9419 49.5598 97.4082 50.9725C98.9482 52.4535 99.7625 54.6348 99.7625 57.2762C99.7596 62.3304 96.5231 65.4674 91.3128 65.4674ZM91.3452 50.8924C89.3508 50.8924 87.7222 51.5127 86.6395 52.6879C85.6128 53.8009 85.0876 55.3916 85.1171 57.291C85.1732 61.0542 87.5482 63.3899 91.3128 63.3899C93.2659 63.3899 97.8124 62.7934 97.8124 57.2732C97.8124 51.7204 93.7616 50.8924 91.3452 50.8924ZM91.4456 62.8735C88.8227 62.8735 86.9198 60.5883 86.9198 57.4394C86.9198 52.2487 89.8819 51.4741 91.6491 51.4741C94.3133 51.4741 95.9684 53.7474 95.9684 57.4068C95.9714 60.1253 94.4165 62.8735 91.4456 62.8735ZM91.6491 53.5545C90.3539 53.5545 88.8699 53.9967 88.8699 57.4424C88.8699 59.1133 89.6665 60.799 91.4485 60.799C93.2187 60.799 94.0241 59.042 94.0241 57.4127C94.0212 55.9703 93.7144 53.5545 91.6491 53.5545Z" fill="white"/>
<path d="M91.3451 49.8537C86.7131 49.8537 84.0755 52.8838 84.1434 57.3089C84.2083 61.7013 87.0848 64.4317 91.3127 64.4317C95.5405 64.4317 98.7858 62.1375 98.7858 57.2762C98.7858 52.4149 95.8414 49.8537 91.3451 49.8537ZM91.4454 61.8348C89.1471 61.8348 87.8932 59.7692 87.8932 57.4395C87.8932 55.1097 88.5364 52.5129 91.646 52.5129C94.2512 52.5129 94.9917 55.1097 94.9917 57.4068C94.9947 59.7039 93.7467 61.8348 91.4454 61.8348Z" fill="#DA2229"/>
</g>
<defs>
<clipPath id="clip0_2188_2651">
<rect width="156.86" height="85.8534" fill="white"/>
</clipPath>
</defs>
</svg>
