<svg width="236" height="124" viewBox="0 0 236 124" fill="none" xmlns="http://www.w3.org/2000/svg">
<g clip-path="url(#clip0_183_21056)">
<path d="M26.21 10.3783C25.6383 10.8086 22.8977 11.0212 17.988 11.0212V9.21482H23.309C23.8273 9.21482 24.2012 9.15638 24.4363 9.03418C24.7835 8.85886 24.9599 8.6251 24.9599 8.3329C24.9599 8.02476 24.9438 7.81225 24.9171 7.70068C24.9064 7.59974 24.8797 7.51473 24.8316 7.45098C24.8049 7.3766 24.7675 7.31285 24.7194 7.27035C24.4737 7.02596 23.7845 6.90908 22.6466 6.90908H22.1711L21.4819 6.92502C20.4188 6.92502 19.6441 6.82939 19.158 6.64344C18.0948 6.23436 17.5659 5.42151 17.5659 4.20489C17.5659 2.98826 17.8918 2.1276 18.5489 1.61226C19.1313 1.1713 19.986 0.953476 21.1133 0.953476H26.7015V2.75981H21.4499C20.9423 2.75981 20.5363 2.85544 20.2371 3.05202C19.938 3.26984 19.7884 3.57798 19.7884 3.99237C19.7884 4.40146 19.9166 4.70428 20.1677 4.90086C20.4295 5.07618 21.6903 5.16649 23.9394 5.16649L24.7408 5.18243L25.0774 5.22494L25.3712 5.28338C25.5956 5.33119 25.8146 5.41619 26.0177 5.53308L26.2581 5.71371L26.5679 5.96341C26.7923 6.15998 26.9526 6.4575 27.0487 6.86127C27.1396 7.24378 27.1876 7.79631 27.1876 8.51353C27.193 9.27326 26.8671 9.89485 26.21 10.3783Z" fill="#00AB4E"/>
<path d="M31.8998 11.0211C30.7245 11.0211 29.8056 10.7023 29.1378 10.0701C28.4806 9.44318 28.1494 8.52407 28.1494 7.31276C28.1494 6.11739 28.47 5.2036 29.1057 4.56607C29.7415 3.94979 31.6273 3.64165 34.7527 3.64165V5.16641H32.1616C31.5632 5.16641 31.1252 5.2461 30.8527 5.40548C30.5054 5.61268 30.3291 6.00051 30.3291 6.56898H34.7527V8.12562H30.3291C30.3291 8.68346 30.5001 9.07129 30.8367 9.28911C31.0824 9.42724 32.386 9.49631 34.7527 9.49631V11.0211H31.8998Z" fill="#00AB4E"/>
<path d="M40.8268 11.0211V6.59554C40.8268 6.07489 40.7466 5.71894 40.5864 5.53299C40.4368 5.36298 39.5606 5.28329 37.9686 5.28329V11.0264H36.0239V3.64165H39.6995C40.7573 3.64165 41.5213 3.82759 41.9807 4.2048C42.5364 4.62451 42.8142 6.89837 42.8142 11.0264H40.8268V11.0211Z" fill="#00AB4E"/>
<path d="M47.5691 11.0212H46.9922C46.9067 11.0052 46.8426 10.9946 46.7945 10.9946C46.7464 10.984 46.7037 10.9733 46.6663 10.968C46.4312 10.9308 46.2015 10.8618 45.9771 10.7608L45.555 10.5483L45.3146 10.3943C44.8819 10.0383 44.5453 9.60796 44.2996 9.09262C44.0538 8.56135 43.9363 8.0407 43.9363 7.53599C43.9363 7.03127 43.979 6.54781 44.0645 6.09092C44.15 5.64996 44.3263 5.27275 44.5987 4.9593C44.9941 4.45459 45.4482 4.09863 45.9664 3.89675C46.0252 3.87549 46.0893 3.85424 46.1641 3.82768C46.2389 3.81174 46.303 3.79049 46.3617 3.76924L46.7411 3.68423C46.8265 3.67361 46.9441 3.66298 47.0937 3.64173C47.1578 3.63111 47.318 3.62579 47.5745 3.62579L49.3749 3.64173V0.953476H51.3462V11.0212H47.5691ZM49.3695 5.2515L49.1879 5.23556H48.9047H48.3545L47.8737 5.2515L47.4089 5.26744C47.2486 5.26744 47.0937 5.31525 46.9441 5.40557C46.8479 5.46401 46.7304 5.5437 46.5808 5.65527C46.3564 5.85184 46.2068 6.11217 46.132 6.44156C46.0465 6.77626 46.0038 7.23316 46.0038 7.81225C46.0038 8.3754 46.1908 8.80042 46.5648 9.08731C46.9227 9.3317 47.4783 9.44858 48.2263 9.44858H48.7926L49.3695 9.43264V5.2515Z" fill="#00AB4E"/>
<path d="M63.8314 11.0212L59.4934 3.4186L59.5789 11.0212H57.3938V0.953476H60.0971L64.2214 8.20539L64.1413 0.953476H66.2836V11.0212H63.8314Z" fill="#00AB4E"/>
<path d="M74.436 10.0967C73.7041 10.814 72.7585 11.1752 71.5938 11.1752C70.4292 11.1752 69.4836 10.8193 68.7517 10.1127C68.0198 9.41139 67.6511 8.48166 67.6511 7.32348C67.6511 6.17592 68.0198 5.2515 68.7517 4.55022C69.1363 4.19426 69.5584 3.92862 70.0178 3.7533C70.4666 3.57798 70.9955 3.48766 71.5938 3.48766C72.7745 3.48766 73.7255 3.83831 74.436 4.53959C75.1572 5.25681 75.5205 6.18655 75.5205 7.32348C75.5205 8.45509 75.1572 9.37951 74.436 10.0967ZM73.0149 5.77215C72.7051 5.33119 72.2349 5.11337 71.6045 5.11337C71.0062 5.11337 70.52 5.3365 70.1514 5.78809C69.8415 6.19186 69.6866 6.71251 69.6866 7.35535C69.6866 7.96101 69.8522 8.48697 70.1781 8.92262C70.504 9.35826 70.9688 9.5814 71.5725 9.5814C72.1548 9.5814 72.6303 9.35826 72.9936 8.90668C73.3141 8.50291 73.469 7.98226 73.469 7.33941C73.4797 6.72313 73.3248 6.20248 73.0149 5.77215Z" fill="#00AB4E"/>
<path d="M85.8315 11.0211H83.6037L81.985 5.9952L80.4089 11.0211H78.2666L75.6755 3.64165H77.7164L79.3351 8.81096L80.9539 3.64165H83.0534L84.6989 8.81096L86.3177 3.64165H88.3585L85.8315 11.0211Z" fill="#00AB4E"/>
<path d="M150.4 122.441L148.167 118.52H145.683V122.441H143.562V112.41H148.766H149.284L149.679 112.479L149.973 112.522C150.069 112.522 150.128 112.527 150.155 112.538C150.203 112.548 150.315 112.575 150.491 112.623C151.079 112.761 151.538 113.122 151.864 113.696C152.153 114.206 152.297 114.806 152.297 115.497C152.297 116.187 152.131 116.772 151.805 117.255C151.496 117.728 150.988 118.058 150.277 118.243L152.762 122.441H150.4ZM149.839 114.546C149.578 114.323 149.059 114.211 148.285 114.211H145.688V116.751H148.285C149.054 116.751 149.562 116.639 149.813 116.416C150.058 116.182 150.176 115.869 150.176 115.47C150.176 115.045 150.064 114.737 149.839 114.546Z" fill="#00AB4E"/>
<path d="M157.191 122.44C156.021 122.44 155.107 122.122 154.439 121.489C153.782 120.868 153.456 119.949 153.456 118.743C153.456 117.553 153.777 116.639 154.413 116.007C155.048 115.39 156.924 115.087 160.038 115.087V116.607H157.458C156.859 116.607 156.427 116.687 156.154 116.846C155.807 117.053 155.636 117.436 155.636 118.004H160.038V119.55H155.636C155.636 120.108 155.802 120.496 156.138 120.708C156.384 120.846 157.682 120.916 160.038 120.916V122.435H157.191V122.44Z" fill="#00AB4E"/>
<path d="M164.75 122.441L163.949 122.398C163.837 122.398 163.735 122.387 163.639 122.371L163.206 122.26C162.474 122.063 161.892 121.622 161.454 120.937C161.053 120.305 160.85 119.609 160.85 118.844C160.85 118.073 161.037 117.346 161.411 116.671C161.774 115.991 162.261 115.555 162.87 115.359C163.484 115.183 164.985 115.093 167.373 115.093V116.697H165.327C164.44 116.697 163.831 116.82 163.505 117.059C163.11 117.346 162.918 117.925 162.918 118.785C162.918 119.593 163.121 120.151 163.521 120.459C163.874 120.73 165.161 120.863 167.379 120.863V122.441H164.75Z" fill="#00AB4E"/>
<path d="M171.973 122.44C170.803 122.44 169.89 122.122 169.222 121.489C168.565 120.868 168.239 119.949 168.239 118.743C168.239 117.553 168.559 116.639 169.195 116.007C169.831 115.39 171.706 115.087 174.821 115.087V116.607H172.24C171.642 116.607 171.209 116.687 170.937 116.846C170.589 117.053 170.418 117.436 170.418 118.004H174.821V119.55H170.418C170.418 120.108 170.584 120.496 170.921 120.708C171.166 120.846 172.465 120.916 174.821 120.916V122.435H171.973V122.44Z" fill="#00AB4E"/>
<path d="M176.087 114.238V112.41H178.106V114.238H176.087ZM176.087 122.44V115.088H178.106V122.44H176.087Z" fill="#00AB4E"/>
<path d="M184.196 122.44H182.124L178.993 115.087H181.151L183.213 120.321L185.377 115.087H187.482L184.196 122.44Z" fill="#00AB4E"/>
<path d="M191.644 122.44C190.474 122.44 189.56 122.122 188.892 121.489C188.235 120.868 187.909 119.949 187.909 118.743C187.909 117.553 188.23 116.639 188.866 116.007C189.501 115.39 191.377 115.087 194.491 115.087V116.607H191.911C191.313 116.607 190.88 116.687 190.607 116.846C190.26 117.053 190.089 117.436 190.089 118.004H194.491V119.55H190.089C190.089 120.108 190.255 120.496 190.591 120.708C190.837 120.846 192.135 120.916 194.491 120.916V122.435H191.644V122.44Z" fill="#00AB4E"/>
<path d="M206.501 122.44L202.179 114.864L202.265 122.44H200.09V112.41H202.783L206.891 119.635L206.806 112.41H208.937V122.44H206.501Z" fill="#00AB4E"/>
<path d="M217.063 121.516C216.331 122.233 215.391 122.589 214.232 122.589C213.072 122.589 212.127 122.238 211.4 121.526C210.668 120.83 210.305 119.906 210.305 118.753C210.305 117.611 210.668 116.687 211.4 115.991C211.785 115.635 212.201 115.374 212.661 115.194C213.11 115.018 213.633 114.928 214.232 114.928C215.412 114.928 216.353 115.279 217.063 115.975C217.784 116.692 218.142 117.616 218.142 118.753C218.142 119.879 217.779 120.804 217.063 121.516ZM215.642 117.207C215.332 116.772 214.867 116.548 214.237 116.548C213.639 116.548 213.158 116.772 212.789 117.218C212.479 117.616 212.324 118.137 212.324 118.78C212.324 119.385 212.49 119.906 212.816 120.342C213.142 120.777 213.607 120.995 214.205 120.995C214.782 120.995 215.257 120.772 215.621 120.326C215.936 119.927 216.096 119.407 216.096 118.764C216.107 118.158 215.952 117.637 215.642 117.207Z" fill="#00AB4E"/>
<path d="M228.411 122.44H226.193L224.58 117.43L223.009 122.44H220.878L218.297 115.087H220.333L221.946 120.236L223.56 115.087H225.649L227.289 120.236L228.902 115.087H230.938L228.411 122.44Z" fill="#00AB4E"/>
<path d="M25.8574 82.5626C11.6465 78.9446 1.72026 66.2047 1.72026 51.5946C1.72026 33.9668 16.1395 19.6277 33.8604 19.6277C51.5812 19.6277 66.0111 33.9668 66.0111 51.5946C66.0111 51.8018 66.0058 52.0036 66.0004 52.2108L67.7154 52.2427C67.7207 52.0302 67.7207 51.8124 67.7207 51.5946C67.7207 33.0265 52.5322 17.917 33.8604 17.917C15.1885 17.917 0 33.0265 0 51.5946C0 66.9856 10.4551 80.4003 25.4247 84.2149L25.8574 82.5626Z" fill="#00AB4E"/>
<path d="M45.0367 20.3875C44.8978 20.6797 30.6068 49.5333 2.23844 41.5004L1.76831 43.142C17.3415 47.5516 28.7156 41.3145 35.5111 35.3057C42.8356 28.8295 46.4364 21.4394 46.586 21.126L45.0367 20.3875Z" fill="#00AB4E"/>
<path d="M63.6871 36.8571L3.77173 66.1092L4.53035 67.6446L64.4458 38.3872L63.6871 36.8571Z" fill="#00AB4E"/>
<path d="M18.6292 21.9815L40.7415 67.464L42.2908 66.7256L20.1731 21.2377L18.6292 21.9815Z" fill="#00AB4E"/>
<path d="M54.183 58.363C54.5463 45.9046 48.8032 35.6669 37.5627 28.7603C29.1483 23.5751 20.75 22.1087 20.3974 22.045L19.8098 21.9494L19.5106 22.4594C19.3183 22.7835 14.7932 30.572 13.495 40.7193C12.2876 50.1601 13.8155 63.4154 27.9356 72.9306L28.8972 71.5121C3.25889 54.235 20.2639 24.5739 20.9958 23.32L20.1089 23.7344C20.4402 23.7876 53.2908 29.7272 52.4627 58.3152L54.183 58.363Z" fill="#00AB4E"/>
<path d="M36.4193 111.528C36.4193 111.528 21.4765 88.9754 50.7317 76.0176C78.3467 63.7929 74.3078 48.2159 74.3078 48.2159C74.3078 48.2159 88.4546 68.6488 67.0635 80.8787C45.6831 93.1034 37.9365 97.6299 36.4193 111.528Z" fill="#00AB4E"/>
<path d="M26.6587 97.2421C26.6587 97.2421 10.4551 73.7491 41.3023 59.5799C69.4195 48.1203 66.2996 30.8432 66.2996 30.8432C66.2996 30.8432 84.0151 53.8687 52.0459 69.0951C24.3187 82.292 26.6587 97.2421 26.6587 97.2421Z" fill="#D92429"/>
<path d="M26.6534 98.6923C26.1833 98.6923 25.7292 98.4692 25.4514 98.0601C25.1736 97.6617 18.7146 88.12 21.7384 77.2022C23.8914 69.4137 30.2649 63.0384 40.688 58.2516C67.304 47.403 64.964 31.7463 64.8518 31.0875C64.7396 30.4287 65.0976 29.7752 65.712 29.5096C66.3263 29.2439 67.0476 29.4193 67.4589 29.9559C67.7581 30.3437 74.7033 39.5348 72.0641 50.4844C70.1302 58.4907 63.607 65.1954 52.6818 70.4019C26.4451 82.8922 28.0905 96.886 28.1066 97.0294C28.2027 97.6989 27.8234 98.347 27.1877 98.5914C27.0114 98.6605 26.8297 98.6923 26.6534 98.6923ZM67.5444 35.9752C66.3637 42.3293 61.3098 53.0026 41.858 60.9292C32.3271 65.3123 26.4878 71.0501 24.5699 77.9513C23.0366 83.4713 24.3348 88.715 25.7292 92.2002C27.2892 86.3667 32.8026 76.6444 51.4156 67.7827C61.5021 62.98 67.4856 56.9447 69.2113 49.8415C70.5255 44.4172 69.0724 39.3594 67.5444 35.9752Z" fill="#00AB4E"/>
<path d="M26.6587 97.2421C26.6587 97.2421 10.4551 73.7491 41.3023 59.5799C69.4195 48.1203 66.2996 30.8432 66.2996 30.8432C66.2996 30.8432 84.0151 53.8687 52.0459 69.0951C24.3187 82.292 26.6587 97.2421 26.6587 97.2421Z" fill="#D92429"/>
<path fill-rule="evenodd" clip-rule="evenodd" d="M50.7426 58.4905C50.7426 58.4905 44.1019 57.5661 44.898 63.8298L51.0952 60.2331L51.0631 61.4497L45.1544 64.733C45.1544 64.733 45.5497 65.5299 45.694 65.7158L51.3463 62.3794L51.2715 63.6173L46.4259 66.4012C46.4259 66.4012 46.9815 67.0228 47.9966 67.2937C49.7649 67.7719 52.6445 67.5116 53.9374 63.8404L54.6159 64.9827C54.6159 64.9827 52.8902 68.8716 48.9048 68.6272C48.9048 68.6272 46.7732 68.5741 45.4536 66.9112L43.7654 67.9791L43.8402 66.6615L44.727 66.0505L44.1714 65.2696L42.761 66.2099L42.793 64.9242L43.8615 64.3239C43.8615 64.3239 42.8037 60.3712 46.0199 58.4055C46.5488 58.0655 48.0393 56.9976 50.8174 57.582L50.7426 58.4905Z" fill="white"/>
<path fill-rule="evenodd" clip-rule="evenodd" d="M57.458 73.7808C57.458 73.7808 55.727 73.6108 54.1777 75.534C52.6284 77.4573 53.5794 80.018 57.1748 79.5664C60.7329 78.9342 60.8771 80.613 60.7008 81.8084C60.5245 83.0038 58.4891 83.6679 57.3191 83.5297L57.3565 84.6189C57.3565 84.6189 59.8941 85.0014 61.6197 82.5841C63.3453 80.1721 60.5619 78.132 58.9378 78.201C57.3191 78.2701 54.4983 78.9395 54.8081 77.0482C55.1287 75.1515 57.6289 74.7318 57.6289 74.7318L57.458 73.7808Z" fill="white"/>
<path fill-rule="evenodd" clip-rule="evenodd" d="M53.761 74.7583L60.0223 84.8419L60.5726 84.5178L54.3914 74.397L53.761 74.7583Z" fill="white"/>
<path fill-rule="evenodd" clip-rule="evenodd" d="M54.6907 74.2272L60.9467 84.3108L61.5023 83.9814L55.3157 73.8606L54.6907 74.2272Z" fill="white"/>
<path d="M125.28 71.5708L103.211 32.878L103.638 71.5708H92.531V20.3346H106.288L127.284 57.2476L126.856 20.3346H137.749V71.5708H125.28Z" fill="#00AB4E"/>
<path d="M171.535 71.5708L166.951 71.3583L165.3 71.2892C164.916 71.2892 164.462 71.2201 163.938 71.0767C163.601 70.9811 163.409 70.912 163.366 70.8642C163.078 70.8164 162.864 70.7685 162.72 70.7207C157.607 69.4404 153.691 66.4227 150.967 61.6731C149.818 59.7711 148.958 57.6832 148.386 55.404C147.766 53.2683 147.457 50.9626 147.457 48.4921C147.457 43.7903 147.836 39.8217 148.605 36.5916C149.369 33.2658 150.657 30.3916 152.473 27.9689C154.573 25.1691 157.201 23.2193 160.353 22.1249C161.641 21.6521 163.484 21.2005 165.872 20.7702C167.971 20.4833 175.926 20.3451 189.731 20.3451V29.2546H171.962C163.842 29.2546 159.782 33.2445 159.782 41.2243V50.1338C159.782 52.1792 159.947 53.8846 160.284 55.2659C160.428 56.0256 160.642 56.7375 160.93 57.4016C161.171 57.9223 161.577 58.5173 162.148 59.1814L164.082 61.0356C164.702 61.5084 165.466 61.8909 166.374 62.1778C167.33 62.4647 168.212 62.6028 169.024 62.6028L189.731 62.6719V71.5814H171.535V71.5708Z" fill="#00AB4E"/>
<path d="M217.357 71.5708L212.773 71.3583L211.122 71.2892C210.738 71.2892 210.284 71.2201 209.76 71.0767C209.423 70.9811 209.231 70.912 209.188 70.8642C208.9 70.8164 208.686 70.7685 208.542 70.7207C203.429 69.4404 199.513 66.4227 196.789 61.6731C194.449 57.5876 193.279 53.2152 193.279 48.5612C193.279 43.8116 193.658 39.8217 194.427 36.5916C195.191 33.2658 196.479 30.3916 198.295 27.9689C200.395 25.1691 203.023 23.2193 206.175 22.1249C208.04 21.5086 209.878 21.057 211.694 20.7702C213.703 20.4833 221.652 20.3451 235.553 20.3451V29.1112H217.784C214.344 29.1112 211.598 30.0622 209.546 31.9588C207.922 33.5739 206.774 35.784 206.106 38.5838C205.438 41.4793 205.101 44.4969 205.101 47.6315C205.101 51.0051 205.529 53.9005 206.389 56.3232C207.628 59.5055 209.637 61.4765 212.41 62.2362L213.558 62.5231L214.846 62.5922L235.553 62.6613V71.5708H217.357Z" fill="#00AB4E"/>
<path d="M142.793 40.7569L141.297 44.4492H182.503L183.999 40.7569H142.793Z" fill="#00AB4E"/>
<path d="M140.693 51.1484H178.747L180.249 47.456H142.189L140.693 51.1484Z" fill="#00AB4E"/>
<path d="M214.494 103.973V91.2758L203.002 74.2803H213.751L219.141 82.5894L224.559 74.2803H235.559L223.886 91.2811V103.973H214.494Z" fill="white"/>
<path d="M225.611 76.1982L219.136 86.1224L212.698 76.1982H206.624L216.422 90.6914V102.055H221.957V90.6914L231.899 76.1982H225.611Z" fill="#D92429"/>
<path d="M198.455 103.973C198.455 103.973 195.218 103.83 195.213 103.83C194.929 103.83 194.545 103.771 194.117 103.654C194.011 103.622 193.882 103.585 193.743 103.537C193.647 103.516 193.562 103.495 193.487 103.474C190.41 102.687 188.027 100.849 186.398 98.0069C185.746 96.9284 185.233 95.6905 184.902 94.357C184.56 93.1776 184.373 91.8228 184.373 90.4043C184.373 87.8967 184.587 85.7238 185.003 83.96C185.441 82.042 186.211 80.3367 187.284 78.9022C188.577 77.1809 190.223 75.9642 192.173 75.2895C192.899 75.0186 193.92 74.7689 195.25 74.5298C195.8 74.4554 196.858 74.3651 200.651 74.3173L201.693 74.3067L207.313 82.6158H198.664C196.399 82.6158 195.17 83.2587 194.689 84.8153H208.804L212.741 90.6381V93.1457L210.813 93.1563H194.604C194.62 93.2307 194.636 93.3051 194.652 93.3742C194.721 93.7142 194.785 93.9373 194.876 94.1445C194.876 94.1445 194.94 94.2614 195.127 94.4845L195.934 95.2549C196.062 95.3346 196.228 95.4143 196.431 95.4727C196.703 95.5524 196.965 95.6002 197.189 95.6002L201.148 95.6161L212.746 95.6374V103.973H198.455Z" fill="white"/>
<path d="M201.143 86.7334H192.525C192.525 82.7063 194.572 80.6928 198.675 80.6928H201.143H203.697L201.143 76.9154L200.683 76.23C197.932 76.2672 196.238 76.3257 195.603 76.4107C194.395 76.6285 193.471 76.8569 192.819 77.096C191.227 77.6486 189.902 78.6314 188.839 80.0446C187.92 81.2665 187.274 82.7169 186.884 84.3958C186.499 86.0268 186.307 88.0297 186.307 90.3992C186.307 91.6477 186.462 92.8112 186.777 93.8897C187.065 95.0425 187.498 96.0945 188.081 97.0561C189.454 99.4521 191.43 100.977 194.011 101.625C194.085 101.652 194.192 101.673 194.337 101.699C194.358 101.726 194.459 101.758 194.625 101.806C194.892 101.88 195.117 101.912 195.314 101.912L196.148 101.949L198.461 102.055H201.148H210.823V97.5555L201.148 97.5395L197.195 97.5236C196.783 97.5236 196.34 97.4545 195.859 97.3058C195.4 97.1623 195.015 96.9711 194.7 96.732L193.722 95.7969C193.434 95.4622 193.225 95.1594 193.108 94.8991C192.964 94.5644 192.857 94.2031 192.782 93.8206C192.611 93.1246 192.531 92.2639 192.531 91.2333H201.148H210.823V91.2227L207.789 86.7387H201.143V86.7334Z" fill="#D92429"/>
<path d="M116.316 103.973L116.513 94.8353L113.505 103.973H104.893L101.789 94.7078L102.051 103.973H92.531V74.2803H103.884L109.077 89.9051L114.296 74.2803H125.611V103.973H116.316Z" fill="white"/>
<path d="M109.071 96.0147L102.489 76.1982H94.4597V102.055H100.064L99.487 81.7712L106.288 102.055H112.106L118.725 81.9519L118.292 102.055H123.677V97.7467V80.4909V76.1982H115.685L109.071 96.0147Z" fill="#D92429"/>
<path d="M174.484 103.973L166.481 89.9476L166.641 103.973H157.153V74.2803H167.154L174.601 87.3762L174.452 74.2803H183.833V103.973H174.484Z" fill="white"/>
<path d="M176.402 76.1982L176.621 94.8247L166.027 76.1982H159.082V80.5706V97.853V102.055H164.686L164.472 82.5256L175.606 102.055H181.899V76.1982H176.402Z" fill="#D92429"/>
<path d="M141.169 76.0494C132.781 76.0494 128.005 81.4737 128.128 89.395C128.245 97.2579 133.454 102.146 141.11 102.146C148.766 102.146 154.642 98.0389 154.642 89.3366C154.637 80.6396 149.311 76.0494 141.169 76.0494ZM141.35 97.5023C137.189 97.5023 134.918 93.8046 134.918 89.6341C134.918 85.4636 136.083 80.8149 141.714 80.8149C146.431 80.8149 147.772 85.4636 147.772 89.5757C147.777 93.6878 145.517 97.5023 141.35 97.5023Z" fill="#DA2229"/>
<path d="M141.104 104.005C136.873 104.005 133.235 102.65 130.596 100.09C127.893 97.4704 126.429 93.7834 126.365 89.4269C126.295 85.0067 127.599 81.2346 130.136 78.5198C132.776 75.6881 136.59 74.1952 141.174 74.1952C145.694 74.1952 149.487 75.5287 152.142 78.0576C154.931 80.7087 156.405 84.6135 156.405 89.3419C156.4 98.3842 150.539 104.005 141.104 104.005ZM141.169 77.9088C137.557 77.9088 134.608 79.0192 132.647 81.123C130.788 83.1153 129.837 85.963 129.891 89.3631C129.992 96.0997 134.293 100.281 141.11 100.281C144.647 100.281 152.879 99.213 152.879 89.3313C152.874 79.3964 145.539 77.9088 141.169 77.9088ZM141.35 99.3617C136.601 99.3617 133.155 95.2709 133.155 89.6341C133.155 80.3421 138.519 78.9554 141.719 78.9554C146.543 78.9554 149.54 83.025 149.54 89.5756C149.54 94.4421 146.725 99.3617 141.35 99.3617ZM141.719 82.6797C139.374 82.6797 136.686 83.4713 136.686 89.6394C136.686 92.6305 138.129 95.6481 141.356 95.6481C144.561 95.6481 146.02 92.503 146.02 89.5863C146.014 87.0043 145.453 82.6797 141.719 82.6797Z" fill="white"/>
<path d="M141.169 76.0494C132.781 76.0494 128.005 81.4737 128.128 89.395C128.245 97.2579 133.454 102.146 141.11 102.146C148.766 102.146 154.642 98.0389 154.642 89.3366C154.637 80.6396 149.311 76.0494 141.169 76.0494ZM141.35 97.5023C137.189 97.5023 134.918 93.8046 134.918 89.6341C134.918 85.4636 136.083 80.8149 141.714 80.8149C146.431 80.8149 147.772 85.4636 147.772 89.5757C147.777 93.6878 145.517 97.5023 141.35 97.5023Z" fill="#DA2229"/>
</g>
<defs>
<clipPath id="clip0_183_21056">
<rect width="235.559" height="122.32" fill="white" transform="translate(0 0.953476)"/>
</clipPath>
</defs>
</svg>
