<?xml version="1.0" encoding="UTF-8"?>
<svg version="1.1" xmlns="http://www.w3.org/2000/svg" width="512" height="512">
<path d="M0 0 C1.01790619 0.00215515 2.03581238 0.0043103 3.08456421 0.00653076 C17.69363523 0.05620146 32.02575853 0.30709809 46.375 3.3125 C47.34985352 3.51117676 48.32470703 3.70985352 49.32910156 3.91455078 C98.33696698 14.16611774 142.34114199 36.50532652 178.375 71.3125 C178.99584473 71.91143066 179.61668945 72.51036133 180.25634766 73.12744141 C188.15750259 80.79126503 195.70266955 88.53248394 202.375 97.3125 C202.79168945 97.85277832 203.20837891 98.39305664 203.63769531 98.94970703 C228.13584707 130.8187469 244.62689938 167.37064783 252.6875 206.75 C252.83485596 207.46889404 252.98221191 208.18778809 253.1340332 208.9284668 C256.10789088 224.57475609 256.74800362 240.04818046 256.6875 255.9375 C256.68534485 256.95540619 256.6831897 257.97331238 256.68096924 259.02206421 C256.63129854 273.63113523 256.38040191 287.96325853 253.375 302.3125 C253.07698486 303.77478027 253.07698486 303.77478027 252.77294922 305.26660156 C242.52138226 354.27446698 220.18217348 398.27864199 185.375 434.3125 C184.77606934 434.93334473 184.17713867 435.55418945 183.56005859 436.19384766 C175.89623497 444.09500259 168.15501606 451.64016955 159.375 458.3125 C158.83472168 458.72918945 158.29444336 459.14587891 157.73779297 459.57519531 C123.10615677 486.19699135 82.6106052 503.76676591 39.375 510.3125 C38.25689941 510.48982666 37.13879883 510.66715332 35.98681641 510.84985352 C25.22545702 512.39416151 14.5855899 512.65229671 3.72314453 512.62817383 C0.77468385 512.62502635 -2.17275697 512.64852578 -5.12109375 512.67382812 C-18.51105903 512.71844438 -31.42266733 511.51675057 -44.625 509.3125 C-45.76195312 509.12437744 -46.89890625 508.93625488 -48.0703125 508.74243164 C-50.66610846 508.27619865 -53.2376671 507.75746002 -55.8125 507.1875 C-57.20142456 506.88054199 -57.20142456 506.88054199 -58.6184082 506.56738281 C-103.68460059 496.08843734 -144.44298855 473.36491106 -177.625 441.3125 C-178.55626709 440.414104 -178.55626709 440.414104 -179.50634766 439.49755859 C-187.40750259 431.83373497 -194.95266955 424.09251606 -201.625 415.3125 C-202.04168945 414.77222168 -202.45837891 414.23194336 -202.88769531 413.67529297 C-227.38584707 381.8062531 -243.87689938 345.25435217 -251.9375 305.875 C-252.08485596 305.15610596 -252.23221191 304.43721191 -252.3840332 303.6965332 C-255.35789088 288.05024391 -255.99800362 272.57681954 -255.9375 256.6875 C-255.93534485 255.66959381 -255.9331897 254.65168762 -255.93096924 253.60293579 C-255.88129854 238.99386477 -255.63040191 224.66174147 -252.625 210.3125 C-252.42632324 209.33764648 -252.22764648 208.36279297 -252.02294922 207.35839844 C-241.77138226 158.35053302 -219.43217348 114.34635801 -184.625 78.3125 C-184.02606934 77.69165527 -183.42713867 77.07081055 -182.81005859 76.43115234 C-175.14623497 68.52999741 -167.40501606 60.98483045 -158.625 54.3125 C-158.08472168 53.89581055 -157.54444336 53.47912109 -156.98779297 53.04980469 C-125.1187531 28.55165293 -88.56685217 12.06060062 -49.1875 4 C-48.46860596 3.85264404 -47.74971191 3.70528809 -47.0090332 3.5534668 C-31.36274391 0.57960912 -15.88931954 -0.06050362 0 0 Z " fill="#48B02C" transform="translate(255.625,-0.3125)"/>
<path d="M0 0 C1.67449219 0.93972656 1.67449219 0.93972656 3.3828125 1.8984375 C36.76421479 21.60553042 60.80887254 53.28382604 70.75 90.75 C77.0918163 115.65545846 77.0918163 115.65545846 73.375 123.375 C70.23374702 126.84691118 67.40434362 128.71873048 62.65174007 129.27470863 C59.72343681 129.39061847 56.80937111 129.40447924 53.87878418 129.38768005 C52.1929791 129.39575836 52.1929791 129.39575836 50.47311735 129.40399987 C46.70527431 129.41831329 42.93778091 129.41116715 39.16992188 129.40405273 C36.46943549 129.40975448 33.76897426 129.41661724 31.0684967 129.42485046 C24.49394206 129.44203944 17.91948298 129.44287838 11.34491169 129.43763756 C6.00136987 129.43359522 0.65785627 129.43504018 -4.6856842 129.44038582 C-5.8267028 129.44150845 -5.8267028 129.44150845 -6.99077228 129.44265376 C-8.53610369 129.44418525 -10.0814351 129.44572359 -11.6267665 129.44726873 C-26.11547959 129.46099384 -40.60413866 129.45555576 -55.09285051 129.44408352 C-68.34808185 129.43414858 -81.60317366 129.44709626 -94.85838348 129.47101771 C-108.47074631 129.49539857 -122.08304413 129.50501924 -135.69542837 129.49836498 C-143.33703768 129.49487083 -150.97853964 129.49711786 -158.62013245 129.51461601 C-165.124405 129.52932525 -171.62849459 129.52999018 -178.1327635 129.5125451 C-181.45106847 129.50402244 -184.76897847 129.50407742 -188.08727837 129.51719666 C-191.68475787 129.53033562 -195.28134362 129.51892072 -198.87878418 129.50120544 C-200.4514457 129.51561295 -200.4514457 129.51561295 -202.05587816 129.53031152 C-208.02880392 129.46963956 -211.44090278 128.9629444 -216 125 C-218.99144692 121.50997859 -219.4646783 118.43097616 -219.27734375 113.875 C-217.33260876 93.71549358 -210.89766776 74.62690783 -201 57 C-200.37351562 55.88367188 -199.74703125 54.76734375 -199.1015625 53.6171875 C-179.82620426 20.96709089 -148.32949331 -3.87563536 -111.51806641 -13.65966797 C-106.37395325 -14.93137075 -101.20684736 -16.01877041 -96 -17 C-95.07695068 -17.1757959 -94.15390137 -17.3515918 -93.20288086 -17.53271484 C-61.19205699 -22.20294252 -28.04416014 -15.74704891 0 0 Z " fill="#FEFEFE" transform="translate(328,266)"/>
<path d="M0 0 C3.50409703 2.83916296 6.78198617 5.84188152 10 9 C10.94166016 9.90492187 10.94166016 9.90492187 11.90234375 10.828125 C25.29930195 24.80227641 29.66586419 43.14832886 29.3359375 61.921875 C28.47198092 80.96744015 19.58254609 97.88435393 6 111 C-9.99471545 125.04081555 -29.59571673 130.60186307 -50.6171875 129.25 C-69.42547536 127.27667144 -86.13068628 116.82472915 -98.08984375 102.49609375 C-110.59794498 85.44456844 -115.69752395 65.84280275 -112.70263672 44.92285156 C-109.24629883 26.97594498 -98.34403453 11.01098087 -84 0 C-58.47451415 -17.04726991 -25.41556432 -18.23649258 0 0 Z " fill="#FEFEFE" transform="translate(294,101)"/>
</svg>
