<svg width="84" height="151" viewBox="0 0 84 151" fill="none" xmlns="http://www.w3.org/2000/svg">
<g clip-path="url(#clip0_2224_3174)">
<path d="M17.063 61.9056C17.557 60.002 16.8341 59.1946 15.6534 59.8333C16.4245 57.8332 15.81 57.1104 15.1836 57.062C15.0994 57.062 14.3883 56.9897 14.3041 57.3513C14.1566 56.9847 13.8071 56.7392 13.4124 56.7249C12.9972 56.6481 12.5721 56.7945 12.2918 57.1104C12.2918 57.1104 12.1955 56.6407 11.4122 56.6407C10.9197 56.6377 10.462 56.8938 10.2074 57.3154C9.88924 56.7765 9.19493 56.5977 8.65623 56.9156C8.65524 56.9163 8.65401 56.9168 8.65302 56.9175C8.52409 57.0025 8.40997 57.1085 8.31562 57.2307C7.59291 58.014 7.4 59.0864 7.17104 61.1224C6.94207 63.1584 7.31553 63.6648 7.86979 65.5081L7.56845 68.0623L14.3036 68.7611L14.9302 66.4837C16.0666 65.1947 16.8069 63.6052 17.063 61.9056Z" fill="#FFA500"/>
<path d="M68.2942 58.6733C68.0309 59.0808 67.8356 59.5284 67.716 59.9987C67.716 59.9987 67.716 60.8782 67.6437 61.4928V61.9625C67.3673 62.7976 67.2329 63.6732 67.246 64.5531C67.246 65.7579 67.9326 69.7822 67.9326 69.7822L71.5472 69.8546L74.4991 70.7823C74.4991 70.7823 77.8728 64.5894 77.9449 63.5532C77.957 63.4492 77.957 63.344 77.9449 63.24C77.8417 62.5455 77.668 61.8632 77.4267 61.2038C77.4267 61.023 77.0051 59.276 76.5351 59.0351C76.0058 58.7459 75.3655 58.7459 74.8362 59.0351C74.1241 58.7101 73.3357 58.5893 72.5589 58.6856C71.8387 58.3245 70.99 58.3245 70.2697 58.6856C70.2702 58.6854 68.8727 58.1069 68.2942 58.6733Z" fill="#FFA500"/>
<path d="M67.5955 68.9386C67.5955 68.9386 61.6522 95.9377 61.5438 97.2028C60.6282 103.721 56.2906 109.806 53.1098 113.697C51.3082 114.778 49.4271 115.72 47.4832 116.517C45.7723 116.131 44.5313 115.89 44.5313 115.89L35.1575 116.191C35.1575 116.191 33.9527 116.444 32.3262 116.818C30.4829 116.348 26.4825 114.553 24.4584 113.782C24.4584 113.782 15.9278 101.95 15.9278 98.3716V98.2752C16.1205 92.4436 14.8346 67.4114 14.8346 67.4114L7.41232 66.5198C7.41232 66.5198 6.69825 99.7691 7.92731 104.251C9.65037 110.577 16.4939 122.324 16.4939 122.324C16.4939 122.324 21.3133 131.457 21.6989 135.698C22.0511 140.839 22.7435 145.951 23.7712 151H56.3025C56.7723 147.12 57.9892 137.433 58.5677 132.831C58.7371 131.189 59.1938 129.591 59.917 128.108C62.3268 123.288 67.8331 112.131 68.351 109.565C69.0619 106.372 75.4752 68.8905 75.4752 68.8905L67.5955 68.9386Z" fill="#00C8AA"/>
<path d="M38.9406 88.0221C38.9406 88.0221 27.9764 83.9738 28.663 98.5286C29.3497 113.083 31.9162 114.578 39.1212 112.541C46.3261 110.505 46.9408 101.312 47.8804 96.878C48.82 92.4439 42.5191 88.6606 38.9406 88.0221Z" fill="#FFA500"/>
<path d="M33.4104 118.469C33.4104 118.469 39.1094 123.084 44.5915 115.855C44.5065 112.025 44.9896 108.204 46.0253 104.517C47.712 99.0347 34.555 111.818 34.555 111.818C34.6526 112.282 34.6728 112.758 34.6153 113.228C34.5283 113.992 34.3875 114.749 34.1936 115.493C33.6875 117.36 33.796 117.035 33.4104 118.469Z" fill="#FFA500"/>
<path d="M45.025 108.83C45.025 108.83 42.7358 106.288 45.5069 100.396C45.3675 100.108 45.0897 99.9123 44.7718 99.8777C43.1453 99.5282 42.3621 101.769 42.3621 101.769L41.0609 101.697C41.0609 101.697 42.2658 97.7572 40.6874 96.8777C39.1091 95.9981 29.9159 96.7692 28.7592 95.4438C27.6025 94.1185 29.2774 86.2266 31.7955 85.4555C34.3137 84.6844 41.1935 83.1182 45.555 87.0099C45.555 87.0099 49.4588 87.0099 49.4588 91.7208C49.4107 97.7935 46.6635 103.781 45.025 108.83Z" fill="#00469C"/>
<path d="M42.9408 98.215C43.4227 96.9377 46.1577 97.0943 45.8806 99.1306C45.6034 101.167 43.3382 104.3 42.4347 103.709C41.5312 103.119 42.266 99.9862 42.9408 98.215Z" fill="#FFA500"/>
<path d="M47.495 116.517C47.495 116.517 42.3624 126.903 34.7957 126.059C27.2292 125.216 31.6148 117.975 32.386 116.818C32.3378 116.818 36.8801 113.902 47.495 116.517Z" fill="#FFA500"/>
</g>
<path d="M41.5605 83.121C64.5138 83.121 83.121 64.5138 83.121 41.5605C83.121 18.6073 64.5138 0 41.5605 0C18.6073 0 0 18.6073 0 41.5605C0 64.5138 18.6073 83.121 41.5605 83.121Z" fill="#FDD856"/>
<path d="M0.353271 46.8915C1.10307 52.7324 3.05005 58.2015 5.96735 63.0217L63.0217 5.96735C58.2015 3.05635 52.7324 1.10307 46.8915 0.353271L0.353271 46.8915Z" fill="#FCE492"/>
<path d="M67.5903 9.16699L9.1687 67.5886C10.8951 69.7372 12.8358 71.7157 14.9529 73.48L73.4816 14.9512C71.7174 12.8341 69.7452 10.8997 67.5903 9.16699Z" fill="#FCE492"/>
<path d="M82.5103 34.4851C81.4643 28.3921 79.0952 22.7528 75.7053 17.876L17.876 75.7053C22.7528 79.0952 28.3921 81.4643 34.4851 82.5103L82.5103 34.4851Z" fill="#FCE492"/>
<path d="M60.9208 60.9252C71.6146 50.2313 71.6146 32.8932 60.9208 22.1993C50.2269 11.5055 32.8888 11.5055 22.1949 22.1993C11.5011 32.8932 11.5011 50.2313 22.1949 60.9252C32.8888 71.619 50.2269 71.619 60.9208 60.9252Z" fill="#E58515"/>
<mask id="mask0_2224_3174" style="mask-type:luminance" maskUnits="userSpaceOnUse" x="14" y="14" width="55" height="55">
<path d="M60.9211 60.9246C71.6151 50.2307 71.6151 32.8924 60.9211 22.1984C50.2272 11.5045 32.8888 11.5045 22.1949 22.1984C11.5009 32.8924 11.5009 50.2307 22.1949 60.9246C32.8888 71.6186 50.2272 71.6186 60.9211 60.9246Z" fill="white"/>
</mask>
<g mask="url(#mask0_2224_3174)">
<path d="M0.353027 46.891C1.10283 52.7319 3.0498 58.201 5.9671 63.0212L63.0215 5.96686C58.2013 3.05586 52.7321 1.10259 46.8912 0.352783L0.353027 46.891Z" fill="#F59E25"/>
<path d="M67.5901 9.16675L9.16846 67.5884C10.8949 69.737 12.8356 71.7155 14.9526 73.4797L73.4814 14.951C71.7172 12.8339 69.745 10.8995 67.5901 9.16675Z" fill="#F59E25"/>
<path d="M82.51 34.4846C81.4641 28.3916 79.095 22.7524 75.7051 17.8755L17.8757 75.7049C22.7526 79.0947 28.3919 81.4638 34.4848 82.5098L82.51 34.4846Z" fill="#F59E25"/>
</g>
<path d="M41.5613 80.4873C20.1005 80.4873 2.63452 63.0276 2.63452 41.5605C2.63452 20.0998 20.0942 2.63379 41.5613 2.63379C63.022 2.63379 80.488 20.0935 80.488 41.5605C80.488 63.0276 63.0283 80.4873 41.5613 80.4873ZM41.5613 6.24418C22.0853 6.24418 6.23862 22.0909 6.23862 41.5669C6.23862 61.0428 22.0853 76.8895 41.5613 76.8895C61.0373 76.8895 76.8839 61.0428 76.8839 41.5669C76.8839 22.0846 61.0373 6.24418 41.5613 6.24418Z" fill="#E58515"/>
<path d="M41.5603 75.434C22.8845 75.434 7.69312 60.2426 7.69312 41.5669C7.69312 22.8911 22.8845 7.69971 41.5603 7.69971C60.236 7.69971 75.4274 22.8911 75.4274 41.5669C75.4337 60.2363 60.236 75.434 41.5603 75.434ZM41.5603 8.41801C23.2878 8.41801 8.41772 23.288 8.41772 41.5606C8.41772 59.8394 23.2878 74.7031 41.5603 74.7031C59.8328 74.7031 74.7028 59.8331 74.7028 41.5606C74.7091 23.288 59.8391 8.41801 41.5603 8.41801Z" fill="#E58515"/>
<path d="M41.5607 10.0996C41.0062 10.0996 40.5588 10.547 40.5588 11.1014C40.5588 11.6559 41.0062 12.1033 41.5607 12.1033C42.1151 12.1033 42.5625 11.6559 42.5625 11.1014C42.5625 10.547 42.1151 10.0996 41.5607 10.0996Z" fill="#E58515"/>
<path d="M62.3972 19.3174C62.0066 19.7081 62.0066 20.3381 62.3972 20.7288C62.7879 21.1195 63.418 21.1195 63.8086 20.7288C64.1993 20.3381 64.1993 19.7081 63.8086 19.3174C63.418 18.9268 62.7879 18.9268 62.3972 19.3174Z" fill="#E58515"/>
<path d="M72.0243 40.564C71.4698 40.564 71.0225 41.0113 71.0225 41.5658C71.0225 42.1203 71.4698 42.5676 72.0243 42.5676C72.5788 42.5676 73.0261 42.1203 73.0261 41.5658C73.0261 41.0113 72.5725 40.564 72.0243 40.564Z" fill="#E58515"/>
<path d="M62.3972 62.3899C62.0066 62.7806 62.0066 63.4107 62.3972 63.8013C62.7879 64.192 63.418 64.192 63.8086 63.8013C64.1993 63.4107 64.1993 62.7806 63.8086 62.3899C63.418 61.9993 62.7879 61.9993 62.3972 62.3899Z" fill="#E58515"/>
<path d="M41.5607 71.0234C41.0062 71.0234 40.5588 71.4708 40.5588 72.0253C40.5588 72.5797 41.0062 73.0271 41.5607 73.0271C42.1151 73.0271 42.5625 72.5797 42.5625 72.0253C42.5625 71.4708 42.1151 71.0234 41.5607 71.0234Z" fill="#E58515"/>
<path d="M19.3181 62.3899C18.9275 62.7806 18.9275 63.4107 19.3181 63.8013C19.7088 64.192 20.3389 64.192 20.7295 63.8013C21.1202 63.4107 21.1202 62.7806 20.7295 62.3899C20.3389 61.9993 19.7088 61.9993 19.3181 62.3899Z" fill="#E58515"/>
<path d="M11.1012 40.564C10.5467 40.564 10.0994 41.0113 10.0994 41.5658C10.0994 42.1203 10.5467 42.5676 11.1012 42.5676C11.6557 42.5676 12.103 42.1203 12.103 41.5658C12.103 41.0113 11.6557 40.564 11.1012 40.564Z" fill="#E58515"/>
<path d="M19.3181 19.3174C18.9275 19.7081 18.9275 20.3381 19.3181 20.7288C19.7088 21.1195 20.3389 21.1195 20.7295 20.7288C21.1202 20.3381 21.1202 19.7081 20.7295 19.3174C20.3389 18.9268 19.7088 18.9268 19.3181 19.3174Z" fill="#E58515"/>
<path d="M53.9038 13.6911C54.1117 13.1807 53.866 12.5948 53.3493 12.3868C52.8389 12.1789 52.253 12.4246 52.045 12.9413C51.8371 13.458 52.0828 14.0377 52.5995 14.2456C53.1162 14.4535 53.6959 14.2078 53.9038 13.6911Z" fill="#E58515"/>
<path d="M69.9894 30.577C70.4998 30.3628 70.7329 29.7768 70.5187 29.2664C70.3044 28.7561 69.7185 28.5229 69.2081 28.7372C68.6977 28.9514 68.4646 29.5374 68.6788 30.0477C68.8993 30.5581 69.4853 30.7976 69.9894 30.577Z" fill="#E58515"/>
<path d="M70.1777 52.0436C69.6673 51.8356 69.0813 52.0814 68.8734 52.598C68.6655 53.1084 68.9112 53.6944 69.4279 53.9023C69.9383 54.1103 70.5242 53.8645 70.7322 53.3479C70.9401 52.8312 70.6881 52.2515 70.1777 52.0436Z" fill="#E58515"/>
<path d="M53.0714 68.6782C52.561 68.8924 52.3279 69.4784 52.5421 69.9888C52.7563 70.4991 53.3423 70.7323 53.8527 70.518C54.3631 70.3038 54.5962 69.7178 54.382 69.2074C54.1677 68.7034 53.5817 68.4639 53.0714 68.6782Z" fill="#E58515"/>
<path d="M30.5273 68.8744C30.0169 68.6665 29.4309 68.9122 29.223 69.4289C29.0151 69.9392 29.2608 70.5252 29.7775 70.7331C30.2879 70.9411 30.8738 70.6953 31.0818 70.1787C31.2897 69.662 31.0377 69.0823 30.5273 68.8744Z" fill="#E58515"/>
<path d="M13.1302 52.5423C12.6198 52.7566 12.3867 53.3426 12.6009 53.8529C12.8152 54.3633 13.4011 54.5964 13.9115 54.3822C14.4219 54.168 14.655 53.582 14.4408 53.0716C14.2266 52.5612 13.6406 52.3281 13.1302 52.5423Z" fill="#E58515"/>
<path d="M12.9479 31.0818C13.4583 31.2897 14.0442 31.044 14.2522 30.5273C14.4601 30.0169 14.2144 29.4309 13.6977 29.223C13.1873 29.0151 12.6014 29.2608 12.3934 29.7775C12.1855 30.2879 12.4312 30.8738 12.9479 31.0818Z" fill="#E58515"/>
<path d="M30.0553 14.441C30.5657 14.2268 30.7988 13.6408 30.5846 13.1305C30.3704 12.6201 29.7844 12.387 29.274 12.6012C28.7636 12.8154 28.5305 13.4014 28.7447 13.9118C28.959 14.4221 29.5449 14.6616 30.0553 14.441Z" fill="#E58515"/>
<path d="M40.9249 57.9997V26H42.9749V57.9997H40.9249ZM46.8374 36.2374C46.7207 35.1458 46.229 34.2958 45.3624 33.6874C44.5041 33.0791 43.3874 32.7749 42.0124 32.7749C41.0458 32.7749 40.2166 32.9208 39.5249 33.2124C38.8333 33.5041 38.3041 33.8999 37.9374 34.3999C37.5708 34.8999 37.3833 35.4708 37.375 36.1124C37.375 36.6457 37.4958 37.1082 37.7375 37.4999C37.9874 37.8916 38.3249 38.2249 38.7499 38.4999C39.1749 38.7666 39.6458 38.9916 40.1624 39.1749C40.6791 39.3582 41.1999 39.5124 41.7249 39.6374L44.1249 40.2374C45.0916 40.4624 46.0207 40.7665 46.9124 41.1499C47.8124 41.5332 48.6165 42.0165 49.3249 42.5999C50.0415 43.1832 50.6082 43.8873 51.0248 44.7123C51.4415 45.5373 51.6498 46.504 51.6498 47.6123C51.6498 49.1123 51.2665 50.4331 50.4998 51.5748C49.7332 52.7081 48.6249 53.5956 47.1749 54.2373C45.7332 54.8706 43.9874 55.1872 41.9374 55.1872C39.9458 55.1872 38.2166 54.8789 36.75 54.2623C35.2916 53.6456 34.15 52.7456 33.325 51.5623C32.5083 50.379 32.0667 48.9373 32 47.2373H36.5625C36.6291 48.129 36.9041 48.8706 37.3875 49.4623C37.8708 50.054 38.4999 50.4956 39.2749 50.7873C40.0583 51.0789 40.9333 51.2248 41.8999 51.2248C42.9082 51.2248 43.7916 51.0748 44.5499 50.7748C45.3166 50.4665 45.9165 50.0415 46.3499 49.4998C46.7832 48.9498 47.004 48.3081 47.0124 47.5748C47.004 46.9082 46.8082 46.3582 46.4249 45.9248C46.0415 45.4832 45.5041 45.1165 44.8124 44.8248C44.1291 44.5248 43.3291 44.2582 42.4124 44.0248L39.4999 43.2749C37.3916 42.7332 35.725 41.9124 34.5 40.8124C33.2833 39.704 32.675 38.2332 32.675 36.3999C32.675 34.8916 33.0833 33.5708 33.9 32.4374C34.725 31.3041 35.8458 30.425 37.2625 29.8C38.6791 29.1666 40.2833 28.85 42.0749 28.85C43.8916 28.85 45.4832 29.1666 46.8499 29.8C48.2249 30.425 49.304 31.2958 50.0873 32.4124C50.8707 33.5208 51.2748 34.7958 51.2998 36.2374H46.8374Z" fill="white"/>
<defs>
<clipPath id="clip0_2224_3174">
<rect width="70.8514" height="94.3602" fill="white" transform="translate(7.10278 56.6399)"/>
</clipPath>
</defs>
</svg>
