<svg width="85" height="151" viewBox="0 0 85 151" fill="none" xmlns="http://www.w3.org/2000/svg">
<g clip-path="url(#clip0_2212_2647)">
<path d="M17.9961 61.9055C18.4901 60.0019 17.7672 59.1945 16.5865 59.8332C17.3577 57.833 16.7431 57.1103 16.1167 57.0619C16.0325 57.0619 15.3214 56.9895 15.2372 57.3511C15.0897 56.9846 14.7402 56.7391 14.3455 56.7248C13.9303 56.6479 13.5052 56.7944 13.2249 57.1103C13.2249 57.1103 13.1286 56.6405 12.3453 56.6405C11.8528 56.6376 11.3951 56.8937 11.1405 57.3153C10.8223 56.7764 10.128 56.5976 9.58934 56.9154C9.58835 56.9162 9.58711 56.9167 9.58613 56.9174C9.45719 57.0024 9.34308 57.1083 9.24873 57.2306C8.52601 58.0138 8.33311 59.0863 8.10414 61.1223C7.87517 63.1583 8.24863 63.6646 8.8029 65.508L8.50156 68.0622L15.2367 68.7609L15.8633 66.4836C16.9998 65.1945 17.74 63.6051 17.9961 61.9055Z" fill="#FFA500"/>
<path d="M69.2272 58.6732C68.9639 59.0807 68.7686 59.5283 68.649 59.9985C68.649 59.9985 68.649 60.8781 68.5766 61.4926V61.9624C68.3003 62.7975 68.1659 63.6731 68.179 64.5529C68.179 65.7578 68.8656 69.7821 68.8656 69.7821L72.4802 69.8545L75.4321 70.7822C75.4321 70.7822 78.8058 64.5892 78.8779 63.5531C78.89 63.4491 78.89 63.3439 78.8779 63.2399C78.7747 62.5453 78.601 61.8631 78.3597 61.2036C78.3597 61.0228 77.9381 59.2758 77.4681 59.035C76.9387 58.7458 76.2985 58.7458 75.7692 59.035C75.0571 58.71 74.2687 58.5892 73.4919 58.6855C72.7716 58.3244 71.923 58.3244 71.2027 58.6855C71.2032 58.6853 69.8057 58.1068 69.2272 58.6732Z" fill="#FFA500"/>
<path d="M68.5286 68.9386C68.5286 68.9386 62.5853 95.9377 62.4769 97.2028C61.5613 103.721 57.2237 109.806 54.0429 113.697C52.2413 114.778 50.3602 115.72 48.4163 116.517C46.7054 116.131 45.4644 115.89 45.4644 115.89L36.0906 116.191C36.0906 116.191 34.8858 116.444 33.2593 116.818C31.416 116.348 27.4156 114.553 25.3915 113.782C25.3915 113.782 16.8609 101.95 16.8609 98.3716V98.2752C17.0536 92.4436 15.7677 67.4114 15.7677 67.4114L8.34543 66.5198C8.34543 66.5198 7.63136 99.7691 8.86042 104.251C10.5835 110.577 17.427 122.324 17.427 122.324C17.427 122.324 22.2464 131.457 22.632 135.698C22.9842 140.839 23.6766 145.951 24.7043 151H57.2356C57.7054 147.12 58.9223 137.433 59.5008 132.831C59.6703 131.189 60.1269 129.591 60.8502 128.108C63.2599 123.288 68.7662 112.131 69.2841 109.565C69.995 106.372 76.4083 68.8905 76.4083 68.8905L68.5286 68.9386Z" fill="#00C8AA"/>
<path d="M39.8737 88.0219C39.8737 88.0219 28.9095 83.9736 29.5961 98.5284C30.2828 113.083 32.8493 114.577 40.0543 112.541C47.2592 110.505 47.8739 101.312 48.8135 96.8777C49.7531 92.4436 43.4522 88.6604 39.8737 88.0219Z" fill="#FFA500"/>
<path d="M34.3435 118.469C34.3435 118.469 40.0425 123.083 45.5246 115.854C45.4396 112.025 45.9227 108.204 46.9584 104.517C48.6451 99.0345 35.4881 111.818 35.4881 111.818C35.5857 112.281 35.6059 112.758 35.5484 113.228C35.4614 113.992 35.3206 114.749 35.1267 115.493C34.6206 117.36 34.7291 117.035 34.3435 118.469Z" fill="#FFA500"/>
<path d="M45.9582 108.83C45.9582 108.83 43.669 106.287 46.4401 100.396C46.3008 100.108 46.0229 99.9121 45.705 99.8775C44.0785 99.528 43.2953 101.769 43.2953 101.769L41.9941 101.697C41.9941 101.697 43.199 97.757 41.6207 96.8775C40.0424 95.9979 30.8491 96.769 29.6924 95.4437C28.5357 94.1183 30.2106 86.2265 32.7288 85.4553C35.2469 84.6842 42.1268 83.118 46.4883 87.0097C46.4883 87.0097 50.392 87.0097 50.392 91.7207C50.3439 97.7933 47.5968 103.781 45.9582 108.83Z" fill="#00469C"/>
<path d="M43.8738 98.215C44.3557 96.9377 47.0907 97.0943 46.8136 99.1306C46.5364 101.167 44.2712 104.3 43.3677 103.709C42.4642 103.119 43.199 99.9862 43.8738 98.215Z" fill="#FFA500"/>
<path d="M48.4281 116.517C48.4281 116.517 43.2955 126.903 35.7288 126.059C28.1623 125.216 32.5479 117.974 33.3191 116.818C33.2709 116.818 37.8132 113.902 48.4281 116.517Z" fill="#FFA500"/>
</g>
<path d="M42.4936 83.121C65.4469 83.121 84.0542 64.5138 84.0542 41.5605C84.0542 18.6073 65.4469 0 42.4936 0C19.5404 0 0.933105 18.6073 0.933105 41.5605C0.933105 64.5138 19.5404 83.121 42.4936 83.121Z" fill="#FDD856"/>
<path d="M1.28625 46.8914C2.03606 52.7323 3.98303 58.2014 6.90033 63.0216L63.9547 5.96723C59.1345 3.05622 53.6654 1.10295 47.8245 0.353149L1.28625 46.8914Z" fill="#FCE492"/>
<path d="M68.5233 9.16675L10.1017 67.5884C11.8281 69.737 13.7688 71.7155 15.8859 73.4797L74.4146 14.951C72.6504 12.8339 70.6782 10.8995 68.5233 9.16675Z" fill="#FCE492"/>
<path d="M83.4434 34.4851C82.3974 28.3921 80.0283 22.7528 76.6384 17.876L18.8091 75.7053C23.686 79.0952 29.3252 81.4643 35.4182 82.5103L83.4434 34.4851Z" fill="#FCE492"/>
<path d="M61.854 60.9251C72.5479 50.2312 72.5479 32.8931 61.854 22.1992C51.1602 11.5054 33.822 11.5054 23.1282 22.1992C12.4343 32.8931 12.4343 50.2312 23.1282 60.9251C33.822 71.6189 51.1602 71.6189 61.854 60.9251Z" fill="#E58515"/>
<mask id="mask0_2212_2647" style="mask-type:luminance" maskUnits="userSpaceOnUse" x="15" y="14" width="55" height="55">
<path d="M61.8545 60.9245C72.5484 50.2305 72.5484 32.8922 61.8545 22.1982C51.1605 11.5043 33.8222 11.5043 23.1282 22.1982C12.4343 32.8922 12.4343 50.2305 23.1282 60.9244C33.8222 71.6184 51.1605 71.6184 61.8545 60.9245Z" fill="white"/>
</mask>
<g mask="url(#mask0_2212_2647)">
<path d="M1.28625 46.8908C2.03606 52.7317 3.98303 58.2009 6.90033 63.021L63.9547 5.96668C59.1345 3.05568 53.6654 1.1024 47.8245 0.3526L1.28625 46.8908Z" fill="#F59E25"/>
<path d="M68.5233 9.1665L10.1017 67.5882C11.8281 69.7368 13.7688 71.7152 15.8859 73.4795L74.4146 14.9507C72.6504 12.8336 70.6782 10.8992 68.5233 9.1665Z" fill="#F59E25"/>
<path d="M83.4434 34.4845C82.3974 28.3915 80.0283 22.7522 76.6384 17.8754L18.8091 75.7047C23.686 79.0946 29.3252 81.4637 35.4182 82.5097L83.4434 34.4845Z" fill="#F59E25"/>
</g>
<path d="M42.4944 80.4872C21.0336 80.4872 3.56763 63.0275 3.56763 41.5604C3.56763 20.0997 21.0273 2.63367 42.4944 2.63367C63.9551 2.63367 81.4211 20.0934 81.4211 41.5604C81.4211 63.0275 63.9614 80.4872 42.4944 80.4872ZM42.4944 6.24406C23.0184 6.24406 7.17172 22.0907 7.17172 41.5667C7.17172 61.0427 23.0184 76.8894 42.4944 76.8894C61.9704 76.8894 77.817 61.0427 77.817 41.5667C77.817 22.0844 61.9704 6.24406 42.4944 6.24406Z" fill="#E58515"/>
<path d="M42.4934 75.4341C23.8176 75.4341 8.62622 60.2427 8.62622 41.5669C8.62622 22.8912 23.8176 7.69977 42.4934 7.69977C61.1692 7.69977 76.3605 22.8912 76.3605 41.5669C76.3668 60.2364 61.1692 75.4341 42.4934 75.4341ZM42.4934 8.41807C24.2209 8.41807 9.35083 23.2881 9.35083 41.5606C9.35083 59.8394 24.2209 74.7032 42.4934 74.7032C60.7659 74.7032 75.6359 59.8331 75.6359 41.5606C75.6423 23.2881 60.7722 8.41807 42.4934 8.41807Z" fill="#E58515"/>
<path d="M42.4937 10.0996C41.9392 10.0996 41.4918 10.547 41.4918 11.1014C41.4918 11.6559 41.9392 12.1033 42.4937 12.1033C43.0481 12.1033 43.4955 11.6559 43.4955 11.1014C43.4955 10.547 43.0481 10.0996 42.4937 10.0996Z" fill="#E58515"/>
<path d="M63.3305 19.3175C62.9398 19.7081 62.9398 20.3382 63.3305 20.7289C63.7211 21.1195 64.3512 21.1195 64.7419 20.7289C65.1325 20.3382 65.1325 19.7081 64.7419 19.3175C64.3512 18.9268 63.7211 18.9268 63.3305 19.3175Z" fill="#E58515"/>
<path d="M72.9575 40.5641C72.403 40.5641 71.9557 41.0115 71.9557 41.5659C71.9557 42.1204 72.403 42.5678 72.9575 42.5678C73.512 42.5678 73.9594 42.1204 73.9594 41.5659C73.9594 41.0115 73.5057 40.5641 72.9575 40.5641Z" fill="#E58515"/>
<path d="M63.3305 62.3899C62.9398 62.7806 62.9398 63.4107 63.3305 63.8013C63.7211 64.192 64.3512 64.192 64.7419 63.8013C65.1325 63.4107 65.1325 62.7806 64.7419 62.3899C64.3512 61.9993 63.7211 61.9993 63.3305 62.3899Z" fill="#E58515"/>
<path d="M42.4937 71.0234C41.9392 71.0234 41.4918 71.4708 41.4918 72.0253C41.4918 72.5797 41.9392 73.0271 42.4937 73.0271C43.0481 73.0271 43.4955 72.5797 43.4955 72.0253C43.4955 71.4708 43.0481 71.0234 42.4937 71.0234Z" fill="#E58515"/>
<path d="M20.2512 62.3899C19.8606 62.7806 19.8606 63.4107 20.2512 63.8013C20.6419 64.192 21.272 64.192 21.6626 63.8013C22.0533 63.4107 22.0533 62.7806 21.6626 62.3899C21.272 61.9993 20.6419 61.9993 20.2512 62.3899Z" fill="#E58515"/>
<path d="M12.0343 40.5641C11.4798 40.5641 11.0325 41.0115 11.0325 41.5659C11.0325 42.1204 11.4798 42.5678 12.0343 42.5678C12.5888 42.5678 13.0361 42.1204 13.0361 41.5659C13.0361 41.0115 12.5888 40.5641 12.0343 40.5641Z" fill="#E58515"/>
<path d="M20.2512 19.3175C19.8606 19.7081 19.8606 20.3382 20.2512 20.7289C20.6419 21.1195 21.272 21.1195 21.6626 20.7289C22.0533 20.3382 22.0533 19.7081 21.6626 19.3175C21.272 18.9268 20.6419 18.9268 20.2512 19.3175Z" fill="#E58515"/>
<path d="M54.8369 13.6912C55.0448 13.1808 54.7991 12.5948 54.2824 12.3869C53.772 12.179 53.1861 12.4247 52.9781 12.9414C52.7702 13.458 53.0159 14.0377 53.5326 14.2457C54.0493 14.4536 54.629 14.2078 54.8369 13.6912Z" fill="#E58515"/>
<path d="M70.9225 30.5771C71.4329 30.3629 71.666 29.7769 71.4518 29.2665C71.2375 28.7561 70.6516 28.523 70.1412 28.7372C69.6308 28.9515 69.3977 29.5374 69.6119 30.0478C69.8325 30.5582 70.4184 30.7976 70.9225 30.5771Z" fill="#E58515"/>
<path d="M71.1108 52.0436C70.6004 51.8356 70.0144 52.0814 69.8065 52.598C69.5986 53.1084 69.8443 53.6944 70.361 53.9023C70.8714 54.1103 71.4573 53.8645 71.6653 53.3479C71.8732 52.8312 71.6212 52.2515 71.1108 52.0436Z" fill="#E58515"/>
<path d="M54.0045 68.6783C53.4941 68.8925 53.261 69.4785 53.4752 69.9889C53.6894 70.4992 54.2754 70.7324 54.7858 70.5181C55.2962 70.3039 55.5293 69.7179 55.3151 69.2076C55.1008 68.7035 54.5148 68.4641 54.0045 68.6783Z" fill="#E58515"/>
<path d="M31.4604 68.8744C30.95 68.6665 30.364 68.9122 30.1561 69.4289C29.9482 69.9392 30.1939 70.5252 30.7106 70.7331C31.221 70.9411 31.8069 70.6953 32.0149 70.1787C32.2228 69.662 31.9708 69.0823 31.4604 68.8744Z" fill="#E58515"/>
<path d="M14.0633 52.5422C13.5529 52.7565 13.3198 53.3424 13.534 53.8528C13.7483 54.3632 14.3343 54.5963 14.8446 54.3821C15.355 54.1678 15.5881 53.5819 15.3739 53.0715C15.1597 52.5611 14.5737 52.328 14.0633 52.5422Z" fill="#E58515"/>
<path d="M13.8809 31.0818C14.3913 31.2898 14.9772 31.044 15.1852 30.5274C15.3931 30.017 15.1474 29.431 14.6307 29.2231C14.1203 29.0151 13.5343 29.2609 13.3264 29.7776C13.1185 30.2879 13.3642 30.8739 13.8809 31.0818Z" fill="#E58515"/>
<path d="M30.9884 14.441C31.4988 14.2267 31.7319 13.6408 31.5177 13.1304C31.3035 12.62 30.7175 12.3869 30.2071 12.6011C29.6967 12.8153 29.4636 13.4013 29.6778 13.9117C29.8921 14.4221 30.4781 14.6615 30.9884 14.441Z" fill="#E58515"/>
<path d="M33.2058 51.5836V27.283H41.8676C43.7503 27.283 45.3126 27.6073 46.5545 28.256C47.8044 28.9046 48.7378 29.8025 49.3548 30.9495C49.9718 32.0886 50.2803 33.4056 50.2803 34.9007C50.2803 36.3878 49.9678 37.697 49.3429 38.8282C48.7259 39.9514 47.7925 40.8255 46.5427 41.4505C45.3007 42.0754 43.7384 42.3878 41.8558 42.3878H35.2941V39.2316H41.5235C42.7101 39.2316 43.6752 39.0615 44.4187 38.7214C45.1702 38.3812 45.72 37.8868 46.068 37.2382C46.4161 36.5895 46.5901 35.8104 46.5901 34.9007C46.5901 33.9831 46.4121 33.1881 46.0562 32.5157C45.7081 31.8433 45.1583 31.3292 44.4069 30.9732C43.6633 30.6093 42.6864 30.4274 41.4761 30.4274H36.8723V51.5836H33.2058ZM45.2019 40.6199L51.2058 51.5836H47.0291L41.1438 40.6199H45.2019Z" fill="white"/>
<defs>
<clipPath id="clip0_2212_2647">
<rect width="70.8514" height="94.3602" fill="white" transform="translate(8.03589 56.6398)"/>
</clipPath>
</defs>
</svg>
