<svg width="94" height="88" viewBox="0 0 94 88" fill="none" xmlns="http://www.w3.org/2000/svg">
<path d="M46.8199 39.3659C46.8199 39.3659 47.7055 56.7754 53.016 57.9553C55.2556 58.4546 57.0582 57.6917 58.3921 56.6483V56.6457C60.1821 55.2461 61.1349 53.3302 61.1788 53.2393L61.1817 53.2351L61.674 62.6064H82.2491C82.5063 60.416 82.7657 57.9367 82.9729 55.8415L88.171 74.9677L89.7218 52.5526C89.7218 52.5526 88.6245 44.5784 86.3461 40.7546C84.3325 37.3721 79.9681 36.6618 75.3949 36.6618C63.5915 36.6618 61.4145 37.3078 59.2014 41.2414C57.2481 44.7135 55.4363 47.1434 55.4363 47.1434L50.8512 37.8913L46.8186 39.3671L46.8199 39.3659Z" fill="#4DC483"/>
<path d="M68.657 37.0778C68.657 37.0778 69.7392 38.6766 71.903 38.6273C74.069 38.5777 75.3962 36.6605 75.3962 36.6605C75.3962 36.6605 74.1894 35.5165 74.5574 33.7143C74.5574 33.7143 72.8741 33.8747 72.5945 32.6814C72.3671 31.7004 72.9586 31.2254 73.5752 29.7752C74.3592 27.9195 71.8264 26.6525 70.9662 29.0126C70.3522 30.6982 69.6591 33.4558 68.4001 35.4976C68.8991 36.0542 68.6541 37.0778 68.6541 37.0778H68.657Z" fill="#FFB869"/>
<path d="M65.8043 30.5581C65.7909 30.6356 65.7748 30.7147 65.7643 30.791C66.2312 30.8938 66.8145 30.9915 67.3778 31.0049C68.6074 31.0289 68.828 30.7586 69.0247 30.2676C69.065 30.1674 69.081 30.1274 69.0878 30.1152C69.0878 30.1126 69.0878 30.1113 69.0903 30.1113V30.1085C69.1063 30.0819 69.1893 29.8958 69.5666 28.9846C70.3039 27.209 69.7392 26.825 68.2141 25.7681C67.7269 25.4308 67.3753 25.1339 67.1315 24.8557C66.9576 25.4215 66.801 26.195 66.8359 27.0713C66.8856 28.2272 65.5087 28.3985 65.0859 29.0343C64.8223 29.4314 65.0417 29.9973 65.803 30.5581H65.8043Z" fill="#FFB869"/>
<path d="M50.8539 37.8901C49.3781 33.9805 48.9005 31.7822 48.4188 28.7837C48.087 26.7141 48.0496 24.98 47.4596 24.98C46.8697 24.98 46.7825 25.384 46.7825 26.8598C46.7825 28.3357 46.4789 35.5822 47.3004 39.1892L50.8513 37.8901H50.8539Z" fill="#FA9000"/>
<path d="M82.2492 62.6064C82.2492 62.6064 84.1987 72.3172 85.3789 79.2025H72.5115L71.8988 82.3012L71.0866 79.2025H58.9193C58.9193 79.2025 59.5093 71.3605 61.6727 62.6064" fill="#15273B"/>
<path d="M52.1879 81.9988C52.1879 84.5382 54.2473 86.5973 56.788 86.5973H84.326C86.868 86.5973 88.9258 84.5382 88.9258 81.9988L89.085 79.2025H52.3458L52.1866 81.9988H52.1879Z" fill="#A6A19A"/>
<path d="M56.7891 87.6037H84.327C87.4084 87.6037 89.9171 85.1056 89.9331 82.0296L90.1512 78.1975H51.3969L51.183 82.0002C51.183 85.0908 53.6984 87.605 56.7891 87.605V87.6037ZM88.0211 80.2085L87.9208 81.9989C87.9208 83.9792 86.3086 85.5914 84.3258 85.5914H56.7878C54.8143 85.5914 53.2074 83.9939 53.1927 82.0255L53.2955 80.2085H88.0198H88.0211Z" fill="#A6A19A"/>
<path d="M51.282 80.2085H90.0364L93.5098 18.9164C93.5098 15.8257 90.9943 13.3117 87.9037 13.3117H60.3657C57.2843 13.3117 54.7756 15.8097 54.7593 18.8857L51.282 80.2085ZM88.1349 78.1962H53.4109L56.7703 18.9445V18.9164C56.7703 16.9362 58.3826 15.324 60.3657 15.324H87.9037C89.8772 15.324 91.484 16.9215 91.4988 18.8896L88.1365 78.1975L88.1349 78.1962Z" fill="#A6A19A"/>
<path d="M53.0644 42.3522L55.438 47.1435C55.438 47.1435 55.9905 46.4021 56.8133 45.1552L58.3948 56.647C57.0595 57.6934 55.2574 58.4531 53.0189 57.9554C51.1629 57.5435 49.8479 55.1498 48.922 52.2103L53.0657 42.3509L53.0644 42.3522Z" fill="#2EA162"/>
<path d="M67.8222 35.1779C68.0816 35.2314 68.2689 35.3477 68.4015 35.4976C69.6605 33.4574 70.3536 30.6986 70.9676 29.0126C71.8282 26.6525 74.3609 27.9195 73.5769 29.7752C72.96 31.2257 72.3672 31.7004 72.5959 32.6814C72.8758 33.8747 74.5588 33.7143 74.5588 33.7143C74.5588 33.7143 74.5614 33.7008 74.5694 33.6675C74.6325 33.468 74.9694 32.5715 76.6823 29.9289C78.7413 26.7528 76.9459 24.6361 74.0691 23.258C71.1899 21.8812 67.2911 21.5052 66.764 23.1844C66.5805 23.7704 66.6112 24.2641 67.1332 24.8542C67.3767 25.1312 67.727 25.4281 68.2155 25.7666C69.7393 26.8236 70.3053 27.2088 69.5683 28.9832C69.191 29.8956 69.1081 30.0804 69.0917 30.107V30.1099C69.0917 30.1099 69.0892 30.1125 69.0892 30.1138C69.0824 30.1243 69.0664 30.1647 69.0264 30.2662C68.8297 30.7588 68.6088 31.0288 67.3792 31.0035C66.8162 30.99 66.2326 30.8911 65.7657 30.7895C65.2266 33.8747 65.5315 34.7084 67.8247 35.1779H67.8222Z" fill="#15273B"/>
<path d="M58.3935 56.6458C60.1835 55.2462 61.1363 53.3303 61.1805 53.239L61.1831 53.2352V48.3234C61.1831 47.9823 60.6988 47.9195 60.6117 48.2485L58.3935 56.6458Z" fill="#2EA162"/>
<path d="M41.0492 0.485888L39.8623 3.98468C39.7915 4.19606 39.6256 4.36065 39.4142 4.4329L35.9152 5.61968C35.268 5.83914 35.268 6.75561 35.9152 6.97503L39.4142 8.16184C39.6256 8.23275 39.7902 8.39859 39.8623 8.61L41.0492 12.1088C41.2686 12.7564 42.1849 12.7564 42.4047 12.1088L43.5913 8.61C43.6624 8.39859 43.8283 8.2341 44.0397 8.16184L47.5383 6.97503C48.1859 6.75561 48.1859 5.83914 47.5383 5.61968L44.0397 4.4329C43.8283 4.36199 43.6637 4.19606 43.5913 3.98468L42.4047 0.485888C42.1849 -0.161678 41.2686 -0.161678 41.0492 0.485888Z" fill="#FFBB6F"/>
<path d="M52.5878 9.87302L52.0324 11.5107C51.9991 11.6097 51.9216 11.6873 51.8223 11.7207L50.1847 12.276C49.8811 12.379 49.8811 12.8071 50.1847 12.9102L51.8223 13.4654C51.9216 13.4989 51.9991 13.5765 52.0324 13.6755L52.5878 15.3132C52.6909 15.6169 53.1191 15.6169 53.2219 15.3132L53.7773 13.6755C53.8106 13.5765 53.8884 13.4989 53.9874 13.4654L55.6249 12.9102C55.9286 12.8071 55.9286 12.379 55.6249 12.276L53.9874 11.7207C53.8884 11.6873 53.8106 11.6097 53.7773 11.5107L53.2219 9.87302C53.1191 9.5693 52.6909 9.5693 52.5878 9.87302Z" fill="#FFBB6F"/>
<path d="M46.6899 39.3659C46.6899 39.3659 45.8043 56.7754 40.4938 57.9553C38.2541 58.4546 36.4516 57.6917 35.1177 56.6483V56.6457C33.3276 55.2461 32.3748 53.3302 32.3309 53.2393L32.3281 53.2351L31.8358 62.6064H11.2606C11.0035 60.416 10.744 57.9367 10.5368 55.8415L5.33874 74.9677L3.78796 52.5526C3.78796 52.5526 4.88523 44.5784 7.16367 40.7546C9.17725 37.3721 13.5416 36.6618 18.1149 36.6618C29.9183 36.6618 32.0952 37.3078 34.3083 41.2414C36.2617 44.7135 38.0735 47.1434 38.0735 47.1434L42.6586 37.8913L46.6911 39.3671L46.6899 39.3659Z" fill="#FFBB6F"/>
<path d="M24.8528 37.0778C24.8528 37.0778 23.7706 38.6766 21.6068 38.6273C19.4407 38.5777 18.1135 36.6605 18.1135 36.6605C18.1135 36.6605 19.3203 35.5165 18.9523 33.7143C18.9523 33.7143 20.6357 33.8747 20.9153 32.6814C21.1427 31.7004 20.5511 31.2254 19.9346 29.7752C19.1506 27.9195 21.6833 26.6525 22.5436 29.0126C23.1575 30.6982 23.8506 33.4558 25.1096 35.4976C24.6106 36.0542 24.8556 37.0778 24.8556 37.0778H24.8528Z" fill="#FFB869"/>
<path d="M27.7055 30.5581C27.7189 30.6356 27.7349 30.7147 27.7455 30.791C27.2785 30.8938 26.6953 30.9915 26.1319 31.0049C24.9024 31.0289 24.6817 30.7586 24.4851 30.2676C24.4447 30.1674 24.4287 30.1274 24.422 30.1152C24.422 30.1126 24.422 30.1113 24.4194 30.1113V30.1085C24.4034 30.0819 24.3205 29.8958 23.9432 28.9846C23.2059 27.209 23.7706 26.825 25.2957 25.7681C25.7828 25.4308 26.1345 25.1339 26.3782 24.8557C26.5522 25.4215 26.7088 26.195 26.6739 27.0713C26.6242 28.2272 28.0011 28.3985 28.4238 29.0343C28.6874 29.4314 28.468 29.9973 27.7067 30.5581H27.7055Z" fill="#FFB869"/>
<path d="M42.6559 37.8901C44.1317 33.9805 44.6092 31.7822 45.0909 28.7837C45.4227 26.7141 45.4602 24.98 46.0502 24.98C46.6401 24.98 46.7272 25.384 46.7272 26.8598C46.7272 28.3357 47.0309 35.5822 46.2093 39.1892L42.6584 37.8901H42.6559Z" fill="#FA9000"/>
<path d="M11.2606 62.6064C11.2606 62.6064 9.31108 72.3172 8.13086 79.2025H20.9983L21.6109 82.3012L22.4232 79.2025H34.5904C34.5904 79.2025 34.0005 71.3605 31.837 62.6064" fill="#F66A45"/>
<path d="M41.3219 81.9988C41.3219 84.5382 39.2625 86.5973 36.7217 86.5973H9.18378C6.64176 86.5973 4.58398 84.5382 4.58398 81.9988L4.4248 79.2025H41.164L41.3231 81.9988H41.3219Z" fill="#A6A19A"/>
<path d="M36.7207 87.6037H9.18273C6.10136 87.6037 3.59264 85.1056 3.57663 82.0296L3.35852 78.1975H42.1128L42.3268 82.0002C42.3268 85.0908 39.8113 87.605 36.7207 87.605V87.6037ZM5.48867 80.2085L5.58892 81.9989C5.58892 83.9792 7.20119 85.5914 9.18401 85.5914H36.722C38.6955 85.5914 40.3023 83.9939 40.3171 82.0255L40.2143 80.2085H5.48996H5.48867Z" fill="#A6A19A"/>
<path d="M42.2277 80.2085H3.47339L0 18.9164C0 15.8257 2.51545 13.3117 5.60611 13.3117H33.1441C36.2254 13.3117 38.7341 15.8097 38.7505 18.8857L42.2277 80.2085ZM5.37487 78.1962H40.0988L36.7395 18.9445V18.9164C36.7395 16.9362 35.1272 15.324 33.1441 15.324H5.60611C3.63257 15.324 2.02575 16.9215 2.01101 18.8896L5.37326 78.1975L5.37487 78.1962Z" fill="#A6A19A"/>
<path d="M40.4453 42.3522L38.0718 47.1435C38.0718 47.1435 37.5193 46.4021 36.6965 45.1552L35.115 56.647C36.4502 57.6934 38.2524 58.4531 40.4908 57.9554C42.3468 57.5435 43.6619 55.1498 44.5878 52.2103L40.4441 42.3509L40.4453 42.3522Z" fill="#FFA642"/>
<path d="M25.6876 35.1779C25.4282 35.2314 25.2408 35.3477 25.1082 35.4976C23.8492 33.4574 23.1561 30.6986 22.5422 29.0126C21.6816 26.6525 19.1489 27.9195 19.9329 29.7752C20.5497 31.2257 21.1426 31.7004 20.9139 32.6814C20.634 33.8747 18.9509 33.7143 18.9509 33.7143C18.9509 33.7143 18.9484 33.7008 18.9404 33.6675C18.8773 33.468 18.5403 32.5715 16.8275 29.9289C14.7684 26.7528 16.5639 24.6361 19.4406 23.258C22.3199 21.8812 26.2186 21.5052 26.7458 23.1844C26.9293 23.7704 26.8986 24.2641 26.3765 24.8542C26.1331 25.1312 25.7827 25.4281 25.2943 25.7666C23.7704 26.8236 23.2045 27.2088 23.9415 28.9832C24.3187 29.8956 24.4017 30.0804 24.418 30.107V30.1099C24.418 30.1099 24.4206 30.1125 24.4206 30.1138C24.4273 30.1243 24.4433 30.1647 24.4834 30.2662C24.68 30.7588 24.901 31.0288 26.1305 31.0035C26.6936 30.99 27.2771 30.8911 27.7441 30.7895C28.2831 33.8747 27.9782 34.7084 25.685 35.1779H25.6876Z" fill="#15273B"/>
<path d="M35.1163 56.6458C33.3262 55.2462 32.3734 53.3303 32.3292 53.239L32.3267 53.2352V48.3234C32.3267 47.9823 32.8109 47.9195 32.898 48.2485L35.1163 56.6458Z" fill="#FFA642"/>
<path d="M52.4605 0.485888L53.6475 3.98468C53.7182 4.19606 53.8841 4.36065 54.0955 4.4329L57.5945 5.61968C58.2418 5.83914 58.2418 6.75561 57.5945 6.97503L54.0955 8.16184C53.8841 8.23275 53.7195 8.39859 53.6475 8.61L52.4605 12.1088C52.2411 12.7564 51.3248 12.7564 51.1051 12.1088L49.9185 8.61C49.8474 8.39859 49.6815 8.2341 49.4701 8.16184L45.9714 6.97503C45.3238 6.75561 45.3238 5.83914 45.9714 5.61968L49.4701 4.4329C49.6815 4.36199 49.8461 4.19606 49.9185 3.98468L51.1051 0.485888C51.3248 -0.161678 52.2411 -0.161678 52.4605 0.485888Z" fill="#FFBB6F"/>
<path d="M40.922 9.87302L41.4774 11.5107C41.5107 11.6097 41.5882 11.6873 41.6875 11.7207L43.325 12.276C43.6286 12.379 43.6286 12.8071 43.325 12.9102L41.6875 13.4654C41.5882 13.4989 41.5107 13.5765 41.4774 13.6755L40.922 15.3132C40.8189 15.6169 40.3907 15.6169 40.2879 15.3132L39.7325 13.6755C39.6992 13.5765 39.6214 13.4989 39.5224 13.4654L37.8848 12.9102C37.5812 12.8071 37.5812 12.379 37.8848 12.276L39.5224 11.7207C39.6214 11.6873 39.6992 11.6097 39.7325 11.5107L40.2879 9.87302C40.3907 9.5693 40.8189 9.5693 40.922 9.87302Z" fill="#FFBB6F"/>
</svg>
