<svg width="32" height="33" viewBox="0 0 32 33" fill="none" xmlns="http://www.w3.org/2000/svg">
<path d="M0 32.9313L2.24933 24.7139C0.861333 22.3086 0.132 19.5819 0.133333 16.7859C0.137333 8.04461 7.25067 0.931274 15.9907 0.931274C20.232 0.932608 24.2133 2.58461 27.208 5.58194C30.2013 8.57927 31.8493 12.5633 31.848 16.8006C31.844 25.5433 24.7307 32.6566 15.9907 32.6566C13.3373 32.6553 10.7227 31.9899 8.40667 30.7259L0 32.9313ZM8.796 27.8553C11.0307 29.1819 13.164 29.9766 15.9853 29.9779C23.2493 29.9779 29.1667 24.0659 29.1707 16.7979C29.1733 9.51527 23.284 3.61127 15.996 3.60861C8.72667 3.60861 2.81333 9.52061 2.81067 16.7873C2.80933 19.7539 3.67867 21.9753 5.13867 24.2993L3.80667 29.1633L8.796 27.8553ZM23.9787 20.5699C23.88 20.4046 23.616 20.3059 23.2187 20.1073C22.8227 19.9086 20.8747 18.9499 20.5107 18.8179C20.148 18.6859 19.884 18.6193 19.6187 19.0166C19.3547 19.4126 18.5947 20.3059 18.364 20.5699C18.1333 20.8339 17.9013 20.8673 17.5053 20.6686C17.1093 20.4699 15.832 20.0526 14.3187 18.7019C13.1413 17.6513 12.3453 16.3539 12.1147 15.9566C11.884 15.5606 12.0907 15.3459 12.288 15.1486C12.4667 14.9713 12.684 14.6859 12.8827 14.4539C13.084 14.2246 13.1493 14.0593 13.2827 13.7939C13.4147 13.5299 13.3493 13.2979 13.2493 13.0993C13.1493 12.9019 12.3573 10.9513 12.028 10.1579C11.7053 9.38594 11.3787 9.48994 11.136 9.47794L10.376 9.46461C10.112 9.46461 9.68267 9.56327 9.32 9.96061C8.95733 10.3579 7.93333 11.3153 7.93333 13.2659C7.93333 15.2166 9.35333 17.1006 9.55067 17.3646C9.74933 17.6286 12.344 21.6313 16.3187 23.3473C17.264 23.7553 18.0027 23.9993 18.5773 24.1819C19.5267 24.4833 20.3907 24.4406 21.0733 24.3393C21.8347 24.2259 23.4173 23.3806 23.748 22.4553C24.0787 21.5286 24.0787 20.7353 23.9787 20.5699Z" fill="#25D366"/>
</svg>
