<svg width="28" height="28" viewBox="0 0 28 28" fill="none" xmlns="http://www.w3.org/2000/svg">
<path fill-rule="evenodd" clip-rule="evenodd" d="M23.356 4.68803C20.876 2.20403 17.572 0.836031 14.056 0.832031C6.81195 0.832031 0.911955 6.72803 0.911955 13.976C0.911955 16.292 1.51595 18.556 2.66795 20.548L0.803955 27.36L7.77196 25.532C9.69195 26.58 11.852 27.132 14.052 27.132H14.056C21.3 27.132 27.196 21.236 27.2 13.988C27.204 10.476 25.84 7.17203 23.356 4.68803ZM14.06 24.912H14.056C12.096 24.912 10.172 24.384 8.49595 23.388L8.09595 23.152L3.95995 24.236L5.06396 20.204L4.80396 19.792C3.71196 18.052 3.13196 16.044 3.13196 13.976C3.13596 7.95203 8.03596 3.05203 14.064 3.05203C16.984 3.05203 19.724 4.19203 21.788 6.25603C23.852 8.32003 24.988 11.068 24.984 13.984C24.984 20.012 20.08 24.912 14.06 24.912ZM20.052 16.728C19.724 16.564 18.108 15.768 17.808 15.66C17.508 15.552 17.288 15.496 17.068 15.824C16.848 16.152 16.22 16.892 16.028 17.112C15.836 17.332 15.644 17.36 15.316 17.196C14.988 17.032 13.928 16.684 12.676 15.564C11.7 14.692 11.04 13.616 10.848 13.288C10.656 12.96 10.828 12.78 10.992 12.616C11.14 12.468 11.32 12.232 11.484 12.04C11.648 11.848 11.704 11.712 11.812 11.492C11.92 11.272 11.868 11.08 11.784 10.916C11.7 10.752 11.044 9.13603 10.772 8.47603C10.504 7.83603 10.236 7.92403 10.032 7.91203C9.83996 7.90403 9.61996 7.90003 9.40396 7.90003C9.18396 7.90003 8.82796 7.98403 8.52796 8.31203C8.22796 8.64003 7.37996 9.43603 7.37996 11.052C7.37996 12.668 8.55596 14.232 8.71996 14.448C8.88396 14.668 11.036 17.984 14.332 19.408C15.116 19.748 15.728 19.948 16.204 20.1C16.992 20.352 17.708 20.316 18.272 20.232C18.904 20.136 20.216 19.436 20.488 18.672C20.76 17.904 20.76 17.248 20.68 17.112C20.6 16.976 20.38 16.896 20.052 16.728Z" fill="white"/>
</svg>
