<svg width="36" height="36" viewBox="0 0 36 36" fill="none" xmlns="http://www.w3.org/2000/svg">
<g clip-path="url(#clip0_164_13793)">
<path d="M30.8084 19.207H27.1541C24.2911 19.207 21.9463 21.5417 21.9463 24.4047V30.1359C21.9463 31.8537 23.3594 33.2609 25.0772 33.2609H32.8853C34.6032 33.2609 36.0001 31.8537 36.0001 30.1359V24.4047C36.0001 21.5416 33.6715 19.207 30.8084 19.207Z" fill="#FF0800"/>
<path d="M28.9813 19.207H27.1541C24.2911 19.207 21.9463 21.5417 21.9463 24.4047V30.1359C21.9463 31.8537 23.3594 33.2609 25.0772 33.2609H28.9813V19.207Z" fill="#FF6161"/>
<path d="M28.981 8.55939C26.4059 8.55939 24.311 10.6543 24.311 13.2293C24.311 15.8044 26.4059 17.8993 28.981 17.8993C31.556 17.8993 33.6509 15.8044 33.6509 13.2293C33.6509 10.6544 31.556 8.55939 28.981 8.55939Z" fill="#FF0800"/>
<path d="M28.981 8.55939C26.4059 8.55939 24.311 10.6543 24.311 13.2293C24.311 15.8044 26.4059 17.8993 28.981 17.8993V8.55939Z" fill="#FF6161"/>
<path d="M8.86205 19.207H5.20784C2.34478 19.207 0 21.5416 0 24.4047V30.1358C0 31.8536 1.41307 33.2608 3.13094 33.2608H10.939C12.6569 33.2608 14.0539 31.8536 14.0539 30.1358V24.4047C14.0539 21.5416 11.7252 19.207 8.86205 19.207Z" fill="#00893E"/>
<path d="M7.03498 19.207H5.20784C2.34478 19.207 0 21.5417 0 24.4047V30.1359C0 31.8537 1.41307 33.2609 3.13094 33.2609H7.03498V19.207Z" fill="#00C158"/>
<path d="M21.1796 16.5073H14.8202C11.9572 16.5073 9.62793 18.8365 9.62793 21.6996V32.2128C9.62793 32.7863 10.0929 33.2512 10.6664 33.2512H25.3334C25.907 33.2512 26.3719 32.7863 26.3719 32.2128V21.6996C26.3719 18.8365 24.0426 16.5073 21.1796 16.5073Z" fill="#007DC0"/>
<path d="M18.035 16.5073H14.8202C11.9572 16.5073 9.62793 18.8365 9.62793 21.6996V32.2128C9.62793 32.7863 10.0929 33.2512 10.6664 33.2512H18.035V16.5073Z" fill="#1DE1FF"/>
<path d="M17.9998 2.73987C14.5566 2.73987 11.7554 5.54112 11.7554 8.98432C11.7554 12.4275 14.5566 15.2288 17.9998 15.2288C21.4431 15.2288 24.2443 12.4275 24.2443 8.98432C24.2443 5.54112 21.443 2.73987 17.9998 2.73987Z" fill="#007DC0"/>
<path d="M17.9998 2.73987C14.5566 2.73987 11.7554 5.54112 11.7554 8.98432C11.7554 12.4275 14.5566 15.2288 17.9998 15.2288V2.73987Z" fill="#1DE1FF"/>
<path d="M7.03518 8.55939C4.46012 8.55939 2.36523 10.6543 2.36523 13.2293C2.36523 15.8044 4.46012 17.8993 7.03518 17.8993C9.61023 17.8993 11.7051 15.8044 11.7051 13.2293C11.7051 10.6544 9.61023 8.55939 7.03518 8.55939Z" fill="#00893E"/>
<path d="M7.03518 8.55939C4.46012 8.55939 2.36523 10.6543 2.36523 13.2293C2.36523 15.8044 4.46012 17.8993 7.03518 17.8993V8.55939Z" fill="#00C158"/>
</g>
<defs>
<clipPath id="clip0_164_13793">
<rect width="36" height="36" fill="white"/>
</clipPath>
</defs>
</svg>
