<svg width="36" height="36" viewBox="0 0 36 36" fill="none" xmlns="http://www.w3.org/2000/svg">
<g clip-path="url(#clip0_164_13651)">
<path d="M25.3828 17.7259V36H8.4375L7.12958 30.2132L0 27.4922V4.28906H19.8353L25.3828 17.7259Z" fill="#00B050"/>
<path d="M0 27.4922L8.4375 36V27.4922H0Z" fill="#00CE5E"/>
<path d="M25.3828 17.7259V36H12.7266V4.28906H19.8353L25.3828 17.7259Z" fill="#94FFC4"/>
<path d="M4.21875 19.0547H21.1641V21.1641H4.21875V19.0547Z" fill="white"/>
<path d="M4.21875 10.6172H18.2741V12.7266H4.21875V10.6172Z" fill="white"/>
<path d="M4.21875 14.8359H20.8688V16.9453H4.21875V14.8359Z" fill="white"/>
<path d="M10.5469 23.2734H21.1641V25.3828H10.5469V23.2734Z" fill="white"/>
<path d="M10.5469 27.4922H21.1641V29.6016H10.5469V27.4922Z" fill="white"/>
<path d="M12.7266 10.6172H18.2741V12.7266H12.7266V10.6172Z" fill="#00AB4E"/>
<path d="M12.7266 14.8359H20.8688V16.9453H12.7266V14.8359Z" fill="#00AB4E"/>
<path d="M12.7266 19.0547H21.1641V21.1641H12.7266V19.0547Z" fill="#00AB4E"/>
<path d="M12.7266 23.2734H21.1641V25.3828H12.7266V23.2734Z" fill="#00AB4E"/>
<path d="M12.7266 27.4922H21.1641V29.6016H12.7266V27.4922Z" fill="#00AB4E"/>
<path d="M26.5078 0C21.2767 0 17.0156 4.26077 17.0156 9.49219C17.0156 14.7233 21.2767 18.9844 26.5078 18.9844C31.739 18.9844 36 14.7233 36 9.49219C36 4.26077 31.739 0 26.5078 0Z" fill="#EB0000"/>
<path d="M36 9.49219C36 14.7233 31.739 18.9844 26.5078 18.9844V0C31.739 0 36 4.26077 36 9.49219Z" fill="#FF0000"/>
<path d="M28.0055 9.49219L30.4102 11.918L28.9336 13.3945L26.5078 10.9899L24.082 13.3945L22.6055 11.918L25.0101 9.49219L22.6055 7.06641L24.082 5.58984L26.5078 7.99448L28.9336 5.58984L30.4102 7.06641L28.0055 9.49219Z" fill="#ECECF1"/>
<path d="M28.0055 9.49219L30.4102 11.918L28.9336 13.3945L26.5078 10.9899V7.99448L28.9336 5.58984L30.4102 7.06641L28.0055 9.49219Z" fill="#E2E2E7"/>
</g>
<defs>
<clipPath id="clip0_164_13651">
<rect width="36" height="36" fill="white"/>
</clipPath>
</defs>
</svg>
