<svg width="36" height="36" viewBox="0 0 36 36" fill="none" xmlns="http://www.w3.org/2000/svg">
<path d="M5.625 1.125H30.375V34.875H5.625V1.125Z" fill="#00AB4E"/>
<path d="M28.6875 32.625V1.125H5.625V33.75H27.5625C27.8609 33.75 28.147 33.6315 28.358 33.4205C28.569 33.2095 28.6875 32.9234 28.6875 32.625Z" fill="#BBFFDA"/>
<path d="M8.4375 18.5625H27.5625V19.6875H8.4375V18.5625Z" fill="black"/>
<path d="M8.4375 20.8125H27.5625V21.9375H8.4375V20.8125Z" fill="black"/>
<path d="M12.9375 23.625H14.625L16.875 21.375V18H17.4375C17.8851 18 18.3143 18.1778 18.6307 18.4943C18.9472 18.8107 19.125 19.2399 19.125 19.6875V23.625H23.625C23.9234 23.625 24.2095 23.7435 24.4205 23.9545C24.6315 24.1655 24.75 24.4516 24.75 24.75V31.5C24.75 31.7984 24.6315 32.0845 24.4205 32.2955C24.2095 32.5065 23.9234 32.625 23.625 32.625H16.875L14.625 31.5H12.9375V23.625Z" fill="#F2B9A1"/>
<path d="M5.625 32.0625H12.9375V23.0625H5.625" fill="#009443"/>
<path d="M11.25 29.25V23.0625H5.625V30.375H10.125C10.4234 30.375 10.7095 30.2565 10.9205 30.0455C11.1315 29.8345 11.25 29.5484 11.25 29.25Z" fill="#00D05F"/>
<path d="M19.6875 29.8125H24.75V30.9375H19.6875V29.8125Z" fill="#E29F88"/>
<path d="M19.6875 27.5625H24.75V28.6875H19.6875V27.5625Z" fill="#E29F88"/>
<path d="M19.6875 25.3125H24.75V26.4375H19.6875V25.3125Z" fill="#E29F88"/>
<path d="M18 15.75C21.4173 15.75 24.1875 12.9798 24.1875 9.5625C24.1875 6.14524 21.4173 3.375 18 3.375C14.5827 3.375 11.8125 6.14524 11.8125 9.5625C11.8125 12.9798 14.5827 15.75 18 15.75Z" fill="#00AB4E"/>
<path d="M14.0625 10.6875L16.3125 12.9375L21.9375 7.3125L20.8125 6.1875L16.3125 10.6875L15.1875 9.5625L14.0625 10.6875Z" fill="#F2F2F2"/>
</svg>
