<svg width="36" height="36" viewBox="0 0 36 36" fill="none" xmlns="http://www.w3.org/2000/svg">
<g clip-path="url(#clip0_164_13898)">
<path d="M18 36C27.514 36 35.2266 28.2874 35.2266 18.7734C35.2266 9.25947 27.514 1.54688 18 1.54688C8.48603 1.54688 0.773438 9.25947 0.773438 18.7734C0.773438 28.2874 8.48603 36 18 36Z" fill="#D4F2F6"/>
<path d="M10.9987 7.07188C10.9987 6.54053 11.0585 6.02289 11.1711 5.52515C10.2556 5.99624 9.38668 6.56247 8.58223 7.21883C5.97118 9.34944 4.14214 12.3264 3.43212 15.6013C3.34986 15.9808 3.59082 16.3552 3.97029 16.4375C4.34963 16.5198 4.72418 16.2789 4.80645 15.8993C5.44925 12.9343 7.10595 10.2385 9.47133 8.30847C9.95607 7.91296 10.467 7.55394 10.9987 7.23191V7.07188Z" fill="#00E368"/>
<path d="M33.8025 16.854H32.7829C32.1452 11.9156 29.0811 7.72747 24.8291 5.52655C24.9416 6.02387 25.0013 6.54102 25.0013 7.07188V7.23557C28.3744 9.29031 30.7806 12.7819 31.3629 16.854H30.4569C30.13 16.854 29.9428 17.2266 30.1378 17.4889L31.8106 19.7384C31.9696 19.9522 32.2898 19.9522 32.4488 19.7384L34.1216 17.4889C34.3167 17.2265 34.1295 16.854 33.8025 16.854Z" fill="#00E368"/>
<path d="M31.0431 17.4888C30.8481 17.2265 31.0352 16.8539 31.3622 16.8539H30.4569C30.13 16.8539 29.9428 17.2265 30.1378 17.4888L31.8106 19.7383C31.9696 19.9521 32.2898 19.9521 32.4488 19.7383L32.5823 19.5587L31.0431 17.4888Z" fill="#00BD56"/>
<path d="M6.0469 25.0416C5.34461 23.7075 4.85869 22.2424 4.63713 20.6932H5.57208C5.89896 20.6932 6.0862 20.3206 5.89115 20.0583L4.21835 17.8087C4.05937 17.5949 3.73917 17.5949 3.58019 17.8087L1.90739 20.0583C1.71234 20.3206 1.89951 20.6932 2.22647 20.6932H3.2171C3.55179 23.2845 4.55508 25.6689 6.0469 27.6685V25.0416Z" fill="#00E368"/>
<path d="M2.82145 20.0584L4.3563 17.9943L4.21835 17.8089C4.05937 17.595 3.73917 17.595 3.58019 17.8089L1.90739 20.0584C1.71234 20.3207 1.89951 20.6933 2.22647 20.6933H3.14053C2.81365 20.6932 2.6264 20.3207 2.82145 20.0584Z" fill="#00BD56"/>
<path d="M32.0297 21.1097C31.6503 21.0276 31.2758 21.2684 31.1935 21.6478C30.9362 22.8349 30.5159 23.9786 29.9531 25.0474V27.6755C31.2171 25.9785 32.1176 24.0222 32.5678 21.9458C32.6502 21.5663 32.4092 21.1919 32.0297 21.1097Z" fill="#00E368"/>
<path d="M25.1377 30.2319C23.0082 31.5567 20.5283 32.273 18.0001 32.273C15.3847 32.273 12.9411 31.5248 10.871 30.2319H8.47803C11.0624 32.3832 14.3825 33.6793 18.0001 33.6793C21.4247 33.6793 24.7692 32.4891 27.4178 30.328C27.4565 30.2963 27.4945 30.2639 27.5329 30.2319H25.1377Z" fill="#00E368"/>
<path d="M13.7952 10.2663V7.07161C13.7952 4.7532 15.6813 2.86699 17.9998 2.86699C20.3183 2.86699 22.2045 4.7532 22.2045 7.07161V10.2663H25.0714V7.07161C25.0714 3.17229 21.8992 0 17.9998 0C14.1005 0 10.9282 3.17229 10.9282 7.07161V10.2663H13.7952Z" fill="#00E368"/>
<path d="M22.2046 7.07199V10.2666H23.8657V7.07199C23.8657 4.75357 21.9796 2.86737 19.6611 2.86737C19.3768 2.86737 19.0992 2.89613 18.8306 2.95013C20.7525 3.33678 22.2046 5.03785 22.2046 7.07199Z" fill="#007F3A"/>
<path d="M12.5893 10.2663V7.07161C12.5893 3.45326 15.3211 0.461531 18.8304 0.0490078C18.5578 0.0170156 18.2808 0 17.9998 0C14.1005 0 10.9282 3.17229 10.9282 7.07161V10.2663H12.5893Z" fill="#005F2B"/>
<path d="M26.4104 10.1965H9.58914C9.04126 10.1965 8.59717 10.6406 8.59717 11.1884V22.2629H27.4024V11.1884C27.4024 10.6406 26.9583 10.1965 26.4104 10.1965Z" fill="#00AB4E"/>
<path d="M12.2586 22.2629V11.1884C12.2586 10.6406 12.7027 10.1965 13.2506 10.1965H9.58914C9.04133 10.1965 8.59717 10.6406 8.59717 11.1884V22.2629H12.2586Z" fill="#00803A"/>
<path d="M17.7041 21.6035C16.7925 21.6035 16.0509 20.8619 16.0509 19.9503V17.8162C15.2473 17.1674 14.8184 16.1627 14.9174 15.1128C15.0577 13.6245 16.2892 12.4244 17.7819 12.3214C17.8543 12.3164 17.9275 12.3138 17.9997 12.3138C19.7071 12.3138 21.096 13.7029 21.096 15.4102C21.096 16.3564 20.673 17.2316 19.9484 17.8163V19.9503C19.9484 20.8619 19.2068 21.6035 18.2952 21.6035H17.7041Z" fill="#FFD12D"/>
<path d="M20.1042 15.4098C20.1042 14.1982 19.0802 13.2257 17.8504 13.3107C16.8334 13.3809 16.0009 14.1906 15.9052 15.2056C15.8263 16.0414 16.2371 16.788 16.8836 17.1934C16.9812 17.2546 17.043 17.3591 17.043 17.4742V19.9499C17.043 20.3151 17.3391 20.6112 17.7043 20.6112H18.2954C18.6606 20.6112 18.9567 20.3151 18.9567 19.9499V17.476C18.9567 17.3599 19.0188 17.2544 19.1171 17.1927C19.7099 16.8205 20.1042 16.1614 20.1042 15.4098Z" fill="#3692BC"/>
<path d="M18.1251 19.951V17.4753C18.1251 17.3601 18.0632 17.2557 17.9657 17.1945C17.3191 16.7891 16.9084 16.0425 16.9872 15.2067C17.0703 14.3257 17.7087 13.5996 18.5408 13.3773C18.3225 13.3194 18.0905 13.2952 17.8504 13.3118C16.8334 13.382 16.0009 14.1917 15.9052 15.2067C15.8263 16.0425 16.2371 16.7891 16.8836 17.1945C16.9812 17.2557 17.043 17.3602 17.043 17.4753V19.951C17.043 20.3162 17.3391 20.6123 17.7043 20.6123H18.2954C18.3822 20.6123 18.4649 20.5952 18.5408 20.5647C18.2973 20.4672 18.1251 20.2294 18.1251 19.951Z" fill="#017297"/>
<path d="M28.9688 30.3026H7.03125C6.44878 30.3026 5.97656 29.8304 5.97656 29.2479V23.2467C5.97656 22.6642 6.44878 22.192 7.03125 22.192H28.9688C29.5512 22.192 30.0234 22.6642 30.0234 23.2467V29.2479C30.0234 29.8304 29.5512 30.3026 28.9688 30.3026Z" fill="#FF2400"/>
<path d="M12.1885 25.5168L12.73 25.2042C12.5978 25.0842 12.3984 25.0571 12.2354 25.1511L12.1885 25.1783V25.5168Z" fill="#D73D24"/>
<path d="M11.3447 25.5166V24.7852C11.3447 24.6662 11.3941 24.559 11.4734 24.4823C11.3974 24.4088 11.2942 24.3633 11.1802 24.3633C10.9472 24.3633 10.7583 24.5523 10.7583 24.7852V25.1781L11.3447 25.5166Z" fill="#D73D24"/>
<path d="M12.1885 26.9778V27.3163L12.2354 27.3435C12.3019 27.3818 12.3745 27.4001 12.446 27.4001C12.5498 27.4001 12.6512 27.3611 12.7294 27.2901L12.1885 26.9778Z" fill="#D73D24"/>
<path d="M11.3447 27.7092V26.9778L10.7583 27.3163V27.7092C10.7583 27.9421 10.9472 28.131 11.1802 28.131C11.2942 28.131 11.3974 28.0856 11.4734 28.0121C11.3941 27.9354 11.3447 27.8281 11.3447 27.7092Z" fill="#D73D24"/>
<path d="M10.1352 27.1896C10.0187 26.9878 10.0879 26.7298 10.2896 26.6133L10.923 26.2476L10.2896 25.8819C10.0878 25.7654 10.0187 25.5074 10.1352 25.3057C10.1576 25.2668 10.1855 25.233 10.217 25.2043L10.1251 25.1512C9.92334 25.0347 9.66523 25.1039 9.54879 25.3056C9.43235 25.5073 9.50147 25.7654 9.7032 25.8819L10.3366 26.2476L9.7032 26.6133C9.5014 26.7298 9.43228 26.9878 9.54879 27.1895C9.62691 27.3249 9.76873 27.4006 9.91456 27.4006C9.98613 27.4006 10.0587 27.3823 10.1251 27.344L10.2176 27.2906C10.1859 27.262 10.1577 27.2286 10.1352 27.1896Z" fill="#D73D24"/>
<path d="M15.5 25.5166V24.7852C15.5 24.6662 15.5494 24.559 15.6287 24.4823C15.5527 24.4088 15.4494 24.3633 15.3354 24.3633C15.1025 24.3633 14.9136 24.5523 14.9136 24.7852V25.1781L15.5 25.5166Z" fill="#D73D24"/>
<path d="M16.3438 25.5168L16.8852 25.2042C16.753 25.0842 16.5536 25.0571 16.3907 25.1511L16.3438 25.1783V25.5168Z" fill="#D73D24"/>
<path d="M16.3438 26.9778V27.3163L16.3907 27.3435C16.4572 27.3818 16.5297 27.4001 16.6013 27.4001C16.7051 27.4001 16.8065 27.3611 16.8847 27.2901L16.3438 26.9778Z" fill="#D73D24"/>
<path d="M15.5 27.7092V26.9778L14.9136 27.3163V27.7092C14.9136 27.9421 15.1025 28.131 15.3354 28.131C15.4495 28.131 15.5527 28.0856 15.6287 28.0121C15.5494 27.9354 15.5 27.8281 15.5 27.7092Z" fill="#D73D24"/>
<path d="M14.2905 27.1896C14.174 26.9878 14.2431 26.7298 14.4449 26.6133L15.0783 26.2476L14.4449 25.8819C14.2431 25.7654 14.174 25.5074 14.2905 25.3057C14.3129 25.2668 14.3407 25.233 14.3722 25.2043L14.2803 25.1512C14.0786 25.0347 13.8206 25.1039 13.7041 25.3056C13.5876 25.5074 13.6567 25.7654 13.8585 25.8819L14.4918 26.2476L13.8585 26.6133C13.6567 26.7298 13.5876 26.9878 13.7041 27.1895C13.7822 27.3249 13.924 27.4006 14.0698 27.4006C14.1414 27.4006 14.214 27.3823 14.2804 27.344L14.3729 27.2906C14.3412 27.262 14.313 27.2286 14.2905 27.1896Z" fill="#D73D24"/>
<path d="M19.6557 25.5166V24.7852C19.6557 24.6662 19.7052 24.559 19.7844 24.4823C19.7085 24.4088 19.6052 24.3633 19.4912 24.3633C19.2583 24.3633 19.0693 24.5523 19.0693 24.7852V25.1781L19.6557 25.5166Z" fill="#D73D24"/>
<path d="M18.4462 27.1896C18.3297 26.9878 18.3989 26.7298 18.6006 26.6133L19.234 26.2476L18.6006 25.8819C18.3988 25.7654 18.3297 25.5074 18.4462 25.3057C18.4687 25.2668 18.4965 25.233 18.528 25.2043L18.4361 25.1512C18.2343 25.0347 17.9763 25.1039 17.8598 25.3056C17.7433 25.5074 17.8125 25.7654 18.0142 25.8819L18.6476 26.2476L18.0142 26.6133C17.8124 26.7298 17.7433 26.9878 17.8598 27.1895C17.9379 27.3249 18.0798 27.4006 18.2256 27.4006C18.2972 27.4006 18.3697 27.3823 18.4362 27.344L18.5286 27.2906C18.497 27.262 18.4687 27.2286 18.4462 27.1896Z" fill="#D73D24"/>
<path d="M20.4995 25.5168L21.0411 25.2042C20.9089 25.0842 20.7095 25.0571 20.5466 25.1511L20.4995 25.1783V25.5168Z" fill="#D73D24"/>
<path d="M20.4995 26.9778V27.3163L20.5466 27.3435C20.613 27.3818 20.6856 27.4001 20.7571 27.4001C20.8609 27.4001 20.9623 27.3611 21.0405 27.2901L20.4995 26.9778Z" fill="#D73D24"/>
<path d="M19.6557 27.7092V26.9778L19.0693 27.3163V27.7092C19.0693 27.9421 19.2583 28.131 19.4912 28.131C19.6053 28.131 19.7085 28.0856 19.7844 28.0121C19.7052 27.9354 19.6557 27.8281 19.6557 27.7092Z" fill="#D73D24"/>
<path d="M23.811 25.5166V24.7852C23.811 24.6662 23.8604 24.559 23.9397 24.4823C23.8638 24.4088 23.7605 24.3633 23.6465 24.3633C23.4135 24.3633 23.2246 24.5523 23.2246 24.7852V25.1781L23.811 25.5166Z" fill="#D73D24"/>
<path d="M24.6548 25.5168L25.1963 25.2042C25.0641 25.0842 24.8647 25.0571 24.7018 25.1511L24.6548 25.1783V25.5168Z" fill="#D73D24"/>
<path d="M24.6548 26.9778V27.3163L24.7018 27.3435C24.7683 27.3818 24.8408 27.4001 24.9124 27.4001C25.0162 27.4001 25.1176 27.3611 25.1958 27.2901L24.6548 26.9778Z" fill="#D73D24"/>
<path d="M22.6015 27.1896C22.485 26.9878 22.5542 26.7297 22.7559 26.6133L23.3893 26.2476L22.7559 25.8819C22.5541 25.7654 22.485 25.5073 22.6015 25.3056C22.6239 25.2667 22.6518 25.2329 22.6833 25.2043L22.5914 25.1512C22.3897 25.0347 22.1316 25.1039 22.0151 25.3056C21.8986 25.5074 21.9678 25.7654 22.1695 25.8819L22.8029 26.2476L22.1695 26.6133C21.9677 26.7298 21.8986 26.9878 22.0151 27.1896C22.0932 27.3249 22.235 27.4006 22.3809 27.4006C22.4524 27.4006 22.525 27.3823 22.5914 27.344L22.6839 27.2906C22.6523 27.2619 22.624 27.2285 22.6015 27.1896Z" fill="#D73D24"/>
<path d="M23.811 27.7092V26.9778L23.2246 27.3163V27.7092C23.2246 27.9421 23.4135 28.131 23.6465 28.131C23.7605 28.131 23.8638 28.0856 23.9397 28.0121C23.8604 27.9354 23.811 27.8281 23.811 27.7092Z" fill="#D73D24"/>
<path d="M9.35156 29.2479V23.2467C9.35156 22.6642 9.82378 22.192 10.4062 22.192H7.03125C6.44878 22.192 5.97656 22.6642 5.97656 23.2467V29.2479C5.97656 29.8304 6.44878 30.3026 7.03125 30.3026H10.4062C9.82378 30.3026 9.35156 29.8304 9.35156 29.2479Z" fill="#AE1800"/>
<path d="M13.3983 25.3053C13.2818 25.1036 13.0238 25.0343 12.8221 25.1509L12.1887 25.5166V24.7852C12.1887 24.5523 11.9998 24.3633 11.7668 24.3633C11.5339 24.3633 11.3449 24.5523 11.3449 24.7852V25.5166L10.7115 25.1509C10.5098 25.0344 10.2517 25.1036 10.1352 25.3053C10.0188 25.507 10.0879 25.7651 10.2896 25.8816L10.923 26.2473L10.2896 26.613C10.0878 26.7295 10.0187 26.9875 10.1352 27.1893C10.2133 27.3246 10.3552 27.4003 10.501 27.4003C10.5726 27.4003 10.6451 27.3821 10.7116 27.3437L11.345 26.978V27.7094C11.345 27.9423 11.5339 28.1312 11.7669 28.1312C11.9998 28.1312 12.1888 27.9423 12.1888 27.7094V26.978L12.8221 27.3437C12.8886 27.382 12.9611 27.4003 13.0327 27.4003C13.1785 27.4003 13.3203 27.3246 13.3985 27.1893C13.515 26.9875 13.4458 26.7294 13.2441 26.613L12.6107 26.2473L13.2441 25.8816C13.4457 25.7652 13.5148 25.5071 13.3983 25.3053Z" fill="white"/>
<path d="M17.5536 25.3053C17.4371 25.1036 17.1791 25.0343 16.9773 25.1509L16.344 25.5166V24.7852C16.344 24.5523 16.155 24.3633 15.9221 24.3633C15.6891 24.3633 15.5002 24.5523 15.5002 24.7852V25.5166L14.8668 25.1509C14.665 25.0344 14.407 25.1036 14.2905 25.3053C14.174 25.5071 14.2432 25.7651 14.4449 25.8816L15.0783 26.2473L14.4449 26.613C14.2431 26.7295 14.174 26.9875 14.2905 27.1893C14.3686 27.3246 14.5104 27.4003 14.6563 27.4003C14.7278 27.4003 14.8004 27.3821 14.8668 27.3437L15.5003 26.978V27.7094C15.5003 27.9423 15.6892 28.1312 15.9222 28.1312C16.1551 28.1312 16.344 27.9423 16.344 27.7094V26.978L16.9774 27.3437C17.0439 27.382 17.1164 27.4003 17.188 27.4003C17.3338 27.4003 17.4756 27.3246 17.5538 27.1893C17.6703 26.9875 17.6011 26.7294 17.3994 26.613L16.766 26.2473L17.3994 25.8816C17.6009 25.7652 17.6701 25.5071 17.5536 25.3053Z" fill="white"/>
<path d="M21.7094 25.3053C21.5929 25.1036 21.3348 25.0343 21.1331 25.1509L20.4997 25.5166V24.7852C20.4997 24.5523 20.3107 24.3633 20.0778 24.3633C19.8448 24.3633 19.6559 24.5523 19.6559 24.7852V25.5166L19.0225 25.1509C18.8207 25.0344 18.5628 25.1036 18.4463 25.3053C18.3297 25.5071 18.3989 25.7651 18.6007 25.8816L19.234 26.2473L18.6007 26.613C18.3989 26.7295 18.3297 26.9875 18.4463 27.1893C18.5244 27.3246 18.6662 27.4003 18.812 27.4003C18.8836 27.4003 18.9562 27.3821 19.0226 27.3437L19.656 26.978V27.7094C19.656 27.9423 19.8449 28.1312 20.0779 28.1312C20.3108 28.1312 20.4997 27.9423 20.4997 27.7094V26.978L21.1332 27.3437C21.1996 27.382 21.2722 27.4003 21.3438 27.4003C21.4895 27.4003 21.6313 27.3246 21.7095 27.1893C21.826 26.9875 21.7568 26.7294 21.5551 26.613L20.9217 26.2473L21.5551 25.8816C21.7567 25.7652 21.8259 25.5071 21.7094 25.3053Z" fill="white"/>
<path d="M25.7102 26.6131L25.0769 26.2474L25.7102 25.8817C25.912 25.7652 25.9812 25.5071 25.8647 25.3054C25.7481 25.1037 25.4901 25.0344 25.2884 25.151L24.6549 25.5167V24.7853C24.6549 24.5523 24.466 24.3634 24.2331 24.3634C24.0001 24.3634 23.8112 24.5523 23.8112 24.7853V25.5167L23.1778 25.151C22.9761 25.0345 22.718 25.1037 22.6015 25.3054C22.485 25.5072 22.5542 25.7652 22.7559 25.8817L23.3893 26.2474L22.7559 26.6131C22.5541 26.7296 22.485 26.9876 22.6015 27.1893C22.6796 27.3247 22.8215 27.4003 22.9673 27.4003C23.0389 27.4003 23.1114 27.3821 23.1779 27.3437L23.8112 26.978V27.7094C23.8112 27.9424 24.0002 28.1313 24.2331 28.1313C24.4661 28.1313 24.655 27.9424 24.655 27.7094V26.978L25.2884 27.3437C25.3549 27.3821 25.4275 27.4003 25.499 27.4003C25.6448 27.4003 25.7866 27.3247 25.8648 27.1893C25.9812 26.9875 25.912 26.7295 25.7102 26.6131Z" fill="white"/>
</g>
<defs>
<clipPath id="clip0_164_13898">
<rect width="36" height="36" fill="white"/>
</clipPath>
</defs>
</svg>
