<svg width="36" height="36" viewBox="0 0 36 36" fill="none" xmlns="http://www.w3.org/2000/svg">
<path d="M18 8.2533C16.2785 8.25333 14.5945 8.75566 13.1543 9.69869C11.7141 10.6417 10.5804 11.9845 9.89213 13.5623C9.20385 15.1402 8.99091 16.8846 9.27942 18.5817C9.56794 20.2788 10.3454 21.8549 11.5164 23.1167L10.6014 26.5302C10.5473 26.7317 10.5542 26.9447 10.6212 27.1423C10.6882 27.3399 10.8123 27.5132 10.9778 27.6403C11.1433 27.7673 11.3428 27.8424 11.551 27.8561C11.7592 27.8697 11.9668 27.8213 12.1475 27.717L15.7271 25.6498C16.9434 25.9731 18.2147 26.0332 19.4561 25.8261C20.6975 25.6189 21.8804 25.1493 22.9258 24.4485C23.9712 23.7477 24.855 22.832 25.5183 21.7624C26.1816 20.6928 26.609 19.494 26.7721 18.2461C26.9351 16.9982 26.83 15.7298 26.4638 14.5257C26.0976 13.3216 25.4787 12.2095 24.6484 11.2637C23.8181 10.3179 22.7956 9.56012 21.6491 9.04098C20.5026 8.52185 19.2585 8.25331 18 8.2533Z" fill="#00D461"/>
<path d="M18 8.2533V25.9446C20.346 25.9446 22.5959 25.0126 24.2548 23.3537C25.9137 21.6949 26.8456 19.4449 26.8456 17.0989C26.8456 14.7529 25.9137 12.503 24.2548 10.8441C22.5959 9.18524 20.346 8.2533 18 8.2533Z" fill="#00A34A"/>
<path d="M35.4234 17.8503C35.4348 17.4199 35.4467 16.9748 35.427 16.5086C35.3686 15.2116 34.8105 13.9875 33.8697 13.0928C32.9289 12.1981 31.6783 11.7022 30.38 11.709C28.2946 6.93813 23.5307 3.59534 17.9999 3.59534C12.4691 3.59534 7.70526 6.93813 5.62007 11.709C4.3214 11.702 3.07046 12.1981 2.12953 13.0932C1.1886 13.9883 0.630758 15.213 0.572973 16.5104C0.553355 16.9745 0.565238 17.4199 0.576699 17.8503C0.588863 18.3073 0.601449 18.7801 0.578949 19.31C0.523856 20.6391 0.997824 21.9359 1.89702 22.9163C2.79622 23.8967 4.04734 24.4807 5.3763 24.5404C5.44985 24.5436 5.52321 24.5452 5.59638 24.5452C6.23186 24.5456 6.86157 24.4246 7.45164 24.1887C7.60162 24.1419 7.73926 24.0622 7.8545 23.9554C7.96973 23.8486 8.05965 23.7175 8.1177 23.5715C8.17574 23.4255 8.20043 23.2684 8.18997 23.1116C8.17951 22.9548 8.13417 22.8024 8.05725 22.6654C7.10518 20.9646 6.60542 19.048 6.60578 17.0989C6.60578 10.8162 11.7175 5.70478 17.9999 5.70478C24.2823 5.70478 29.3941 10.8165 29.3941 17.0989C29.4019 19.7584 28.4761 22.3362 26.7781 24.3829C25.08 26.4297 22.7174 27.8156 20.1023 28.2989C19.8269 27.6753 19.3423 27.1676 18.7322 26.8635C18.1222 26.5593 17.4251 26.4779 16.7614 26.6332C16.0976 26.7885 15.5091 27.1708 15.0973 27.7141C14.6856 28.2573 14.4766 28.9274 14.5065 29.6083C14.5363 30.2893 14.8032 30.9385 15.2609 31.4436C15.7186 31.9487 16.3384 32.278 17.0132 32.3746C17.688 32.4713 18.3753 32.3291 18.9563 31.9727C19.5374 31.6163 19.9757 31.0681 20.1954 30.4229C22.0531 30.1157 23.8262 29.424 25.4011 28.392C26.976 27.3601 28.3181 26.0106 29.3413 24.4301C29.6903 24.5063 30.0465 24.5449 30.4037 24.5452C30.4771 24.5452 30.5506 24.5436 30.6243 24.5404C31.9531 24.4805 33.2039 23.8965 34.1029 22.9162C35.0019 21.9359 35.4758 20.6393 35.4208 19.3104C35.3985 18.7802 35.411 18.3075 35.4234 17.8503Z" fill="#00D561"/>
<path d="M35.4235 17.8506C35.435 17.4203 35.4468 16.9752 35.4272 16.509C35.3675 15.18 34.7834 13.9289 33.8029 13.0299C32.8224 12.1308 31.5255 11.6571 30.1963 11.7126C29.9664 11.723 29.7375 11.7489 29.5111 11.7899C29.3595 11.8169 29.2156 11.8767 29.0896 11.9652C28.9636 12.0537 28.8585 12.1687 28.7817 12.3022C28.7048 12.4356 28.6582 12.5843 28.6449 12.7377C28.6317 12.8911 28.6522 13.0455 28.7051 13.1902C29.2666 14.7317 29.4891 16.3762 29.3575 18.0116C29.2258 19.6469 28.7431 21.2347 27.9423 22.6666C27.8655 22.8035 27.8203 22.9559 27.8099 23.1126C27.7996 23.2693 27.8243 23.4263 27.8824 23.5722C27.9405 23.7181 28.0304 23.8492 28.1456 23.9559C28.2608 24.0626 28.3984 24.1423 28.5483 24.189C29.1385 24.425 29.7683 24.546 30.4039 24.5455C30.4773 24.5455 30.5508 24.5439 30.6245 24.5408C31.9532 24.4809 33.204 23.8968 34.103 22.9165C35.002 21.9363 35.476 20.6397 35.421 19.3107C35.3986 18.7806 35.4111 18.3078 35.4235 17.8506Z" fill="#00AB4E"/>
<path d="M28.7141 13.2207C28.7108 13.2104 28.7085 13.1996 28.7048 13.1895C28.652 13.0449 28.6314 12.8905 28.6447 12.7371C28.6579 12.5836 28.7046 12.435 28.7814 12.3015C28.8582 12.1681 28.9633 12.0531 29.0893 11.9646C29.2153 11.8761 29.3592 11.8162 29.5108 11.7893C29.7372 11.7482 29.9662 11.7224 30.1961 11.7119C30.2576 11.7093 30.3188 11.7091 30.3799 11.7087C28.2947 6.93813 23.5309 3.59541 18 3.59534V5.70471C22.9219 5.70478 27.1242 8.84156 28.7141 13.2207Z" fill="#00A34A"/>
<path d="M8.05725 22.666C7.25656 21.2341 6.77401 19.6465 6.64249 18.0112C6.51097 16.3759 6.73358 14.7316 7.29513 13.1901C7.34796 13.0455 7.36849 12.891 7.35526 12.7376C7.34203 12.5842 7.29536 12.4356 7.21855 12.3021C7.14173 12.1687 7.03663 12.0536 6.91061 11.9651C6.7846 11.8766 6.64074 11.8168 6.48914 11.7899C6.26193 11.7487 6.03222 11.7229 5.80155 11.7125C4.47239 11.6574 3.1756 12.1316 2.19549 13.0311C1.21537 13.9306 0.631895 15.182 0.572973 16.511C0.553355 16.975 0.565238 17.4205 0.576699 17.8509C0.588863 18.3079 0.601449 18.7807 0.578949 19.3105C0.523856 20.6397 0.997824 21.9365 1.89702 22.9169C2.79622 23.8973 4.04734 24.4813 5.3763 24.541C5.44985 24.5442 5.52321 24.5458 5.59638 24.5458C6.23186 24.5462 6.86157 24.4252 7.45164 24.1892C7.60163 24.1425 7.73926 24.0628 7.8545 23.956C7.96973 23.8492 8.05965 23.718 8.1177 23.572C8.17574 23.4261 8.20043 23.2689 8.18997 23.1122C8.17951 22.9554 8.13417 22.803 8.05725 22.666Z" fill="#00AB4E"/>
<path d="M6.60562 17.0995C6.60408 15.766 6.83733 14.4427 7.29468 13.1901C7.34752 13.0455 7.36804 12.891 7.35481 12.7376C7.34158 12.5842 7.29492 12.4356 7.2181 12.3021C7.14128 12.1687 7.03618 12.0536 6.91017 11.9651C6.78415 11.8766 6.64029 11.8168 6.48869 11.7899C6.26148 11.7487 6.03177 11.7229 5.8011 11.7125C5.51535 11.7007 5.2291 11.7132 4.94547 11.75C4.22351 12.8392 3.81934 14.1081 3.77828 15.4143C3.75642 16.0109 3.76963 16.5825 3.78243 17.1354C3.796 17.7225 3.81006 18.3297 3.78496 19.0102C3.70192 21.2579 4.63413 23.2903 6.11203 24.5184C6.57159 24.4711 7.02236 24.3603 7.45148 24.1891C7.60146 24.1423 7.73909 24.0626 7.85433 23.9559C7.96957 23.8491 8.05949 23.7179 8.11753 23.5719C8.17557 23.4259 8.20027 23.2688 8.18981 23.112C8.17935 22.9553 8.134 22.8028 8.05708 22.6659C7.10505 20.9651 6.6053 19.0486 6.60562 17.0995Z" fill="#007837"/>
<path d="M29.3941 17.0995C29.3956 15.766 29.1624 14.4427 28.705 13.1901C28.6522 13.0455 28.6317 12.891 28.6449 12.7376C28.6581 12.5842 28.7048 12.4356 28.7816 12.3021C28.8584 12.1687 28.9635 12.0536 29.0895 11.9651C29.2155 11.8766 29.3594 11.8168 29.511 11.7899C29.7382 11.7487 29.968 11.7229 30.1987 11.7125C30.4844 11.7007 30.7706 11.7132 31.0542 11.75C31.7762 12.8392 32.1804 14.1081 32.2214 15.4143C32.2433 16.0109 32.2301 16.5825 32.2173 17.1354C32.2037 17.7225 32.1897 18.3297 32.2147 19.0102C32.2983 21.2576 31.3661 23.29 29.8883 24.5183C29.4287 24.471 28.9779 24.3602 28.5488 24.189C28.3988 24.1423 28.2612 24.0626 28.1459 23.9558C28.0307 23.849 27.9408 23.7178 27.8827 23.5718C27.8247 23.4258 27.8 23.2687 27.8104 23.112C27.8209 22.9552 27.8663 22.8028 27.9432 22.6658C28.895 20.965 29.3945 19.0485 29.3941 17.0995Z" fill="#007837"/>
<path d="M14.4864 18.1535C14.2067 18.1538 13.9383 18.0429 13.7403 17.8453C13.5423 17.6477 13.4309 17.3796 13.4307 17.0998C13.4304 16.8201 13.5413 16.5517 13.7389 16.3538C13.9365 16.1558 14.2046 16.0444 14.4843 16.0441H14.4864C14.7661 16.0441 15.0344 16.1552 15.2321 16.353C15.4299 16.5508 15.5411 16.8191 15.5411 17.0988C15.5411 17.3785 15.4299 17.6468 15.2321 17.8446C15.0344 18.0424 14.7661 18.1535 14.4864 18.1535Z" fill="#E6E9F2"/>
<path d="M18 18.1542C17.9653 18.1544 17.9305 18.1527 17.8959 18.1492C17.8617 18.1459 17.8277 18.1407 17.794 18.1339C17.7602 18.1268 17.7265 18.1184 17.6934 18.1085C17.6605 18.0985 17.6281 18.0868 17.5964 18.0734C17.5645 18.0606 17.5332 18.046 17.5029 18.0298C17.4727 18.0136 17.4431 17.9953 17.4143 17.9763C17.3856 17.9573 17.3579 17.9369 17.3313 17.9152C17.3046 17.8934 17.2786 17.8694 17.254 17.8456C17.2294 17.8217 17.2062 17.7949 17.1844 17.7682C17.1626 17.7416 17.1422 17.7139 17.1232 17.6853C17.1042 17.6564 17.0859 17.6269 17.0698 17.5967C17.0536 17.5664 17.0395 17.5348 17.0262 17.5031C17.0128 17.4714 17.0011 17.439 16.991 17.4061C16.9812 17.373 16.9727 17.3392 16.9657 17.3055C16.9587 17.2717 16.9538 17.2374 16.9502 17.2036C16.9468 17.169 16.9452 17.1343 16.9453 17.0996C16.9452 17.065 16.9468 17.0305 16.9502 16.9962C16.9538 16.9617 16.9594 16.9273 16.9657 16.8935C16.972 16.8598 16.9812 16.826 16.991 16.7937C17.0009 16.7605 17.0127 16.7279 17.0262 16.696C17.0395 16.6643 17.0543 16.6334 17.0698 16.6031C17.0861 16.5725 17.1039 16.5427 17.1232 16.5139C17.1422 16.4857 17.1626 16.4576 17.1844 16.4309C17.2062 16.4042 17.2301 16.3781 17.254 16.3535C17.2779 16.3289 17.3046 16.3064 17.3313 16.284C17.3581 16.2629 17.3855 16.2418 17.4143 16.2228C17.4431 16.2038 17.4727 16.1863 17.5029 16.1701C17.5331 16.1539 17.5648 16.1392 17.5964 16.1258C17.6282 16.1127 17.6605 16.1011 17.6934 16.0913C17.7595 16.0713 17.8273 16.0577 17.8959 16.0506C17.9649 16.0435 18.0344 16.0435 18.1034 16.0506C18.1379 16.0536 18.1722 16.0587 18.206 16.066C18.2398 16.0723 18.2732 16.0807 18.3059 16.0913C18.339 16.1011 18.3716 16.1127 18.4036 16.1258C18.4352 16.1392 18.4662 16.1539 18.4964 16.1701C18.5268 16.1862 18.5564 16.2038 18.585 16.2228C18.6138 16.2418 18.642 16.2629 18.6687 16.284C18.6954 16.3064 18.7214 16.3297 18.7453 16.3535C18.7692 16.3774 18.7931 16.4042 18.8156 16.4309C18.8367 16.4576 18.8578 16.4857 18.8768 16.5139C18.8959 16.5427 18.9135 16.5725 18.9295 16.6031C18.9457 16.6334 18.9605 16.6643 18.9738 16.696C18.9872 16.7276 18.9984 16.7606 19.009 16.7937C19.0195 16.8268 19.0273 16.8598 19.0343 16.8935C19.0413 16.9273 19.0463 16.9617 19.0498 16.9962C19.0533 17.0306 19.0547 17.0651 19.0547 17.0996C19.0547 17.134 19.0526 17.1692 19.0498 17.2036C19.047 17.2381 19.0406 17.2717 19.0343 17.3055C19.028 17.3392 19.0188 17.373 19.009 17.4061C18.9991 17.4392 18.9872 17.4715 18.9738 17.5031C18.9605 17.5348 18.9457 17.5664 18.9295 17.5967C18.9134 17.6269 18.8958 17.6564 18.8768 17.6853C18.8578 17.7141 18.8367 17.7415 18.8156 17.7682C18.7931 17.7949 18.7699 17.821 18.7453 17.8456C18.7207 17.8702 18.6954 17.8934 18.6687 17.9152C18.6418 17.9369 18.6139 17.9573 18.585 17.9763C18.5564 17.9956 18.5268 18.0135 18.4964 18.0298C18.4663 18.046 18.4353 18.0606 18.4036 18.0734C18.3716 18.0868 18.339 18.0985 18.3059 18.1085C18.2735 18.1184 18.2398 18.1268 18.206 18.1339C18.1721 18.1408 18.1378 18.1459 18.1034 18.1492C18.069 18.1527 18.0345 18.1544 18 18.1542Z" fill="#E6E9F2"/>
<path d="M19.0344 16.8935C19.0273 16.8598 19.0189 16.826 19.0091 16.7937C18.9992 16.7614 18.9873 16.7276 18.9739 16.696C18.9605 16.6643 18.9458 16.6334 18.9296 16.6031C18.9135 16.5725 18.8959 16.5427 18.8769 16.5139C18.8579 16.4857 18.8368 16.4576 18.8157 16.4309C18.7932 16.4042 18.77 16.3781 18.7454 16.3535C18.7208 16.3289 18.6955 16.3065 18.6687 16.284C18.642 16.2629 18.6139 16.2418 18.5851 16.2228C18.5565 16.2038 18.5269 16.1862 18.4965 16.1701C18.4662 16.1539 18.4353 16.1392 18.4037 16.1258C18.3717 16.1127 18.3391 16.1011 18.3059 16.0913C18.2732 16.0807 18.2399 16.0723 18.2061 16.066C18.1722 16.0587 18.1379 16.0536 18.1034 16.0506C18.0691 16.047 18.0345 16.0453 18 16.0453V18.1543C18.0345 18.1544 18.069 18.1528 18.1034 18.1493C18.1378 18.146 18.1721 18.1409 18.206 18.1339C18.2398 18.1269 18.2735 18.1185 18.3059 18.1086C18.339 18.0986 18.3716 18.0868 18.4036 18.0735C18.4353 18.0606 18.4663 18.0461 18.4964 18.0299C18.5268 18.0136 18.5564 17.9957 18.585 17.9764C18.6138 17.9574 18.642 17.937 18.6687 17.9152C18.6954 17.8935 18.7214 17.8695 18.7453 17.8456C18.7692 17.8218 18.7931 17.7949 18.8156 17.7683C18.8367 17.7416 18.8578 17.7142 18.8768 17.6853C18.8958 17.6565 18.9134 17.627 18.9295 17.5967C18.9457 17.5665 18.9605 17.5349 18.9738 17.5032C18.9872 17.4716 18.9984 17.4385 19.009 17.4062C19.0195 17.3738 19.0273 17.3393 19.0343 17.3056C19.0413 17.2718 19.0462 17.2374 19.0498 17.2037C19.0533 17.1699 19.0547 17.1341 19.0547 17.0996C19.0547 17.0652 19.0526 17.0307 19.0498 16.9963C19.047 16.9618 19.0406 16.9273 19.0344 16.8935Z" fill="#CFD7E6"/>
<path d="M21.5156 18.1535C21.2359 18.1538 20.9675 18.0429 20.7696 17.8453C20.5716 17.6477 20.4602 17.3795 20.46 17.0998C20.4597 16.8201 20.5706 16.5517 20.7682 16.3537C20.9658 16.1558 21.2339 16.0444 21.5137 16.0441H21.5156C21.7954 16.0441 22.0636 16.1552 22.2614 16.353C22.4592 16.5508 22.5703 16.8191 22.5703 17.0988C22.5703 17.3785 22.4592 17.6468 22.2614 17.8446C22.0636 18.0424 21.7954 18.1535 21.5156 18.1535Z" fill="#CFD7E6"/>
<path d="M18.1034 32.3144C19.6748 31.9429 20.6475 30.368 20.2761 28.7966C19.9046 27.2252 18.3297 26.2525 16.7583 26.624C15.1869 26.9954 14.2142 28.5703 14.5856 30.1417C14.9571 31.7131 16.532 32.6858 18.1034 32.3144Z" fill="#00AB4E"/>
<path d="M17.4282 26.5556V32.4041C18.2038 32.4041 18.9476 32.096 19.496 31.5476C20.0444 30.9992 20.3524 30.2554 20.3524 29.4798C20.3524 28.7043 20.0444 27.9605 19.496 27.4121C18.9476 26.8637 18.2038 26.5556 17.4282 26.5556Z" fill="#007837"/>
<path d="M28.5485 24.1896C28.4098 24.1463 28.2815 24.0749 28.1718 23.9798C28.062 23.8846 27.973 23.7678 27.9105 23.6367C27.848 23.5056 27.8132 23.363 27.8084 23.2178C27.8036 23.0726 27.8288 22.928 27.8825 22.793C27.0631 24.2206 25.9428 25.4526 24.5993 26.4036C23.2558 27.3546 21.7213 28.0016 20.1025 28.2998C20.4 28.9708 20.4333 29.7295 20.1956 30.424C22.0533 30.1168 23.8264 29.4251 25.4014 28.3931C26.9763 27.3611 28.3183 26.0116 29.3416 24.431C29.0711 24.3724 28.8058 24.2916 28.5485 24.1896Z" fill="#00A34A"/>
</svg>
