<svg width="36" height="36" viewBox="0 0 36 36" fill="none" xmlns="http://www.w3.org/2000/svg">
<path d="M30.9412 9.25007V25.0284C30.9412 27.1627 29.2046 28.8993 27.0702 28.8993H19.9382L15.4706 32.0155L9.99376 35.8364V28.8993H3.87098C1.73662 28.8993 0 27.1627 0 25.0284V9.25007C0 7.11492 1.73662 5.37909 3.87098 5.37909H27.0702C29.2046 5.37909 30.9412 7.11492 30.9412 9.25007Z" fill="#00C158"/>
<path d="M30.9413 9.25007V25.0284C30.9413 27.1627 29.2047 28.8993 27.0703 28.8993H19.9383L15.4707 32.0155V5.37909H27.0703C29.2047 5.37909 30.9413 7.11492 30.9413 9.25007Z" fill="#00893E"/>
<path d="M35.1206 5.28767L19.6597 20.7486L15.2334 20.9308L15.4155 16.5044L30.8765 1.04353C32.0485 -0.128485 33.9492 -0.129033 35.1212 1.04299C35.707 1.62872 36.0004 2.3972 35.9999 3.16505C35.9998 3.93353 35.7064 4.70194 35.1206 5.28767Z" fill="#FF0000"/>
<path d="M5.38818 11.3998H15.4704V13.7487H5.38818V11.3998Z" fill="white"/>
<path d="M5.38818 15.9584H15.4704V18.3073H5.38818V15.9584Z" fill="white"/>
<path d="M5.38818 20.5181H25.4986V22.867H5.38818V20.5181Z" fill="white"/>
<path d="M35.1206 5.28784L19.6597 20.7488L15.2334 20.9309L35.1212 1.04315C35.7069 1.62889 36.0004 2.39737 35.9998 3.16522C35.9998 3.9337 35.7064 4.7021 35.1206 5.28784Z" fill="#FE5A5A"/>
<path d="M20.6879 19.7202L19.6598 20.7483L15.2334 20.9305L15.4155 16.5041L16.4436 15.476L20.6879 19.7202Z" fill="#373077"/>
<path d="M20.6879 19.7203L19.6598 20.7484L15.2334 20.9306L18.5657 17.5982L20.6879 19.7203Z" fill="#060730"/>
<path d="M15.4707 20.5186H25.4989V22.8674H15.4707V20.5186Z" fill="white"/>
</svg>
