<svg width="36" height="36" viewBox="0 0 36 36" fill="none" xmlns="http://www.w3.org/2000/svg">
<path d="M14.505 16.875H12.87C9.95516 16.879 7.16085 18.0386 5.09974 20.0997C3.03864 22.1608 1.87897 24.9552 1.875 27.87V28.695C1.87895 29.6645 2.26582 30.5931 2.95135 31.2786C3.63688 31.9642 4.56552 32.3511 5.535 32.355H21.84C22.8095 32.3511 23.7381 31.9642 24.4236 31.2786C25.1092 30.5931 25.4961 29.6645 25.5 28.695V27.87C25.496 24.9552 24.3364 22.1608 22.2753 20.0997C20.2142 18.0386 17.4198 16.879 14.505 16.875Z" fill="#0DB561"/>
<path d="M13.6951 19.5C18.558 19.5 22.5001 15.5579 22.5001 10.695C22.5001 5.83215 18.558 1.89001 13.6951 1.89001C8.83227 1.89001 4.89014 5.83215 4.89014 10.695C4.89014 15.5579 8.83227 19.5 13.6951 19.5Z" fill="#145638"/>
<path d="M27 34.125C30.935 34.125 34.125 30.935 34.125 27C34.125 23.065 30.935 19.875 27 19.875C23.065 19.875 19.875 23.065 19.875 27C19.875 30.935 23.065 34.125 27 34.125Z" fill="#FFCB27"/>
<path d="M30 28.125H24C23.7016 28.125 23.4155 28.0065 23.2045 27.7955C22.9935 27.5845 22.875 27.2984 22.875 27C22.875 26.7016 22.9935 26.4155 23.2045 26.2045C23.4155 25.9935 23.7016 25.875 24 25.875H30C30.2984 25.875 30.5845 25.9935 30.7955 26.2045C31.0065 26.4155 31.125 26.7016 31.125 27C31.125 27.2984 31.0065 27.5845 30.7955 27.7955C30.5845 28.0065 30.2984 28.125 30 28.125Z" fill="white"/>
<path d="M27 31.125C26.7028 31.1211 26.4189 31.0013 26.2088 30.7912C25.9987 30.5811 25.8789 30.2972 25.875 30V24C25.875 23.7016 25.9935 23.4155 26.2045 23.2045C26.4155 22.9935 26.7016 22.875 27 22.875C27.2984 22.875 27.5845 22.9935 27.7955 23.2045C28.0065 23.4155 28.125 23.7016 28.125 24V30C28.1211 30.2972 28.0013 30.5811 27.7912 30.7912C27.5811 31.0013 27.2972 31.1211 27 31.125Z" fill="white"/>
</svg>
