<svg width="36" height="36" viewBox="0 0 36 36" fill="none" xmlns="http://www.w3.org/2000/svg">
<path d="M17.9997 20.1843C19.8271 20.1843 21.3138 18.6976 21.3138 16.8702V3.31397C21.3138 1.48669 19.8271 0 17.9997 0C16.1723 0 14.6855 1.48669 14.6855 3.31404V16.8703C14.6855 18.6976 16.1723 20.1843 17.9997 20.1843Z" fill="#FF4646"/>
<path d="M29.1554 9.15439C29.1468 9.14518 29.1383 9.13618 29.1302 9.12824C28.5043 8.50239 27.672 8.15771 26.787 8.15771C25.9017 8.15771 25.0695 8.50232 24.4436 9.12824C23.8175 9.75416 23.4728 10.5864 23.4729 11.4718C23.4731 12.3427 23.8068 13.1624 24.4139 13.7848C24.4235 13.7952 24.4332 13.8054 24.4434 13.8155C26.1645 15.5366 27.1123 17.8249 27.1123 20.2591C27.1123 25.2837 23.0245 29.3716 17.9998 29.3716C12.9752 29.3716 8.88729 25.2837 8.88729 20.2591C8.88729 17.8248 9.8351 15.5365 11.5563 13.8155C12.8481 12.5236 12.8483 10.4211 11.556 9.12852C10.9299 8.50274 10.0977 8.15807 9.21262 8.15807C8.32753 8.15807 7.49531 8.50274 6.86953 9.12873C3.8965 12.1018 2.25928 16.0546 2.25928 20.2591C2.25928 24.4635 3.8965 28.4163 6.86953 31.3894C9.84255 34.3625 13.7953 35.9997 17.9998 35.9997C22.2043 35.9997 26.1572 34.3624 29.13 31.3894C32.1031 28.4164 33.7403 24.4635 33.7403 20.2591C33.7403 16.0671 32.1124 12.1244 29.1554 9.15439Z" fill="#FF4646"/>
<path d="M21.314 16.8703V3.31404C21.314 1.48669 19.8274 0 18 0V20.1843C19.8274 20.1843 21.314 18.6976 21.314 16.8703Z" fill="#F70000"/>
<path d="M29.1556 9.15439C29.147 9.14518 29.1385 9.13618 29.1304 9.12824C28.5045 8.50239 27.6723 8.15771 26.7872 8.15771C25.9019 8.15771 25.0697 8.50232 24.4438 9.12824C23.8177 9.75416 23.473 10.5864 23.4731 11.4718C23.4733 12.3427 23.807 13.1624 24.4141 13.7848C24.4237 13.7952 24.4335 13.8054 24.4436 13.8155C26.1647 15.5366 27.1125 17.8249 27.1125 20.2591C27.1125 25.2837 23.0247 29.3716 18 29.3716V35.9997C22.2045 35.9997 26.1574 34.3624 29.1303 31.3894C32.1033 28.4164 33.7405 24.4635 33.7405 20.2591C33.7405 16.0671 32.1126 12.1244 29.1556 9.15439Z" fill="#F70000"/>
</svg>
