<svg width="36" height="36" viewBox="0 0 36 36" fill="none" xmlns="http://www.w3.org/2000/svg">
<path d="M25.2985 30.1852L18 28.0758L10.7015 30.1852C10.6383 30.3117 10.6172 30.4383 10.6172 30.5859V34.9453H25.3828V30.5859C25.3828 30.4383 25.3617 30.3117 25.2985 30.1852Z" fill="#646D73"/>
<path d="M25.3828 34.9453V30.5859C25.3828 30.4383 25.3617 30.3117 25.2985 30.1852L18 28.0758V34.9453H25.3828Z" fill="#474F54"/>
<path d="M34.9453 2.10938H29.5562C29.5655 1.7531 29.6016 1.4175 29.6016 1.05469C29.6016 0.463992 29.1376 0 28.5469 0H7.45312C6.86243 0 6.39844 0.463992 6.39844 1.05469C6.39844 1.4175 6.43451 1.7531 6.44365 2.10938H1.05469C0.471727 2.10938 0 2.5811 0 3.16406V5.8358C0 11.7247 4.71741 16.5086 10.5309 16.8166C11.742 18.4841 13.1794 19.7216 14.8148 20.4187C14.5617 25.5445 11.6297 29.1094 10.9337 29.8477C10.8281 29.932 10.7437 30.0586 10.7016 30.1852H25.2985C25.2563 30.0586 25.1719 29.932 25.0664 29.8477C24.3492 29.1094 21.4383 25.5656 21.1852 20.4187C22.8209 19.7215 24.267 18.4837 25.4791 16.8155C31.2876 16.5026 36 11.7214 36 5.8358V3.16406C36 2.5811 35.5283 2.10938 34.9453 2.10938ZM2.10938 5.8358V4.21875H6.53414C6.80787 7.7047 7.5638 11.3967 9.15258 14.5342C5.17008 13.6373 2.10938 10.0858 2.10938 5.8358ZM33.8906 5.8358C33.8906 10.0837 30.8327 13.6335 26.8531 14.5323C28.4293 11.3949 29.1895 7.73866 29.4659 4.21875H33.8906V5.8358Z" fill="#FED843"/>
<path d="M34.9453 2.10938H29.5562C29.5655 1.7531 29.6016 1.4175 29.6016 1.05469C29.6016 0.463992 29.1376 0 28.5469 0H18V30.1852H25.2985C25.2562 30.0586 25.1719 29.932 25.0664 29.8477C24.3492 29.1094 21.4383 25.5656 21.1852 20.4187C22.8209 19.7215 24.267 18.4837 25.4791 16.8155C31.2876 16.5026 36 11.7214 36 5.8358V3.16406C36 2.5811 35.5283 2.10938 34.9453 2.10938ZM33.8906 5.8358C33.8906 10.0837 30.8327 13.6335 26.8531 14.5323C28.4295 11.3949 29.1896 7.73866 29.4659 4.21875H33.8906V5.8358Z" fill="#FABE2C"/>
<path d="M19.6828 13.4154L17.9998 12.5409L16.3168 13.4154C15.9646 13.5966 15.5341 13.5667 15.2107 13.3329C14.8873 13.0981 14.7245 12.7006 14.7904 12.3071L15.0995 10.4335L13.7502 9.10182C13.4565 8.81551 13.3667 8.39104 13.4866 8.0245C13.6102 7.64544 13.9377 7.36736 14.3332 7.30766L16.2077 7.02543L17.0564 5.32907C17.4148 4.61427 18.5848 4.61427 18.9433 5.32907L19.792 7.02543L21.6665 7.30766C22.062 7.36743 22.3895 7.64551 22.5131 8.0245C22.6367 8.40454 22.5358 8.8217 22.2495 9.10182L20.9002 10.4335L21.2093 12.3071C21.2752 12.7006 21.1124 13.0981 20.789 13.3329C20.4677 13.5658 20.038 13.6001 19.6828 13.4154Z" fill="#FABE2C"/>
<path d="M19.683 13.4153C20.0382 13.6001 20.468 13.5657 20.7892 13.3329C21.1126 13.0981 21.2753 12.7005 21.2094 12.3071L20.9004 10.4335L22.2496 9.1018C22.5359 8.82167 22.6369 8.40451 22.5133 8.02447C22.3897 7.64542 22.0622 7.36733 21.6667 7.30763L19.7921 7.0254L18.9435 5.32904C18.7642 4.97164 18.3821 4.79291 18 4.79291V12.5409L19.683 13.4153Z" fill="#FF9100"/>
<path d="M26.4375 36H9.5625C8.97954 36 8.50781 35.5283 8.50781 34.9453C8.50781 34.3624 8.97954 33.8906 9.5625 33.8906H26.4375C27.0205 33.8906 27.4922 34.3624 27.4922 34.9453C27.4922 35.5283 27.0205 36 26.4375 36Z" fill="#474F54"/>
<path d="M26.4375 33.8906H18V36H26.4375C27.0205 36 27.4922 35.5283 27.4922 34.9453C27.4922 34.3624 27.0205 33.8906 26.4375 33.8906Z" fill="#32393F"/>
</svg>
