<svg width="36" height="36" viewBox="0 0 36 36" fill="none" xmlns="http://www.w3.org/2000/svg">
<g clip-path="url(#clip0_164_13827)">
<path d="M27.7569 19.017C27.6537 19.08 27.5353 19.1134 27.4142 19.1134C27.2931 19.1134 27.1746 19.0801 27.0716 19.017C22.538 16.2428 19.7283 13.4303 19.7283 7.98874V5.7926H4.57409C4.37405 5.7926 4.21191 5.95474 4.21191 6.15478V26.7971H12.7602C13.1209 26.7971 13.4143 27.0905 13.4143 27.4511V33.1742H28.423C28.623 33.1742 28.7851 33.012 28.7851 32.812V18.3663C28.4532 18.5843 28.1103 18.8008 27.7569 19.017Z" fill="#BCFFDB"/>
<path d="M7.26144 26.7971V6.15478C7.26144 5.95474 7.42358 5.7926 7.62362 5.7926H4.57409C4.37405 5.7926 4.21191 5.95474 4.21191 6.15478V26.7971H7.26144Z" fill="#00BD56"/>
<path d="M19.9146 10.267H10.1797C9.88838 10.267 9.65234 10.5031 9.65234 10.7944C9.65234 11.0856 9.88838 11.3217 10.1797 11.3217H20.1515C20.057 10.9827 19.9779 10.6316 19.9146 10.267Z" fill="#00F871"/>
<path d="M20.7399 12.899H10.1797C9.88838 12.899 9.65234 13.1352 9.65234 13.4264C9.65234 13.7176 9.88838 13.9537 10.1797 13.9537H21.3248C21.1091 13.6157 20.9139 13.2649 20.7399 12.899Z" fill="#00F871"/>
<path d="M22.5562 15.5323H15.4644C15.1731 15.5323 14.937 15.7684 14.937 16.0596C14.937 16.3509 15.1731 16.587 15.4644 16.587H22.8173C23.0336 16.587 23.2191 16.4567 23.3005 16.2704C23.0395 16.0301 22.7912 15.7844 22.5562 15.5323Z" fill="#00F871"/>
<path d="M13.2914 16.587H10.1797C9.88838 16.587 9.65234 16.3509 9.65234 16.0596C9.65234 15.7684 9.88838 15.5323 10.1797 15.5323H13.2914C13.5827 15.5323 13.8187 15.7684 13.8187 16.0596C13.8187 16.3509 13.5827 16.587 13.2914 16.587Z" fill="#00F871"/>
<path d="M22.8174 19.2199H10.1797C9.88838 19.2199 9.65234 18.9838 9.65234 18.6926C9.65234 18.4013 9.88838 18.1652 10.1797 18.1652H22.8173C23.1086 18.1652 23.3446 18.4013 23.3446 18.6926C23.3446 18.9838 23.1086 19.2199 22.8174 19.2199Z" fill="#00F871"/>
<path d="M22.8173 21.8533H19.4482C19.1569 21.8533 18.9209 21.6172 18.9209 21.326C18.9209 21.0348 19.1569 20.7986 19.4482 20.7986H22.8173C23.1086 20.7986 23.3446 21.0348 23.3446 21.326C23.3446 21.6172 23.1085 21.8533 22.8173 21.8533Z" fill="#00F871"/>
<path d="M17.4926 20.7986H10.439C10.7339 21.1116 10.9844 21.4664 11.181 21.8533H17.4926C17.7839 21.8533 18.02 21.6172 18.02 21.326C18.02 21.0348 17.7839 20.7986 17.4926 20.7986Z" fill="#00F871"/>
<path d="M22.8173 23.4309H11.6455C11.6608 23.5816 11.6686 23.7344 11.6686 23.8891V24.4856H22.8173C23.1086 24.4856 23.3447 24.2495 23.3447 23.9583C23.3447 23.667 23.1086 23.4309 22.8173 23.4309Z" fill="#00F871"/>
<path d="M22.8171 26.0641H11.6685V26.7965H12.76C12.9995 26.7965 13.2088 26.9263 13.3227 27.1188H22.8171C23.1084 27.1188 23.3444 26.8827 23.3444 26.5914C23.3444 26.3002 23.1084 26.0641 22.8171 26.0641Z" fill="#00F871"/>
<path d="M20.0587 3.59077C19.8132 3.71347 19.6582 3.96427 19.6582 4.2387V7.9884C19.6582 13.5325 22.6041 16.3651 27.035 19.0766C27.2677 19.219 27.5611 19.219 27.7938 19.0766C32.2248 16.3651 35.1706 13.5325 35.1706 7.9884V4.2387C35.1706 3.96427 35.0156 3.71347 34.7701 3.59077L27.7382 0.0764121C27.5344 -0.0254707 27.2944 -0.0254707 27.0906 0.0764121L20.0587 3.59077Z" fill="#00DB64"/>
<path d="M22.2621 6.79269V2.48907L20.0587 3.59024C19.8132 3.71293 19.6582 3.96374 19.6582 4.23817V7.98786C19.6582 13.5319 22.6041 16.3646 27.035 19.0761C27.2677 19.2185 27.5611 19.2185 27.7937 19.0761C28.439 18.6812 29.0525 18.2837 29.6303 17.8756C25.2042 15.1658 22.2621 12.3332 22.2621 6.79269Z" fill="#00AB4E"/>
<path d="M27.382 13.6856C30.1182 13.6856 32.3363 11.4674 32.3363 8.73127C32.3363 5.99509 30.1182 3.77698 27.382 3.77698C24.6458 3.77698 22.4277 5.99509 22.4277 8.73127C22.4277 11.4674 24.6458 13.6856 27.382 13.6856Z" fill="#00AB4E"/>
<path d="M24.5287 8.73132C24.5287 6.35574 26.2011 4.37166 28.4325 3.88974C28.0938 3.81662 27.7426 3.7771 27.382 3.7771C24.6459 3.7771 22.4277 5.99518 22.4277 8.73139C22.4277 11.4676 24.6458 13.6857 27.382 13.6857C27.7426 13.6857 28.0938 13.6462 28.4325 13.573C26.2011 13.091 24.5287 11.1069 24.5287 8.73132Z" fill="#00FF74"/>
<path d="M27.126 10.6808C26.9911 10.6808 26.8561 10.6293 26.753 10.5263L25.1242 8.89743C24.9182 8.69149 24.9182 8.35757 25.1242 8.1517C25.3302 7.94575 25.664 7.94575 25.87 8.1517L27.1259 9.40762L29.2777 7.25578C29.4837 7.04983 29.8175 7.04983 30.0235 7.25578C30.2294 7.46172 30.2294 7.79564 30.0235 8.00151L27.4989 10.5262C27.3959 10.6293 27.2609 10.6808 27.126 10.6808Z" fill="white"/>
<path d="M4.74771 26.7959V23.889C4.74771 22.5606 5.82849 21.4797 7.15697 21.4797C8.48546 21.4797 9.56623 22.5605 9.56623 23.889V26.7959H11.7392V23.8889C11.7392 21.3582 9.68773 19.3066 7.15697 19.3066C4.62621 19.3066 2.57471 21.3581 2.57471 23.8889V26.7959H4.74771Z" fill="#E30000"/>
<path d="M3.80264 26.7959V23.8889C3.80264 21.5665 5.53072 19.649 7.77094 19.3488C7.56999 19.3219 7.36531 19.3067 7.15697 19.3067C4.62629 19.3067 2.57471 21.3582 2.57471 23.889V26.796L3.80264 26.7959Z" fill="#FF0000"/>
<path d="M12.7605 35.9994H1.55346C1.15338 35.9994 0.829102 35.6751 0.829102 35.2751V27.4501C0.829102 27.0501 1.15338 26.7258 1.55346 26.7258H12.7605C13.1606 26.7258 13.4849 27.0501 13.4849 27.4501V35.2751C13.4849 35.6751 13.1605 35.9994 12.7605 35.9994Z" fill="#FF0000"/>
<path d="M3.87511 35.2751V27.4501C3.87511 27.0501 4.19939 26.7258 4.59947 26.7258H1.55346C1.15338 26.7258 0.829102 27.0501 0.829102 27.4501V35.2751C0.829102 35.6751 1.15338 35.9994 1.55346 35.9994H4.59947C4.19939 35.9994 3.87511 35.6751 3.87511 35.2751Z" fill="#D00000"/>
</g>
<defs>
<clipPath id="clip0_164_13827">
<rect width="36" height="36" fill="white"/>
</clipPath>
</defs>
</svg>
