<svg width="36" height="36" viewBox="0 0 36 36" fill="none" xmlns="http://www.w3.org/2000/svg">
<path d="M26.4144 8.67014C26.4144 11.0528 25.5599 13.1152 23.8744 14.8011C22.1888 16.4866 20.1261 17.3411 17.7434 17.3411H17.7393C15.3597 17.3403 13.2984 16.4858 11.6128 14.8011C9.92694 13.1152 9.07275 11.0528 9.07275 8.67014C9.07275 6.2883 9.92694 4.22562 11.6128 2.54004C13.2975 0.855011 15.3589 0.000823978 17.7393 0H17.7434C20.1253 0 22.188 0.854462 23.8744 2.54004C25.5599 4.22562 26.4144 6.2883 26.4144 8.67014Z" fill="#06CD61"/>
<path d="M32.9884 29.8087C32.9884 31.6884 32.3904 33.2103 31.2127 34.3312C30.0487 35.4389 28.5092 36 26.6375 36H9.30322C7.43143 36 5.89197 35.4389 4.72879 34.3312C3.55023 33.2095 2.95312 31.6879 2.95312 29.8087C2.95312 29.0858 2.97702 28.3705 3.02481 27.6828C3.07343 26.9797 3.17175 26.2145 3.31677 25.4073C3.46289 24.5934 3.65076 23.8241 3.8757 23.121C4.10916 22.3932 4.42502 21.6752 4.81586 20.9875C5.2218 20.2736 5.69861 19.6518 6.23309 19.1398C6.7934 18.604 7.47839 18.1736 8.27023 17.8599C9.05933 17.5479 9.93411 17.3897 10.8701 17.3897C11.2374 17.3897 11.593 17.5399 12.2786 17.9865C12.7076 18.2664 13.202 18.585 13.7477 18.9338C14.2191 19.2343 14.8574 19.5161 15.6465 19.7707C16.34 19.9951 17.0439 20.1204 17.7393 20.1421C17.816 20.1448 17.8926 20.1462 17.9692 20.1462C18.7416 20.1462 19.5227 20.0196 20.2928 19.7707C21.0819 19.5161 21.7211 19.2343 22.1921 18.9338C22.7436 18.5815 23.238 18.2631 23.6607 17.9874C24.3468 17.5399 24.7019 17.3897 25.07 17.3897C26.0052 17.3897 26.88 17.5479 27.6696 17.8599C28.4615 18.1736 29.1465 18.6048 29.7062 19.1398C30.2415 19.6518 30.7183 20.2736 31.124 20.9875C31.5151 21.6758 31.8315 22.3932 32.0641 23.1202C32.2894 23.8241 32.4778 24.5934 32.6239 25.4078C32.7681 26.2159 32.8667 26.981 32.915 27.6823C32.9637 28.3678 32.9875 29.083 32.9884 29.8087Z" fill="#06CD61"/>
<path d="M17.7434 17.3411H17.7393V0H17.7434C20.1252 0 22.1879 0.854462 23.8743 2.54004C25.5599 4.22562 26.4143 6.2883 26.4143 8.67014C26.4143 11.0528 25.5599 13.1152 23.8743 14.8011C22.1887 16.4866 20.126 17.3411 17.7434 17.3411Z" fill="#00AB4E"/>
<path d="M32.9883 29.8087C32.9883 31.6884 32.3904 33.2103 31.2126 34.3312C30.0486 35.4389 28.5092 36 26.6374 36H17.7393V20.1421C17.8159 20.1448 17.8925 20.1462 17.9691 20.1462C18.7415 20.1462 19.5226 20.0196 20.2928 19.7707C21.0818 19.5161 21.721 19.2343 22.192 18.9338C22.7435 18.5815 23.2379 18.2631 23.6606 17.9874C24.3467 17.5399 24.7018 17.3897 25.0699 17.3897C26.0051 17.3897 26.8799 17.5479 27.6695 17.8599C28.4614 18.1736 29.1464 18.6048 29.7061 19.1398C30.2414 19.6518 30.7182 20.2736 31.1239 20.9875C31.515 21.6758 31.8314 22.3932 32.0641 23.1202C32.2893 23.8241 32.4777 24.5934 32.6238 25.4078C32.768 26.2159 32.8666 26.981 32.9149 27.6823C32.9636 28.3678 32.9875 29.083 32.9883 29.8087Z" fill="#00AB4E"/>
</svg>
