<svg width="22" height="22" viewBox="0 0 22 22" fill="none" xmlns="http://www.w3.org/2000/svg">
<g clip-path="url(#clip0_192_5976)">
<path d="M1.28906 1.28906H5.15625V0H0V5.15625H1.28906V1.28906Z" fill="black"/>
<path d="M16.8438 0V1.28906H20.7109V5.15625H22V0H16.8438Z" fill="black"/>
<path d="M20.7109 20.7109H16.8438V22H22V16.8438H20.7109V20.7109Z" fill="black"/>
<path d="M1.28906 16.8438H0V22H5.15625V20.7109H1.28906V16.8438Z" fill="black"/>
<path d="M2.62109 2.57812V9.02344H9.06641V5.15625H10.3555V3.86719H9.06641V2.57812H2.62109ZM7.77734 7.73438H3.91016V3.86719H7.77734V7.73438Z" fill="black"/>
<path d="M19.3789 19.3359V12.8906H16.8008V11.6016H15.5117V12.8906H11.6445V14.1797H12.9336V15.4688H11.6445V16.7578H12.9336V19.3359H19.3789ZM14.2227 14.1797H18.0898V18.0469H14.2227V14.1797Z" fill="black"/>
<path d="M6.48828 11.6016H9.06641V10.3125H2.62109V11.6016H5.19922V12.8906H3.91016V14.1797H5.19922V16.7578H3.91016V18.0469H5.19922V19.3359H11.6445V18.0469H10.3555V16.7578H9.06641V18.0469H6.48828V16.7578H7.77734V15.4688H6.48828V11.6016Z" fill="black"/>
<path d="M5.19922 5.15625H6.48828V6.44531H5.19922V5.15625Z" fill="black"/>
<path d="M15.5117 5.15625H16.8008V6.44531H15.5117V5.15625Z" fill="black"/>
<path d="M16.8008 9.02344H19.3789V2.57812H12.9336V9.02344H15.5117V10.3125H16.8008V9.02344ZM14.2227 7.73438V3.86719H18.0898V7.73438H14.2227Z" fill="black"/>
<path d="M19.3789 11.6016V10.3125C19.067 10.3125 17.1148 10.3125 16.8008 10.3125V11.6016H19.3789Z" fill="black"/>
<path d="M15.5117 15.4688H16.8008V16.7578H15.5117V15.4688Z" fill="black"/>
<path d="M10.3555 14.1797H11.6445V15.4688H10.3555V14.1797Z" fill="black"/>
<path d="M7.77734 15.4688H9.06641C9.06641 15.1569 9.06641 13.2047 9.06641 12.8906H7.77734V15.4688Z" fill="black"/>
<path d="M9.06641 11.6016H10.3555V12.8906H9.06641V11.6016Z" fill="black"/>
<path d="M3.91016 14.1797H2.62109V16.7578H3.91016C3.91016 16.446 3.91016 14.4937 3.91016 14.1797Z" fill="black"/>
<path d="M2.62109 18.0469H3.91016V19.3359H2.62109V18.0469Z" fill="black"/>
<path d="M10.3555 2.57812H11.6445V3.86719H10.3555V2.57812Z" fill="black"/>
<path d="M10.3555 7.73438H11.6445C11.6445 7.42252 11.6445 5.47029 11.6445 5.15625H10.3555V7.73438Z" fill="black"/>
<path d="M11.6445 10.3125V9.02344H10.3555V11.6016H15.5117V10.3125H11.6445Z" fill="black"/>
</g>
<defs>
<clipPath id="clip0_192_5976">
<rect width="22" height="22" fill="white"/>
</clipPath>
</defs>
</svg>
