<svg width="36" height="36" viewBox="0 0 36 36" fill="none" xmlns="http://www.w3.org/2000/svg">
<path d="M25.5522 9.77178L15.3695 0.283077C14.9643 -0.0944293 14.3362 -0.094359 13.9312 0.283288L3.75562 9.77192C3.0577 10.4229 3.51874 11.598 4.47491 11.598H6.57163V32.7753C6.57163 33.3578 7.04384 33.83 7.62631 33.83H21.6859C22.2684 33.83 22.7406 33.3579 22.7406 32.7755L22.7433 11.6027L24.8354 11.5981C25.7889 11.5959 26.251 10.4229 25.5522 9.77178Z" fill="#00C85B"/>
<path d="M24.8355 11.598L22.7437 11.6029L22.7409 32.7753C22.7409 33.3575 22.2684 33.83 21.6862 33.83H14.6543V0C14.9109 0.000703122 15.1676 0.0949215 15.3701 0.283358L25.5527 9.77199C26.2516 10.4231 25.7889 11.5959 24.8355 11.598Z" fill="#00A54B"/>
<path d="M23.0879 31.7671C28.3302 31.7671 32.58 27.5174 32.58 22.275C32.58 17.0326 28.3302 12.7828 23.0879 12.7828C17.8455 12.7828 13.5957 17.0326 13.5957 22.275C13.5957 27.5174 17.8455 31.7671 23.0879 31.7671Z" fill="#FBBD43"/>
<path d="M32.5803 22.2761C32.5803 27.6418 28.1328 31.8839 22.9004 31.7662C22.963 31.7669 23.0255 31.7669 23.0881 31.7662V12.784C28.3222 12.784 32.5803 17.0421 32.5803 22.2761Z" fill="#F19637"/>
<path d="M23.0879 29.6578C27.1653 29.6578 30.4707 26.3524 30.4707 22.275C30.4707 18.1976 27.1653 14.8922 23.0879 14.8922C19.0105 14.8922 15.7051 18.1976 15.7051 22.275C15.7051 26.3524 19.0105 29.6578 23.0879 29.6578Z" fill="#FEDD33"/>
<path d="M30.4707 22.2762C30.4707 26.3473 27.1583 29.659 23.0879 29.659V14.8934C27.1583 14.8934 30.4707 18.2051 30.4707 22.2762Z" fill="#FBBD43"/>
<path d="M24.6039 19.3192L20.1292 23.7939C19.7173 24.2057 19.7173 24.8735 20.1292 25.2854C20.3352 25.4913 20.6051 25.5944 20.875 25.5944C21.1448 25.5944 21.4148 25.4913 21.6207 25.2854L26.0954 20.8107C26.5073 20.3989 26.5073 19.7311 26.0954 19.3192C25.6836 18.9073 25.0157 18.9073 24.6039 19.3192Z" fill="#FBBD43"/>
<path d="M26.0952 20.8107L23.0879 23.8179V20.8346L24.6038 19.3186C25.0152 18.9073 25.6831 18.9073 26.0952 19.3186C26.5072 19.7307 26.5072 20.3986 26.0952 20.8107Z" fill="#F19637"/>
<path d="M20.8227 21.0586C21.4032 21.0586 21.8738 20.588 21.8738 20.0074C21.8738 19.4269 21.4032 18.9562 20.8227 18.9562C20.2421 18.9562 19.7715 19.4269 19.7715 20.0074C19.7715 20.588 20.2421 21.0586 20.8227 21.0586Z" fill="#FBBD43"/>
<path d="M24.5588 23.7441C24.1484 24.1546 24.1484 24.8201 24.5588 25.2307C24.9693 25.6412 25.6349 25.6412 26.0455 25.2307C26.4559 24.8202 26.4559 24.1546 26.0455 23.7441C25.6349 23.3336 24.9693 23.3336 24.5588 23.7441Z" fill="#F19637"/>
<path d="M31.5252 31.7543C31.5179 31.7543 14.5933 31.7772 14.582 31.7772C14.0001 31.778 13.5288 32.25 13.5288 32.8319V34.9448C13.5288 35.2247 13.6401 35.4932 13.8382 35.691C14.1758 36.0282 14.577 35.9978 14.5849 35.9994L31.5266 35.9765C32.1085 35.9757 32.5798 35.5037 32.5798 34.9218V32.809C32.5798 32.2272 32.108 31.7543 31.5252 31.7543Z" fill="#FEDD33"/>
<path d="M32.5803 32.8091V34.922C32.5803 35.5042 32.1085 35.976 31.527 35.9767L23.0881 35.9879V31.7678C21.4292 31.7678 31.3061 31.7544 31.5256 31.7544C32.1085 31.7544 32.5803 32.2276 32.5803 32.8091Z" fill="#FBBD43"/>
</svg>
