<svg width="39" height="40" viewBox="0 0 39 40" fill="none" xmlns="http://www.w3.org/2000/svg">
<path fill-rule="evenodd" clip-rule="evenodd" d="M10.9717 2.95337C8.9672 2.95337 7.31543 4.60515 7.31543 6.60962V10.2659H4.87793C4.5547 10.2659 4.24472 10.3943 4.01616 10.6228C3.7876 10.8514 3.65918 11.1614 3.65918 11.4846C3.65918 11.8079 3.7876 12.1178 4.01616 12.3464C4.24472 12.575 4.5547 12.7034 4.87793 12.7034H7.31543V18.7971H4.87793C4.5547 18.7971 4.24472 18.9255 4.01616 19.1541C3.7876 19.3826 3.65918 19.6926 3.65918 20.0159C3.65918 20.3391 3.7876 20.6491 4.01616 20.8777C4.24472 21.1062 4.5547 21.2346 4.87793 21.2346H7.31543V27.3284H4.87793C4.5547 27.3284 4.24472 27.4568 4.01616 27.6853C3.7876 27.9139 3.65918 28.2239 3.65918 28.5471C3.65918 28.8703 3.7876 29.1803 4.01616 29.4089C4.24472 29.6375 4.5547 29.7659 4.87793 29.7659H7.31543V33.4221C7.31543 35.4266 8.9672 37.0784 10.9717 37.0784H31.6904C33.6949 37.0784 35.3467 35.4266 35.3467 33.4221V6.60962C35.3467 4.60515 33.6949 2.95337 31.6904 2.95337H10.9717ZM20.7217 9.04712C23.3996 9.04712 25.5967 11.2442 25.5967 13.9221C25.5967 16.6001 23.3996 18.7971 20.7217 18.7971C18.0437 18.7971 15.8467 16.6001 15.8467 13.9221C15.8467 11.2442 18.0437 9.04712 20.7217 9.04712ZM18.2842 20.0159H23.1592C25.8388 20.0159 28.0342 22.2112 28.0342 24.8909C28.0342 27.5705 25.8388 29.7659 23.1592 29.7659H18.2842C15.6045 29.7659 13.4092 27.5705 13.4092 24.8909C13.4092 22.2112 15.6045 20.0159 18.2842 20.0159Z" fill="#007937"/>
<path fill-rule="evenodd" clip-rule="evenodd" d="M10.9717 2.95337C8.9672 2.95337 7.31543 4.60515 7.31543 6.60962V10.2659H4.87793C4.5547 10.2659 4.24472 10.3943 4.01616 10.6228C3.7876 10.8514 3.65918 11.1614 3.65918 11.4846C3.65918 11.8079 3.7876 12.1178 4.01616 12.3464C4.24472 12.575 4.5547 12.7034 4.87793 12.7034H7.31543V18.7971H4.87793C4.5547 18.7971 4.24472 18.9255 4.01616 19.1541C3.7876 19.3826 3.65918 19.6926 3.65918 20.0159C3.65918 20.3391 3.7876 20.6491 4.01616 20.8777C4.24472 21.1062 4.5547 21.2346 4.87793 21.2346H7.31543V27.3284H4.87793C4.5547 27.3284 4.24472 27.4568 4.01616 27.6853C3.7876 27.9139 3.65918 28.2239 3.65918 28.5471C3.65918 28.8703 3.7876 29.1803 4.01616 29.4089C4.24472 29.6375 4.5547 29.7659 4.87793 29.7659H7.31543V33.4221C7.31543 35.4266 8.9672 37.0784 10.9717 37.0784H31.6904C33.6949 37.0784 35.3467 35.4266 35.3467 33.4221V6.60962C35.3467 4.60515 33.6949 2.95337 31.6904 2.95337H10.9717ZM20.7217 9.04712C23.3996 9.04712 25.5967 11.2442 25.5967 13.9221C25.5967 16.6001 23.3996 18.7971 20.7217 18.7971C18.0437 18.7971 15.8467 16.6001 15.8467 13.9221C15.8467 11.2442 18.0437 9.04712 20.7217 9.04712ZM18.2842 20.0159H23.1592C25.8388 20.0159 28.0342 22.2112 28.0342 24.8909C28.0342 27.5705 25.8388 29.7659 23.1592 29.7659H18.2842C15.6045 29.7659 13.4092 27.5705 13.4092 24.8909C13.4092 22.2112 15.6045 20.0159 18.2842 20.0159Z" fill="#007937"/>
<g clip-path="url(#clip0_373_555)">
<path fill-rule="evenodd" clip-rule="evenodd" d="M10.9717 2.95337C8.9672 2.95337 7.31543 4.60515 7.31543 6.60962V10.2659H4.87793C4.5547 10.2659 4.24472 10.3943 4.01616 10.6228C3.7876 10.8514 3.65918 11.1614 3.65918 11.4846C3.65918 11.8079 3.7876 12.1178 4.01616 12.3464C4.24472 12.575 4.5547 12.7034 4.87793 12.7034H7.31543V18.7971H4.87793C4.5547 18.7971 4.24472 18.9255 4.01616 19.1541C3.7876 19.3826 3.65918 19.6926 3.65918 20.0159C3.65918 20.3391 3.7876 20.6491 4.01616 20.8777C4.24472 21.1062 4.5547 21.2346 4.87793 21.2346H7.31543V27.3284H4.87793C4.5547 27.3284 4.24472 27.4568 4.01616 27.6853C3.7876 27.9139 3.65918 28.2239 3.65918 28.5471C3.65918 28.8703 3.7876 29.1803 4.01616 29.4089C4.24472 29.6375 4.5547 29.7659 4.87793 29.7659H7.31543V33.4221C7.31543 35.4266 8.9672 37.0784 10.9717 37.0784H31.6904C33.6949 37.0784 35.3467 35.4266 35.3467 33.4221V6.60962C35.3467 4.60515 33.6949 2.95337 31.6904 2.95337H10.9717ZM20.7217 9.04712C23.3996 9.04712 25.5967 11.2442 25.5967 13.9221C25.5967 16.6001 23.3996 18.7971 20.7217 18.7971C18.0437 18.7971 15.8467 16.6001 15.8467 13.9221C15.8467 11.2442 18.0437 9.04712 20.7217 9.04712ZM18.2842 20.0159H23.1592C25.8388 20.0159 28.0342 22.2112 28.0342 24.8909C28.0342 27.5705 25.8388 29.7659 23.1592 29.7659H18.2842C15.6045 29.7659 13.4092 27.5705 13.4092 24.8909C13.4092 22.2112 15.6045 20.0159 18.2842 20.0159Z" fill="#005125"/>
<path fill-rule="evenodd" clip-rule="evenodd" d="M10.9717 2.95337C8.9672 2.95337 7.31543 4.60515 7.31543 6.60962V10.2659H4.87793C4.5547 10.2659 4.24472 10.3943 4.01616 10.6228C3.7876 10.8514 3.65918 11.1614 3.65918 11.4846C3.65918 11.8079 3.7876 12.1178 4.01616 12.3464C4.24472 12.575 4.5547 12.7034 4.87793 12.7034H7.31543V18.7971H4.87793C4.5547 18.7971 4.24472 18.9255 4.01616 19.1541C3.7876 19.3826 3.65918 19.6926 3.65918 20.0159C3.65918 20.3391 3.7876 20.6491 4.01616 20.8777C4.24472 21.1062 4.5547 21.2346 4.87793 21.2346H7.31543V27.3284H4.87793C4.5547 27.3284 4.24472 27.4568 4.01616 27.6853C3.7876 27.9139 3.65918 28.2239 3.65918 28.5471C3.65918 28.8703 3.7876 29.1803 4.01616 29.4089C4.24472 29.6375 4.5547 29.7659 4.87793 29.7659H7.31543V33.4221C7.31543 35.4266 8.9672 37.0784 10.9717 37.0784H31.6904C33.6949 37.0784 35.3467 35.4266 35.3467 33.4221V6.60962C35.3467 4.60515 33.6949 2.95337 31.6904 2.95337H10.9717ZM20.7217 9.04712C23.3996 9.04712 25.5967 11.2442 25.5967 13.9221C25.5967 16.6001 23.3996 18.7971 20.7217 18.7971C18.0437 18.7971 15.8467 16.6001 15.8467 13.9221C15.8467 11.2442 18.0437 9.04712 20.7217 9.04712ZM18.2842 20.0159H23.1592C25.8388 20.0159 28.0342 22.2112 28.0342 24.8909C28.0342 27.5705 25.8388 29.7659 23.1592 29.7659H18.2842C15.6045 29.7659 13.4092 27.5705 13.4092 24.8909C13.4092 22.2112 15.6045 20.0159 18.2842 20.0159Z" fill="#005125"/>
</g>
<defs>
<clipPath id="clip0_373_555">
<rect width="17.3333" height="39" fill="white" transform="translate(21.6665 0.5)"/>
</clipPath>
</defs>
</svg>
