<svg width="36" height="36" viewBox="0 0 36 36" fill="none" xmlns="http://www.w3.org/2000/svg">
<path d="M12.4784 17.1869L11.3989 15.3741L23.4743 8.11877L24.5537 9.9315L12.4784 17.1869Z" fill="#00C158"/>
<path d="M23.3631 28.2364L11.7275 22.2901L12.6792 20.4073L24.3148 26.3536L23.3631 28.2364Z" fill="#00C158"/>
<path d="M28.5469 0C25.0663 0 22.2188 2.84759 22.2188 6.32812C22.2188 9.80852 25.0663 12.6562 28.5469 12.6562C32.0274 12.6562 34.875 9.80852 34.875 6.32812C34.875 2.84759 32.0274 0 28.5469 0Z" fill="#00F46F"/>
<path d="M28.5469 23.3438C25.0663 23.3438 22.2188 26.1913 22.2188 29.6719C22.2188 33.1523 25.0663 36 28.5469 36C32.0274 36 34.875 33.1523 34.875 29.6719C34.875 26.1913 32.0274 23.3438 28.5469 23.3438Z" fill="#00F46F"/>
<path d="M7.45312 12.7266C3.97259 12.7266 1.125 15.5741 1.125 19.0547C1.125 22.5351 3.97259 25.3828 7.45312 25.3828C10.9337 25.3828 13.7812 22.5351 13.7812 19.0547C13.7812 15.5741 10.9337 12.7266 7.45312 12.7266Z" fill="#00F46F"/>
<path d="M34.875 29.6719C34.875 33.1523 32.0274 36 28.5469 36V23.3438C32.0274 23.3438 34.875 26.1913 34.875 29.6719Z" fill="#00C158"/>
<path d="M28.5469 12.6562V0C32.0274 0 34.875 2.84759 34.875 6.32812C34.875 9.80852 32.0274 12.6562 28.5469 12.6562Z" fill="#00C158"/>
<path d="M13.7812 19.0547C13.7812 22.5351 10.9337 25.3828 7.45312 25.3828V12.7266C10.9337 12.7266 13.7812 15.5741 13.7812 19.0547Z" fill="#00C158"/>
</svg>
