<svg width="36" height="36" viewBox="0 0 36 36" fill="none" xmlns="http://www.w3.org/2000/svg">
<path d="M30.608 6.983L25.642 2.017C25.431 1.80603 25.1449 1.6875 24.8465 1.6875H6.1875C5.88913 1.6875 5.60298 1.80603 5.39201 2.017C5.18103 2.22798 5.0625 2.51413 5.0625 2.8125V33.1875C5.0625 33.4859 5.18103 33.772 5.39201 33.983C5.60298 34.194 5.88913 34.3125 6.1875 34.3125H29.8125C30.1109 34.3125 30.397 34.194 30.608 33.983C30.819 33.772 30.9375 33.4859 30.9375 33.1875V7.77849C30.9375 7.48012 30.819 7.19397 30.608 6.983Z" fill="#01D260"/>
<path d="M5.99951 34.2955C6.06165 34.3064 6.12459 34.3121 6.18767 34.3125H29.8127C30.111 34.3125 30.3972 34.1939 30.6082 33.983C30.8191 33.772 30.9377 33.4858 30.9377 33.1875V8.4375C30.9377 22.4142 19.8559 33.8024 5.99951 34.2955Z" fill="#009644"/>
<path d="M15.1875 18.5625L9 23.625V34.3125H21.375V23.625L15.1875 18.5625Z" fill="#007033"/>
<path d="M12.9375 26.4375H17.4375V34.3125H12.9375V26.4375Z" fill="white"/>
<path d="M9 34.3125H21.375V23.625L21.2718 23.5406C20.8821 26.5197 19.4222 29.2553 17.1642 31.2373C14.9063 33.2193 12.0044 34.3123 9 34.3125Z" fill="#4AFF9D"/>
<path d="M12.9375 33.6725V34.3125H17.4375V30.989C16.1464 32.1946 14.6119 33.1097 12.9375 33.6725Z" fill="#4AFF9D"/>
<path d="M12.9375 3.9375H23.0625V5.0625H12.9375V3.9375Z" fill="white"/>
<path d="M7.3125 10.125H9V11.25H7.3125V10.125Z" fill="white"/>
<path d="M7.3125 13.5H9V14.625H7.3125V13.5Z" fill="white"/>
<path d="M7.3125 16.875H9V18H7.3125V16.875Z" fill="white"/>
<path d="M10.125 6.75H23.625V7.875H10.125V6.75Z" fill="white"/>
<path d="M10.125 10.125H28.6875V11.25H10.125V10.125Z" fill="white"/>
<path d="M10.125 13.5H28.6875V14.625H10.125V13.5Z" fill="white"/>
<path d="M10.125 16.875H13.5V18H10.125V16.875Z" fill="white"/>
<path d="M16.875 16.875H28.6875V18H16.875V16.875Z" fill="white"/>
<path d="M7.3125 6.75H9V7.875H7.3125V6.75Z" fill="white"/>
<path d="M30.608 6.98375L25.642 2.01776C25.5466 1.92294 25.435 1.84602 25.3125 1.79065V6.18825C25.3125 6.48662 25.431 6.77277 25.642 6.98375C25.853 7.19473 26.1391 7.31325 26.4375 7.31325H30.8351C30.7797 7.19071 30.7028 7.07911 30.608 6.98375Z" fill="#008A3F"/>
<path d="M17.4375 32.0625H34.3125V33.1875C34.3125 33.4859 34.194 33.772 33.983 33.983C33.772 34.194 33.4859 34.3125 33.1875 34.3125H18.5625C18.2641 34.3125 17.978 34.194 17.767 33.983C17.556 33.772 17.4375 33.4859 17.4375 33.1875V32.0625Z" fill="#FF6161"/>
<path d="M32.0625 20.8125H20.8125C20.5141 20.8125 20.228 20.931 20.017 21.142C19.806 21.353 19.6875 21.6391 19.6875 21.9375V32.0625H33.1875V21.9375C33.1875 21.6391 33.069 21.353 32.858 21.142C32.647 20.931 32.3609 20.8125 32.0625 20.8125Z" fill="#FFAEAE"/>
<path d="M26.4375 29.8125C28.3015 29.8125 29.8125 28.3015 29.8125 26.4375C29.8125 24.5735 28.3015 23.0625 26.4375 23.0625C24.5735 23.0625 23.0625 24.5735 23.0625 26.4375C23.0625 28.3015 24.5735 29.8125 26.4375 29.8125Z" fill="#FF0000"/>
<path d="M25.7101 27.9603L24.9146 27.1647L25.8748 26.2046V24.75H26.9998V26.6704L25.7101 27.9603Z" fill="#F9DBDB"/>
<path d="M28.2759 32.0625H33.1873V26.2139C32.1448 28.594 30.4399 30.6242 28.2759 32.0625Z" fill="#D80000"/>
<path d="M20.8125 34.3125H33.1875C33.4859 34.3125 33.772 34.194 33.983 33.983C34.194 33.772 34.3125 33.4859 34.3125 33.1875V32.0625H28.276C26.0652 33.5336 23.468 34.3165 20.8125 34.3125Z" fill="#FF0000"/>
<path opacity="0.15" d="M25.0513 29.5143C25.6759 29.7958 26.3714 29.8805 27.0453 29.7572C27.7192 29.6339 28.3396 29.3083 28.824 28.8239C29.3085 28.3395 29.634 27.7191 29.7573 27.0451C29.8806 26.3712 29.7959 25.6758 29.5145 25.0511C29.1894 26.1019 28.613 27.0574 27.8353 27.8352C27.0576 28.6129 26.102 29.1892 25.0513 29.5143Z" fill="#010202"/>
</svg>
