<svg width="28" height="36" viewBox="0 0 28 36" fill="none" xmlns="http://www.w3.org/2000/svg">
<path d="M20.9109 32.8393C20.9109 34.3191 18.6879 35.5614 15.6855 35.9055C12.8845 34.4156 12.7574 31.1417 14.6004 29.6906C18.1359 29.8296 20.9109 31.1863 20.9109 32.8393Z" fill="#00CD5E"/>
<path d="M15.6853 35.9049C15.1457 35.9672 14.5814 35.9998 13.9998 35.9998C10.1833 35.9998 7.08887 34.5844 7.08887 32.8388C7.08887 31.0931 10.1833 29.6777 13.9998 29.6777C14.2019 29.6777 14.4026 29.6814 14.6003 29.69C13.508 31.4864 13.7043 34.2353 15.6853 35.9049Z" fill="#00652E"/>
<path d="M27.2099 13.2102C27.2099 21.0353 22.4553 26.6932 18.6511 29.9679C8.93726 23.9603 8.49302 5.8436 15.5284 0.0878906C22.104 0.845578 27.2099 6.43177 27.2099 13.2102Z" fill="#00AB4E"/>
<path d="M18.651 29.9676C17.4007 31.044 16.2534 31.8632 15.411 32.4166C14.5548 32.9794 13.4451 32.9794 12.5889 32.4166C9.18303 30.1777 0.790039 23.6064 0.790039 13.2099C0.790039 5.91427 6.7043 0 13.9999 0C14.5171 0 15.0271 0.0296719 15.5283 0.0876094C9.90591 8.37562 10.2007 21.3914 18.651 29.9676Z" fill="#008E41"/>
<path d="M24.183 13.2099C24.183 18.8149 19.655 23.3616 14.0573 23.3928C9.72065 18.8236 9.34364 6.48127 13.8704 3.0278C13.9139 3.0271 13.9566 3.0271 14.0001 3.0271C19.6239 3.02703 24.183 7.58609 24.183 13.2099Z" fill="white"/>
<path d="M14.057 23.3931H13.9998C8.37596 23.3931 3.81689 18.834 3.81689 13.2102C3.81689 7.62988 8.30642 3.09761 13.8701 3.02814C11.0654 9.08507 10.9169 16.7363 14.057 23.3931Z" fill="#B9FFD9"/>
<path d="M20.0877 10.2485V16.1708C20.0877 17.4912 19.0171 18.5618 17.6966 18.5618H15.0476C11.651 17.9023 11.0588 12.3806 14.0568 11.9024L16.0126 7.85742H17.6967C19.0171 7.85742 20.0877 8.928 20.0877 10.2485Z" fill="#00EB6B"/>
<path d="M15.0477 18.5618H10.3027C8.9822 18.5618 7.91162 17.4912 7.91162 16.1708V10.2485C7.91162 8.928 8.9822 7.85742 10.3027 7.85742H11.9868L14.057 11.9024C12.7415 13.3971 12.6456 16.8135 15.0477 18.5618Z" fill="#00AB4E"/>
<path d="M11.9868 7.85742V10.6455C11.9868 11.4169 12.612 12.042 13.3834 12.042H14.6162C15.3876 12.042 16.0128 11.4169 16.0128 10.6455V7.85742H11.9868Z" fill="#00833C"/>
</svg>
