<svg width="36" height="36" viewBox="0 0 36 36" fill="none" xmlns="http://www.w3.org/2000/svg">
<path d="M32.6116 14.177V31.8804C32.6116 33.5535 31.2563 34.9142 29.5834 34.9142H5.24632C4.08694 34.9142 3.03872 34.443 2.28157 33.6858C1.52454 32.9289 1.05859 31.8804 1.05859 30.7265V8.56514C1.05859 7.49054 1.9322 6.61707 3.00692 6.61707H11.5039C12.5787 6.61707 13.4522 7.49054 13.4522 8.56514V10.7094C13.4522 11.3076 13.9392 11.7946 14.5375 11.7946H30.2292C31.5475 11.7946 32.6116 12.8589 32.6116 14.177Z" fill="#007E3A"/>
<path d="M30.2981 2.67314V29.6943C30.2981 30.5678 29.5834 31.2826 28.7098 31.2826H6.41636C5.53758 31.2826 4.82812 30.5678 4.82812 29.6943V7.35305H10.0323C10.6146 7.35305 11.0911 6.87663 11.0911 6.29423V1.0849H28.7098C29.5834 1.0849 30.2981 1.79423 30.2981 2.67314Z" fill="#D7EBE0"/>
<path d="M26.085 3.46587H15.3004C15.154 3.46587 15.0356 3.34735 15.0356 3.20117C15.0356 3.05499 15.154 2.93646 15.3004 2.93646H26.085C26.2314 2.93646 26.3498 3.05499 26.3498 3.20117C26.3498 3.34735 26.2314 3.46587 26.085 3.46587Z" fill="black"/>
<path d="M28.1786 6.88067H17.0411C16.8948 6.88067 16.7764 6.76215 16.7764 6.61596C16.7764 6.46978 16.8948 6.35126 17.0411 6.35126H28.1786C28.3249 6.35126 28.4433 6.46978 28.4433 6.61596C28.4433 6.76215 28.3249 6.88067 28.1786 6.88067Z" fill="black"/>
<path d="M15.7179 6.88067H13.2071C13.0608 6.88067 12.9424 6.76215 12.9424 6.61596C12.9424 6.46978 13.0608 6.35126 13.2071 6.35126H15.7179C15.8642 6.35126 15.9826 6.46978 15.9826 6.61596C15.9826 6.76215 15.8642 6.88067 15.7179 6.88067Z" fill="black"/>
<path d="M28.1787 10.2956H24.6734C24.5271 10.2956 24.4087 10.1771 24.4087 10.0309C24.4087 9.8847 24.5271 9.76617 24.6734 9.76617H28.1787C28.325 9.76617 28.4434 9.8847 28.4434 10.0309C28.4434 10.1771 28.325 10.2956 28.1787 10.2956Z" fill="black"/>
<path d="M23.0855 10.2956H12.9385C12.7922 10.2956 12.6738 10.1771 12.6738 10.0309C12.6738 9.8847 12.7922 9.76617 12.9385 9.76617H23.0855C23.2318 9.76617 23.3502 9.8847 23.3502 10.0309C23.3502 10.1771 23.2318 10.2956 23.0855 10.2956Z" fill="black"/>
<path d="M11.0891 10.2956H6.96002C6.81371 10.2956 6.69531 10.1771 6.69531 10.0309C6.69531 9.8847 6.81371 9.76617 6.96002 9.76617H11.0891C11.2354 9.76617 11.3538 9.8847 11.3538 10.0309C11.3538 10.1771 11.2354 10.2956 11.0891 10.2956Z" fill="black"/>
<path d="M28.1787 13.7095H16.6441C16.4978 13.7095 16.3794 13.5909 16.3794 13.4448C16.3794 13.2986 16.4978 13.1801 16.6441 13.1801H28.1787C28.325 13.1801 28.4434 13.2986 28.4434 13.4448C28.4434 13.5909 28.325 13.7095 28.1787 13.7095Z" fill="black"/>
<path d="M15.3003 13.7095H6.96002C6.81371 13.7095 6.69531 13.5909 6.69531 13.4448C6.69531 13.2986 6.81371 13.1801 6.96002 13.1801H15.3003C15.4466 13.1801 15.565 13.2986 15.565 13.4448C15.565 13.5909 15.4466 13.7095 15.3003 13.7095Z" fill="black"/>
<path d="M28.1786 17.1239H6.96002C6.81371 17.1239 6.69531 17.0054 6.69531 16.8592C6.69531 16.713 6.81371 16.5945 6.96002 16.5945H28.1786C28.3249 16.5945 28.4433 16.713 28.4433 16.8592C28.4433 17.0054 28.3249 17.1239 28.1786 17.1239Z" fill="black"/>
<path d="M34.9407 17.6606V31.4465C34.9407 33.3631 33.3896 34.9143 31.4785 34.9143H5.24609C7.55426 34.9143 9.42839 33.0348 9.42839 30.7266V17.6606C9.42839 16.5276 10.3496 15.6066 11.4879 15.6066H32.8814C34.0197 15.6066 34.9407 16.5276 34.9407 17.6606Z" fill="#00AB4E"/>
<path d="M11.0911 1.0849V6.29423C11.0911 6.87663 10.6146 7.35305 10.0323 7.35305H4.82812L11.0911 1.0849Z" fill="#004A22"/>
<path d="M29.6044 28.1261L27.9686 28.9996C27.8891 29.042 27.7992 29.0738 27.7145 29.0844C27.5979 29.1056 27.4762 29.095 27.365 29.0632C27.1639 28.9996 26.9945 28.8621 26.8939 28.6767L26.0203 27.0409C25.8139 26.6545 25.9568 26.1726 26.3433 25.9661C26.6609 25.7968 27.0473 25.8655 27.2857 26.1145C27.3332 25.8337 27.3544 25.5478 27.3544 25.2567C27.3544 22.3501 24.988 19.989 22.0815 19.989C21.1338 19.989 20.2021 20.2431 19.3974 20.7249C19.0215 20.9473 18.5345 20.8255 18.3069 20.4496C18.0844 20.0738 18.2062 19.5868 18.5822 19.359C19.6356 18.7342 20.8428 18.4008 22.0815 18.4008C25.8667 18.4008 28.9427 21.4767 28.9427 25.2567C28.9427 25.7756 28.8897 26.2783 28.7733 26.7708L28.8527 26.7284C29.2392 26.5221 29.7209 26.6651 29.9274 27.0515C30.1338 27.438 29.9909 27.9196 29.6044 28.1261Z" fill="white"/>
<path d="M26.142 29.8361C26.391 30.2013 26.2956 30.6938 25.9303 30.9373C24.7867 31.7102 23.4527 32.1179 22.0815 32.1179C18.2962 32.1179 15.2203 29.042 15.2203 25.2567C15.2203 24.6162 15.3103 23.9808 15.4903 23.3666L15.4532 23.3826C15.0509 23.5625 14.5798 23.3932 14.3997 22.9907C14.2145 22.5936 14.3891 22.1226 14.7862 21.9373L16.4697 21.1644C16.6603 21.0796 16.8826 21.069 17.0786 21.1432C17.2744 21.2174 17.4385 21.3655 17.5233 21.556L18.2962 23.2396C18.4815 23.6367 18.3068 24.1079 17.9098 24.293C17.825 24.3302 17.735 24.3514 17.6451 24.362C17.3804 24.3832 17.1157 24.2721 16.9515 24.0549C16.8561 24.4466 16.8086 24.8491 16.8086 25.2567C16.8086 28.1633 19.175 30.5296 22.0815 30.5296C23.135 30.5296 24.162 30.2174 25.0409 29.6244C25.4062 29.3754 25.8985 29.476 26.142 29.8361Z" fill="white"/>
</svg>
