<svg width="36" height="36" viewBox="0 0 36 36" fill="none" xmlns="http://www.w3.org/2000/svg">
<path d="M33.8906 14.8359H30.7266C30.1441 14.8359 29.6719 14.2934 29.6719 13.7109V10.5469H6.32812V13.7109C6.32812 14.2934 5.85591 14.8359 5.27344 14.8359H2.10938C0.944367 14.8359 0 13.8213 0 12.6562V3.16406C0 1.41659 1.41659 0 3.16406 0H9.5625C12.1086 0 14.2406 1.81484 14.7309 4.21875H32.8359C34.5834 4.21875 36 5.63534 36 7.38281V12.6562C36 13.8213 35.0556 14.8359 33.8906 14.8359Z" fill="#009C47"/>
<path d="M30.7266 14.8359H33.8906C35.0556 14.8359 36 13.8211 36 12.6562V7.38281C36 5.63534 34.5834 4.21875 32.8359 4.21875H18V10.5469H29.6719V13.7109C29.6719 14.2934 30.1441 14.8359 30.7266 14.8359Z" fill="#00AB4E"/>
<path d="M30.7266 14.8359H5.27344C4.69048 14.8359 4.21875 14.2939 4.21875 13.7109V9.49219C4.21875 8.90923 4.69048 8.4375 5.27344 8.4375H30.7266C31.3095 8.4375 31.7812 8.90923 31.7812 9.49219V13.7109C31.7812 14.2939 31.3095 14.8359 30.7266 14.8359Z" fill="#FFF5F5"/>
<path d="M32.8359 36H3.16406C1.41659 36 0 34.5834 0 32.8359V12.6562H18.2812L36 32.8359C36 34.5834 34.5834 36 32.8359 36Z" fill="#06CD61"/>
<path d="M18 14.8359H30.7266C31.3095 14.8359 31.7812 14.2939 31.7812 13.7109V9.49219C31.7812 8.90923 31.3095 8.4375 30.7266 8.4375H18V14.8359Z" fill="#EFE2DD"/>
<path d="M36 12.6562H18V36H32.8359C34.5834 36 36 34.5834 36 32.8359V12.6562Z" fill="#00AB4E"/>
<path d="M24.3281 27.5625C23.7452 27.5625 23.2734 28.0342 23.2734 28.6172V29.6719H12.7266V28.6172C12.7266 28.0342 12.2548 27.5625 11.6719 27.5625C11.0889 27.5625 10.6172 28.0342 10.6172 28.6172V30.7266C10.6172 31.3095 11.0889 31.7812 11.6719 31.7812H24.3281C24.9111 31.7812 25.3828 31.3095 25.3828 30.7266V28.6172C25.3828 28.0342 24.9111 27.5625 24.3281 27.5625Z" fill="white"/>
<path d="M25.3828 30.7266V28.6172C25.3828 28.0342 24.9111 27.5625 24.3281 27.5625C23.7452 27.5625 23.2734 28.0342 23.2734 28.6172V29.6719H18V31.7812H24.3281C24.9111 31.7812 25.3828 31.3095 25.3828 30.7266Z" fill="#F4F4F4"/>
<path d="M14.5269 23.0345L16.9453 20.6162V26.5076C16.9453 27.0905 17.4171 27.5623 18 27.5623C18.583 27.5623 19.0547 27.0905 19.0547 26.5076V20.6162L21.4731 23.0346C21.8851 23.4465 22.5525 23.4466 22.9645 23.0346C23.3765 22.6226 23.3765 21.9551 22.9645 21.5432L18.747 17.3257C18.3353 16.9129 17.6622 16.9154 17.253 17.3257L13.0355 21.5432C12.6236 21.9551 12.6236 22.6226 13.0355 23.0346C13.4475 23.4465 14.115 23.4465 14.5269 23.0345Z" fill="#F4F4F4"/>
<path d="M19.0547 26.5075V20.6161L21.4731 23.0345C21.885 23.4465 22.5525 23.4465 22.9645 23.0345C23.3764 22.6226 23.3764 21.9551 22.9645 21.5431L18.747 17.3256C18.5414 17.1194 18.2706 17.0169 18 17.017V27.5622C18.583 27.5622 19.0547 27.0905 19.0547 26.5075Z" fill="white"/>
</svg>
