<svg width="28" height="36" viewBox="0 0 28 36" fill="none" xmlns="http://www.w3.org/2000/svg">
<path d="M22.5665 2.80653V27.7837C22.5665 28.8064 21.7375 29.6354 20.7148 29.6354H1.87903C0.856371 29.6354 0.0273438 28.8064 0.0273438 27.7837V2.80653C0.0273448 1.78388 0.856372 0.954849 1.87903 0.954849H20.7148C21.7375 0.954849 22.5665 1.78388 22.5665 2.80653Z" fill="#00D661"/>
<path d="M14.145 3.85832C14.145 12.173 7.90901 18.9779 0.0249023 19.4935V2.80567C0.0249023 1.78495 0.854275 0.955612 1.88028 0.955612H13.8792C14.0547 1.89661 14.145 2.8695 14.145 3.85832Z" fill="#00FD73"/>
<path d="M22.566 2.80567V27.7816C22.566 28.8077 21.7367 29.637 20.7159 29.637H1.88028C0.854275 29.637 0.0249023 28.8077 0.0249023 27.7816V26.6174C1.91221 27.5052 4.00148 27.9943 6.2025 27.9943C14.5384 27.9943 21.2954 20.9821 21.2954 12.3272C21.2954 7.85086 19.4879 3.81046 16.5799 0.955612H20.7159C21.7367 0.955612 22.566 1.78495 22.566 2.80567Z" fill="#00AB4E"/>
<path d="M25.2711 5.51146V30.4886C25.2711 31.5113 24.4421 32.3403 23.4194 32.3403H4.58362C3.56096 32.3403 2.73193 31.5113 2.73193 30.4886V5.51146C2.73193 4.4888 3.56096 3.65977 4.58362 3.65977H23.4194C24.4421 3.65977 25.2711 4.4888 25.2711 5.51146Z" fill="#00C158"/>
<path d="M16.8496 6.56325C16.8496 14.8779 10.6136 21.6828 2.72949 22.1984V5.5106C2.72949 4.48988 3.55887 3.66054 4.58487 3.66054H16.5838C16.7593 4.60153 16.8496 5.57442 16.8496 6.56325Z" fill="#008F41"/>
<path d="M25.2706 5.5106V30.4866C25.2706 31.5126 24.4413 32.3419 23.4205 32.3419H4.58487C3.55887 32.3419 2.72949 31.5126 2.72949 30.4866V29.3223C4.6168 30.2101 6.70607 30.6992 8.90709 30.6992C17.243 30.6992 24 23.687 24 15.0321C24 10.5558 22.1925 6.51539 19.2845 3.66054H23.4205C24.4413 3.66054 25.2706 4.48988 25.2706 5.5106Z" fill="#0BFF7A"/>
<path d="M27.9752 8.21496V33.1921C27.9752 34.2148 27.1462 35.0438 26.1235 35.0438H7.28772C6.26506 35.0438 5.43604 34.2148 5.43604 33.1921V8.21496C5.43604 7.19231 6.26506 6.36328 7.28772 6.36328H26.1235C27.1462 6.36328 27.9752 7.19231 27.9752 8.21496Z" fill="#95D7B3"/>
<path d="M19.5537 9.26675C19.5537 17.5814 13.3177 24.3863 5.43359 24.902V8.2141C5.43359 7.19338 6.26297 6.36404 7.28898 6.36404H19.2879C19.4634 7.30504 19.5537 8.27793 19.5537 9.26675Z" fill="#E5FEF0"/>
<path d="M27.9747 8.2141V33.1901C27.9747 34.2161 27.1454 35.0455 26.1246 35.0455H7.28898C6.26297 35.0455 5.43359 34.2161 5.43359 33.1901V32.0258C7.3209 32.9136 9.41017 33.4027 11.6112 33.4027C19.9471 33.4027 26.7041 26.3905 26.7041 17.7356C26.7041 13.2593 24.8966 9.21889 21.9886 6.36404H26.1246C27.1454 6.36404 27.9747 7.19338 27.9747 8.2141Z" fill="#007334"/>
<path d="M24.9486 22.6301H8.46329C8.23744 22.6301 8.0542 22.4468 8.0542 22.221C8.0542 21.9951 8.23744 21.8119 8.46329 21.8119H24.9486C25.1745 21.8119 25.3577 21.9951 25.3577 22.221C25.3577 22.4468 25.1745 22.6301 24.9486 22.6301Z" fill="#003016"/>
<path d="M24.9486 25.7203H8.46329C8.23744 25.7203 8.0542 25.5371 8.0542 25.3112C8.0542 25.0854 8.23744 24.9021 8.46329 24.9021H24.9486C25.1745 24.9021 25.3577 25.0854 25.3577 25.3112C25.3577 25.5371 25.1745 25.7203 24.9486 25.7203Z" fill="#003016"/>
<path d="M24.9486 28.8093H8.46329C8.23744 28.8093 8.0542 28.6261 8.0542 28.4003C8.0542 28.1744 8.23744 27.9912 8.46329 27.9912H24.9486C25.1745 27.9912 25.3577 28.1744 25.3577 28.4003C25.3577 28.6261 25.1745 28.8093 24.9486 28.8093Z" fill="#003016"/>
<path d="M19.2179 31.8994H8.46329C8.23744 31.8994 8.0542 31.7161 8.0542 31.4903C8.0542 31.2644 8.23744 31.0812 8.46329 31.0812H19.2179C19.4438 31.0812 19.627 31.2644 19.627 31.4903C19.627 31.7161 19.4438 31.8994 19.2179 31.8994Z" fill="#003016"/>
<path d="M24.9485 10.3567V17.999C24.9485 18.6015 24.4601 19.0899 23.8576 19.0899H16.3722C15.7697 19.0899 15.2812 18.6015 15.2812 17.999V10.3567C15.2812 9.75421 15.7697 9.26579 16.3722 9.26579H23.8576C24.4601 9.26579 24.9485 9.75421 24.9485 10.3567Z" fill="#00AB4E"/>
<path d="M21.0969 9.26587C20.7424 12.2822 18.3204 14.6659 15.2822 14.9495V10.3568C15.2822 9.75679 15.7678 9.26587 16.3731 9.26587H21.0969Z" fill="#007736"/>
<path d="M24.9478 10.3568V17.9986C24.9478 18.604 24.4623 19.0895 23.8569 19.0895H16.3731C15.7678 19.0895 15.2822 18.604 15.2822 17.9986V17.4858C15.915 17.6932 16.5914 17.8077 17.2951 17.8077C20.8678 17.8077 23.7586 14.9113 23.7586 11.3386C23.7586 10.6131 23.6386 9.91499 23.415 9.26587H23.8569C24.4623 9.26587 24.9478 9.75679 24.9478 10.3568Z" fill="#04DA65"/>
</svg>
